<?xml version="1.0" encoding="UTF-8" standalone="no"?>
<svg width="60px" height="60px" viewBox="0 0 60 60" version="1.1" xmlns="http://www.w3.org/2000/svg" xmlns:xlink="http://www.w3.org/1999/xlink" xmlns:sketch="http://www.bohemiancoding.com/sketch/ns">
    <!-- Generator: Sketch 3.4.4 (17249) - http://www.bohemiancoding.com/sketch -->
    <title>Slice 1</title>
    <desc>Created with Sketch.</desc>
    <defs></defs>
    <g id="Page-1" stroke="none" stroke-width="1" fill="none" fill-rule="evenodd" sketch:type="MSPage">
        <path d="M46.89,0.46 L12.23,0.46 C5.65,0.46 0.06,6.05 0.06,12.63 L0.06,47.29 C0.06,53.87 5.65,59.46 12.23,59.46 L46.89,59.46 C53.47,59.46 59.06,53.87 59.06,47.29 L59.06,12.63 C59.06,6.05 53.47,0.46 46.89,0.46 L46.89,0.46 Z M46.9,2.6 C51.76,2.6 56.87,7.28 56.87,12.63 L56.87,47.29 C56.87,52.34 51.58,57.27 46.89,57.27 L40.6,57.27 L40.6,34.76 L46.36,34.76 L47.8,25.64 L40.6,25.64 L40.6,22.76 C40.6,21.56 42.04,21.8 42.04,21.8 L47.8,21.8 L47.8,14.12 C44.36,12.28 39.16,12.2 39.16,12.2 C29.88,12.2 30.04,21.32 30.04,21.32 L30.04,25.64 L26.2,25.64 L26.2,35.275 L29.56,35.275 L29.56,57.27 L12.23,57.27 C7.24,57.27 2.25,51.92 2.25,47.29 L2.25,12.63 C2.25,8 6.94,2.65 12.23,2.65 L46.9,2.6 L46.9,2.6 Z M38.2,57.27 L31.96,57.27 L31.96,32.875 L28.6,32.875 L28.6,27.56 L31.96,27.56 C32.12,27.56 31.975,26 31.96,22.84 C31.958,22.437 31.613,14.25 39.375,14.25 C43.563,14.25 45.4,15.56 45.4,15.56 L45.4,19.4 L42.04,19.4 C38.12,19.16 38.2,22.28 38.2,22.28 L38.2,27.56 L45.25,27.56 L44.44,32.84 L38.2,32.84 L38.2,57.27 L38.2,57.27 Z" id="Shape" fill="#545454" sketch:type="MSShapeGroup"></path>
    </g>
</svg>