<?xml version="1.0" encoding="utf-8"?>
<!-- Generator: Adobe Illustrator 18.1.1, SVG Export Plug-In . SVG Version: 6.00 Build 0)  -->
<svg version="1.1" id="Layer_1" xmlns="http://www.w3.org/2000/svg" xmlns:xlink="http://www.w3.org/1999/xlink" x="0px" y="0px"
	 viewBox="0 0 59.4 59.4" enable-background="new 0 0 59.4 59.4" xml:space="preserve">
<path fill="#545454" d="M29.7,0C13.3,0,0,13.3,0,29.7c0,16.4,13.3,29.7,29.7,29.7s29.7-13.3,29.7-29.7C59.4,13.3,46.1,0,29.7,0z
	 M48.7,48.7c-4.8,4.8-12.2,7.4-19,7.4c-2.1,0-4.6-0.5-6.6-1c0.4-0.8,1-2.5,1.3-3.4c0.4-1.3,2.1-8.2,2.1-8.2c1,2,4,3.7,7.2,3.7
	c9.5,0,16-8.7,16-20.3c0-8.8-7.5-17-18.8-17C16.8,10,9.7,20.1,9.7,28.5c0,5.1,1.9,9.6,6.1,11.3c0.7,0.3,1.3,0,1.5-0.7
	c0.1-0.5,0.5-1.8,0.6-2.4c0.2-0.7,0.1-1-0.4-1.7c-1.2-1.4-2-3.2-2-5.8c0-7.5,5.6-14.2,14.6-14.2c8,0,12.3,4.9,12.3,11.4
	c0,8.6-3.8,15.8-9.4,15.8c-3.1,0-5.4-2.6-4.7-5.7c0.9-3.8,2.6-7.8,2.6-10.5c0-2.4-1.3-4.5-4-4.5c-3.2,0-5.7,3.3-5.7,7.7
	c0,2.8,1,4.7,1,4.7S18.9,47.6,18.4,50c-0.2,0.7-0.6,2.3-0.7,3c-2.3-1.2-5.1-2.5-7-4.4c-4.8-4.8-7.5-12.2-7.5-19
	c0-6.8,2.7-14.2,7.4-19c4.8-4.8,12.2-7.4,19-7.4c6.8,0,14.2,2.7,19,7.4c4.8,4.8,7.4,12.2,7.4,19C56.1,36.5,53.5,43.9,48.7,48.7z"/>
</svg>
