<?xml version="1.0" encoding="utf-8"?>
<!-- Generator: Adobe Illustrator 18.1.1, SVG Export Plug-In . SVG Version: 6.00 Build 0)  -->
<svg version="1.1" id="Layer_1" xmlns="http://www.w3.org/2000/svg" xmlns:xlink="http://www.w3.org/1999/xlink" x="0px" y="0px"
	 viewBox="0 0 59.4 59.4" enable-background="new 0 0 59.4 59.4" xml:space="preserve">
<path fill-rule="evenodd" clip-rule="evenodd" fill="#545454" d="M44.6-72.8h4.6c1.3,0,2.3,1,2.3,2.3v4.7c0,1.3-1,2.3-2.3,2.3h-4.6
	c-1.3,0-2.3-1-2.3-2.3v-4.7C42.2-71.8,43.3-72.8,44.6-72.8z"/>
<path fill-rule="evenodd" clip-rule="evenodd" fill="#545454" d="M42.5-58.3h14.3V-32c0,5.1-5.3,10-10,10H12.2c-5,0-10-5.4-10-10
	v-26.3h14.3c-1.1,2-1.8,4.5-1.8,7.5c0,9.8,7.5,14.6,14.8,14.6c7.4,0,14.8-4.9,14.8-14.6C44.3-53.7,43.7-56.2,42.5-58.3z M56.8-60
	H41.5v0.2c-2.8-3.8-7.4-5.6-12-5.6c-4.6,0-9.2,1.9-12,5.6V-60H2.2v-6.7c0-2.5,1.4-5.2,3.4-7.2v10.1h1.7v-11.4
	C8.1-75.6,9-76,9.8-76.3v12.6h1.8v-12.9c0.2,0,0.4,0,0.6,0l1.7,0v12.9h1.8v-12.9l31.3,0c4.9,0,10,4.7,10,10V-60z M46.8-78.8H12.2
	C5.6-78.8,0-73.2,0-66.6V-32c0,6.6,5.6,12.2,12.2,12.2h34.7C53.4-19.8,59-25.4,59-32v-34.7C59-73.2,53.4-78.8,46.8-78.8z M29.5-63.7
	c6.8,0,13.1,4,13.1,12.9c0,8.9-6.3,12.9-13.1,12.9c-6.8,0-13.1-4-13.1-12.9C16.4-59.7,22.7-63.7,29.5-63.7z"/>
<path fill-rule="evenodd" clip-rule="evenodd" fill="#545454" d="M29.5-60.1c-4.7,0-9.4,3.1-9.4,9.3c0,6.2,4.8,9.3,9.4,9.3
	c4.7,0,9.4-3.1,9.4-9.3C38.9-57,34.2-60.1,29.5-60.1z M29.5-58.4c4.1,0,7.7,2.2,7.7,7.6c0,5.4-3.6,7.6-7.7,7.6s-7.7-2.2-7.7-7.6
	C21.8-56.2,25.4-58.4,29.5-58.4z"/>
<path fill-rule="evenodd" clip-rule="evenodd" fill="#545454" d="M46.8-157.5H12.2C5.6-157.5,0-152,0-145.4v34.7
	c0,6.6,5.6,12.2,12.2,12.2h34.7c6.6,0,12.2-5.6,12.2-12.2v-34.7C59-152,53.4-157.5,46.8-157.5z M46.9-155.4c4.9,0,10,4.7,10,10v34.7
	c0,5-5.3,10-10,10h-6.3v-22.5h5.8l1.4-9.1h-7.2v-2.9c0-1.2,1.4-1,1.4-1h5.8v-7.7c-3.4-1.8-8.6-1.9-8.6-1.9c-9.3,0-9.1,9.1-9.1,9.1
	v4.3h-3.8v9.6h3.4v22H12.2c-5,0-10-5.3-10-10v-34.7c0-4.6,4.7-10,10-10L46.9-155.4z M38.2-100.7h-6.2v-24.4h-3.4v-5.3h3.4
	c0.2,0,0-1.6,0-4.7c0-0.4-0.3-8.6,7.4-8.6c4.2,0,6,1.3,6,1.3v3.8H42c-3.9-0.2-3.8,2.9-3.8,2.9v5.3h7l-0.8,5.3h-6.2V-100.7z"/>
<path fill-rule="evenodd" clip-rule="evenodd" fill="#545454" d="M27.6-206.8c-11-2.1-19.6-9.2-21.6-11.5c-2-2.3-2.9,1-2.9,1
	c-3.1,5.8,1.4,13,1.4,13c-2.5-0.5-2.4,1-2.4,1c-0.6,5.6,5.3,11,5.3,11c-1.5-0.3-1.4,1-1.4,1c1,4.7,8.6,9.1,8.6,9.1
	c-3.9,3.9-13.9,2.9-13.9,2.9c-1.6,0.8,0,1.9,0,1.9c8.1,6.1,18.2,5.8,18.2,5.8c35.2-0.6,35-36,35-36c1.4-0.9,4.9-4.1,5.8-6.2
	c0.8-2.2-1.8-2.2-2.4-1.4c-0.6,0.7-1.9,1-1.9,1c1.6-1.2,2.9-4.3,2.9-4.3c-0.5-2.1-2.4-1-2.4-1c-3.2,2-5.8,2.4-5.8,2.4
	c-3.7-4.4-9.6-3.8-9.6-3.8C30-221.2,28-211.1,28-210.8C27.8-210,27.6-206.8,27.6-206.8z M9.1-190.2c0,0,6.3,0.2,0.1-4.3
	c-2.8-2.6-3.6-4.4-4.6-7.4c0,0,5.3-0.1,2.1-3.5c-2-2.1-2.9-6.5-1.4-10c5.8,6.1,19.1,11.5,22.4,11.5s2.8-2.4,2.8-2.4
	c0-16.3,16-13.2,17.5-10c0,0,0.9,1.3,1.7,1.2c0.9-0.1,4.3-1.6,4.3-1.6s-0.3,1.7-3.5,4.7c1.1,0.8,4.4-0.1,4.4-0.1
	c-1,1.4-1.8,2.6-3.4,3.6c0.2,5-1.8,13.2-3.1,16.2C41-176,22.3-170.2,6.6-177c3.4-0.2,8.4-2.4,10-3.3c3.5-2.3,2.9-2.6-0.6-4.2
	C12.8-186.1,10.9-187.8,9.1-190.2z"/>
<path fill-rule="evenodd" clip-rule="evenodd" fill="#555555" d="M43.8-307.8c3.1,0,5.2,2.4,5.2,4.9v1.4H31h-0.1
	c-1.5,0-2.7,1.3-2.7,2.8c0,1.5,1.2,2.8,2.8,2.8c1.5,0,2.8-1.2,2.8-2.8v-0.1H49v1.5c-0.1,3.1-2.8,4.9-5.2,4.9H18.1
	c-3.1-0.1-5.2-2.5-5.2-4.9v-5.6c0-0.3,0.1-0.7,0.1-1c0.2-1.1,1.1-2.6,2.5-3.3c0.1-0.1,0.3-0.2,0.4-0.2c0.1,0,0.3-0.1,0.4-0.2
	c0.2-0.1,0.4-0.1,0.7-0.2c0.2,0,0.4-0.1,0.6-0.1c0.2,0,0.3,0,0.5,0H43.8z M44.3-310.3H17.6c-0.4,0-0.9,0.1-1.2,0.2
	c-0.3,0.1-0.6,0.1-0.8,0.2c-0.3,0.1-0.5,0.2-0.8,0.3c-0.1,0.1-0.3,0.2-0.5,0.2c-2.1,1-3.5,3.4-3.8,5.1l-0.1,0.9v6.6
	c0,0.2,0.2,1.2,0.2,1.3c0.1,0.2,0.2,0.5,0.2,0.7c0.1,0.2,0.2,0.4,0.3,0.7c0.9,2.1,3.5,3.8,5.3,4c0.4,0.1,0.8,0.2,1.2,0.2h26.8
	c0.1,0,0.8-0.1,1.2-0.2c0.3-0.1,0.5-0.1,0.8-0.2c0.3-0.1,0.5-0.2,0.8-0.3c0.1-0.1,0.3-0.2,0.5-0.2c2.1-1,3.5-3.4,3.8-5
	c0-0.3,0.1-0.6,0.2-1v-6.6c0-0.3-0.2-1.2-0.2-1.2c-0.1-0.3-0.2-0.6-0.3-0.9c-0.4-0.9-0.9-1.9-1.8-2.7c-1.2-1.1-2.5-1.7-3.7-1.9
	C45.2-310.2,44.7-310.2,44.3-310.3z"/>
<path fill-rule="evenodd" clip-rule="evenodd" fill="#555555" d="M11.3-289.5c1,1.9,3.4,3.4,5.1,3.6c0.4,0.1,0.8,0.1,1.2,0.2h10.7
	v17.8h5.4v-8.9h4.9c0.1,0,0.8-0.1,1.2-0.2c0.3-0.1,0.5-0.1,0.8-0.2c0.3-0.1,0.5-0.2,0.8-0.3c0.1-0.1,0.3-0.2,0.5-0.2
	c1.2-0.6,2.2-1.7,2.9-2.8c-0.1,0.1-0.2,0.1-0.4,0.2c-0.2,0.1-0.4,0.2-0.5,0.3c-0.3,0.1-0.5,0.2-0.8,0.3c-0.3,0.1-0.6,0.2-0.9,0.2
	c-0.4,0.1-1.2,0.2-1.3,0.2h-7.1v-6.4h10.8c0.1,0,0.8-0.1,1.2-0.2c0.2-0.1,0.5-0.1,0.8-0.2c0.3-0.1,0.5-0.2,0.8-0.3
	c0.1-0.1,0.3-0.2,0.5-0.2c1.2-0.6,2.2-1.7,2.9-2.8c-0.1,0.1-0.2,0.1-0.4,0.2c-0.2,0.1-0.4,0.2-0.5,0.3c-0.3,0.1-0.5,0.2-0.8,0.3
	c-0.3,0.1-0.6,0.2-0.9,0.2c-0.4,0.1-1.3,0.2-1.3,0.2H15.3c-0.4-0.1-0.9-0.1-1.3-0.2C13.2-288.5,12.2-288.9,11.3-289.5z"/>
<path fill-rule="evenodd" clip-rule="evenodd" fill="#555555" d="M49-285.3v9.8c-0.1,3.2-2.8,5-5.2,5H35v2.5h9.3
	c0.1,0,0.8-0.1,1.2-0.2c0.3-0.1,0.5-0.1,0.8-0.2c0.3-0.1,0.5-0.2,0.8-0.3c0.1-0.1,0.3-0.2,0.5-0.2c2.1-1,3.5-3.4,3.8-5
	c0-0.3,0.1-0.6,0.2-1v-12.5c0-0.1,0-0.2-0.1-0.4C50.9-286.8,50.1-285.9,49-285.3z"/>
<path fill-rule="evenodd" clip-rule="evenodd" fill="#555555" d="M26.9-270.5h-8.8c-3.1-0.1-5.2-2.5-5.2-4.9v-10
	c-1-0.6-1.9-1.5-2.5-2.5l-0.1,0.4v12.6c0,0.2,0.2,1.2,0.2,1.3c0.1,0.2,0.2,0.5,0.2,0.7c0.1,0.2,0.2,0.4,0.3,0.7
	c0.9,2.1,3.5,3.8,5.3,4c0.4,0.1,0.8,0.1,1.2,0.2h9.3V-270.5z"/>
<g>
	<path fill-rule="evenodd" clip-rule="evenodd" fill="#555555" d="M8-255.4v3.3c-0.7,0.6-1.6,0.9-2.7,0.9c-1.3,0-2.3-0.3-2.9-1
		c-0.7-0.7-1-1.7-1-3c0-1.3,0.3-2.3,1-2.9c0.7-0.7,1.6-1,2.9-1c1.1,0,1.9,0.3,2.6,0.8l0.5-0.7c-0.8-0.6-1.9-0.9-3.1-0.9
		c-0.8,0-1.4,0.1-2,0.3c-0.6,0.2-1.1,0.5-1.5,1c-0.4,0.4-0.7,0.9-1,1.5c-0.2,0.6-0.3,1.3-0.3,2c0,0.8,0.1,1.4,0.3,2
		c0.2,0.6,0.5,1.1,1,1.5c0.4,0.4,0.9,0.7,1.5,1c0.6,0.2,1.3,0.3,2,0.3c1.5,0,2.6-0.4,3.5-1.2c0.1-0.1,0.1-0.2,0.1-0.3v-3.7L8-255.4z
		"/>
	<path fill-rule="evenodd" clip-rule="evenodd" fill="#555555" d="M26.9-258.1c0.7,0.7,1,1.7,1,2.9c0,1.3-0.3,2.3-1,3
		c-0.7,0.7-1.7,1-2.9,1s-2.3-0.3-2.9-1c-0.7-0.7-1-1.7-1-3c0-1.3,0.3-2.3,1-2.9c0.7-0.7,1.6-1,2.9-1S26.2-258.8,26.9-258.1z
		 M26-250.7c0.6-0.2,1.1-0.5,1.5-1c0.4-0.4,0.7-0.9,1-1.5c0.2-0.6,0.3-1.3,0.3-2c0-0.8-0.1-1.4-0.3-2c-0.2-0.6-0.5-1.1-1-1.5
		c-0.4-0.4-0.9-0.7-1.5-1c-0.6-0.2-1.3-0.3-2-0.3c-0.8,0-1.4,0.1-2,0.3c-0.6,0.2-1.1,0.5-1.5,1c-0.4,0.4-0.7,0.9-0.9,1.5
		c-0.2,0.6-0.3,1.3-0.3,2c0,0.8,0.1,1.4,0.3,2c0.2,0.6,0.5,1.1,0.9,1.5c0.4,0.4,0.9,0.7,1.5,1c0.6,0.2,1.3,0.3,2,0.3
		C24.7-250.3,25.4-250.5,26-250.7z"/>
	<path fill-rule="evenodd" clip-rule="evenodd" fill="#555555" d="M44.9-259.1v-0.9h-5.5c-0.1,0-0.2,0-0.3,0.1
		c-0.1,0.1-0.1,0.2-0.1,0.3v9.1h0.9v-4.8h3.9l0.3-0.9h-4.1v-3H44.9z"/>
	<polygon fill-rule="evenodd" clip-rule="evenodd" fill="#555555" points="54.5,-260 54.5,-259.1 57.5,-259.1 57.5,-250.4 
		58.4,-250.4 58.4,-259.1 61.3,-259.1 61.3,-260 	"/>
</g>
<g>
	<path fill-rule="evenodd" clip-rule="evenodd" fill="#555555" d="M1.2-242.4c0.3-0.4,0.4-0.9,0.4-1.5v-4H1.3v4
		c0,0.5-0.1,0.9-0.3,1.2l-0.1,0.2l0.3,0.3L1.2-242.4z"/>
	<path fill-rule="evenodd" clip-rule="evenodd" fill="#555555" d="M8.8-247.5v-0.4H6.4c-0.1,0-0.1,0-0.1,0.1c0,0-0.1,0.1-0.1,0.1
		v3.9c0,0.1,0,0.1,0.1,0.1c0,0,0.1,0.1,0.1,0.1h2.4v-0.4H6.6v-1.7h1.7l0.1-0.4H6.6v-1.3H8.8z"/>
	<path fill-rule="evenodd" clip-rule="evenodd" fill="#555555" d="M18.2-247.9l-1.5,3.6l-1.1-2.5h-0.4l0.4,0.8l-0.8,1.7l-1.5-3.6
		h-0.4l1.8,4.2c0,0,0,0.1,0.1,0.1c0,0,0.1,0,0.1,0c0.1,0,0.1,0,0.2-0.1l0.8-1.8l0.8,1.8c0,0.1,0.1,0.1,0.2,0.1c0.1,0,0.1,0,0.2-0.1
		l1.8-4.2H18.2z"/>
	<path fill-rule="evenodd" clip-rule="evenodd" fill="#555555" d="M25.3-247.5v-0.4h-2.4c-0.1,0-0.1,0-0.1,0.1c0,0-0.1,0.1-0.1,0.1
		v3.9c0,0.1,0,0.1,0.1,0.1c0,0,0.1,0.1,0.1,0.1h2.4v-0.4h-2.2v-1.7h1.7l0.1-0.4h-1.8v-1.3H25.3z"/>
	<path fill-rule="evenodd" clip-rule="evenodd" fill="#555555" d="M30.1-244.1v-3.8h-0.4v4c0,0.1,0,0.1,0,0.1c0,0,0.1,0.1,0.1,0.1
		h2.4l0.1-0.4H30.1z"/>
	<path fill-rule="evenodd" clip-rule="evenodd" fill="#555555" d="M37.2-244.1v-3.8h-0.4v4c0,0.1,0,0.1,0.1,0.1c0,0,0.1,0.1,0.1,0.1
		h2.4l0.1-0.4H37.2z"/>
	<path fill-rule="evenodd" clip-rule="evenodd" fill="#555555" d="M46.3-247.5v-0.4h-2.4c0,0-0.1,0-0.1,0.1c0,0-0.1,0.1-0.1,0.1v3.9
		c0,0.1,0,0.1,0.1,0.1c0,0,0.1,0.1,0.1,0.1h2.4v-0.4h-2.2v-1.7h1.7l0.1-0.4h-1.8v-1.3H46.3z"/>
	<path fill-rule="evenodd" clip-rule="evenodd" fill="#555555" d="M50.9-247.5h1.5c0.1,0,0.2,0,0.3,0.1c0.1,0,0.2,0.1,0.3,0.2
		c0.1,0.1,0.1,0.2,0.2,0.3c0,0.1,0.1,0.2,0.1,0.3c0,0.1,0,0.2-0.1,0.3c-0.1,0.1-0.1,0.2-0.2,0.3c-0.1,0.1-0.2,0.1-0.3,0.2
		c-0.1,0.1-0.2,0.1-0.3,0.1h-1.5V-247.5z M54-243.7l-1.3-1.7c0.1,0,0.3-0.1,0.4-0.1c0.1-0.1,0.2-0.2,0.3-0.3
		c0.1-0.1,0.2-0.2,0.2-0.4c0-0.1,0.1-0.3,0.1-0.4c0-0.2,0-0.3-0.1-0.5c-0.1-0.1-0.2-0.3-0.3-0.4c-0.1-0.1-0.2-0.2-0.4-0.3
		c-0.1-0.1-0.3-0.1-0.5-0.1h0h-1.8c0,0-0.1,0-0.1,0.1c0,0.1-0.1,0.1-0.1,0.1v4h0.4v-1.7h1.3l1.3,1.7H54z"/>
	<polygon fill-rule="evenodd" clip-rule="evenodd" fill="#555555" points="61.4,-247.9 61,-247.9 59.7,-246 58.3,-247.9 
		57.9,-247.9 59.5,-245.6 59.5,-243.7 59.8,-243.7 59.8,-245.6 	"/>
</g>
<path fill="#545454" d="M29.7,0.1C13.3,0.1,0,13.3,0,29.7c0,16.4,13.3,29.7,29.7,29.7s29.7-13.3,29.7-29.7
	C59.4,13.3,46.1,0.1,29.7,0.1z M48.7,48.7c-4.8,4.8-12.2,7.4-19,7.4c-2.1,0-4.6-0.5-6.6-1c0.4-0.8,1-2.5,1.3-3.4
	c0.4-1.3,2.1-8.2,2.1-8.2c1,2,4,3.7,7.2,3.7c9.5,0,16-8.7,16-20.3c0-8.8-7.5-17-18.8-17C16.8,10,9.7,20.1,9.7,28.6
	c0,5.1,1.9,9.6,6.1,11.3c0.7,0.3,1.3,0,1.5-0.7c0.1-0.5,0.5-1.8,0.6-2.4c0.2-0.7,0.1-1-0.4-1.7c-1.2-1.4-2-3.2-2-5.8
	c0-7.5,5.6-14.2,14.6-14.2c8,0,12.3,4.9,12.3,11.4c0,8.6-3.8,15.8-9.4,15.8c-3.1,0-5.4-2.6-4.7-5.7C29.2,32.8,31,28.7,31,26
	c0-2.4-1.3-4.5-4-4.5c-3.2,0-5.7,3.3-5.7,7.7c0,2.8,1,4.7,1,4.7s-3.2,13.8-3.8,16.2c-0.2,0.7-0.6,2.3-0.7,3c-2.3-1.2-5.1-2.5-7-4.4
	c-4.8-4.8-7.5-12.2-7.5-19c0-6.8,2.7-14.2,7.4-19c4.8-4.8,12.2-7.4,19-7.4c6.8,0,14.2,2.7,19,7.4c4.8,4.8,7.4,12.2,7.4,19
	C56.1,36.5,53.5,43.9,48.7,48.7z"/>
</svg>
