<?xml version="1.0" encoding="UTF-8" standalone="no"?>
<svg width="60px" height="51px" viewBox="0 0 60 51" version="1.1" xmlns="http://www.w3.org/2000/svg" xmlns:xlink="http://www.w3.org/1999/xlink" xmlns:sketch="http://www.bohemiancoding.com/sketch/ns">
    <!-- Generator: Sketch 3.4.4 (17249) - http://www.bohemiancoding.com/sketch -->
    <title>Slice 1</title>
    <desc>Created with Sketch.</desc>
    <defs></defs>
    <g id="Page-1" stroke="none" stroke-width="1" fill="none" fill-rule="evenodd" sketch:type="MSPage">
        <path d="M27.64,15.24 C16.625,13.187 8.02,6.06 6.04,3.72 C4.06,1.38 3.16,4.68 3.16,4.68 C0.04,10.5 4.6,17.64 4.6,17.64 C2.14,17.1 2.2,18.6 2.2,18.6 C1.6,24.24 7.48,29.64 7.48,29.64 C5.98,29.34 6.04,30.6 6.04,30.6 C7.06,35.34 14.68,39.72 14.68,39.72 C10.78,43.62 0.76,42.6 0.76,42.6 C-0.8,43.44 0.76,44.52 0.76,44.52 C8.86,50.58 19,50.28 19,50.28 C54.22,49.68 54.04,14.28 54.04,14.28 C55.48,13.38 58.96,10.2 59.8,8.04 C60.64,5.88 58,5.88 57.4,6.6 C56.8,7.32 55.48,7.56 55.48,7.56 C57.1,6.36 58.36,3.24 58.36,3.24 C57.88,1.14 55.96,2.28 55.96,2.28 C52.78,4.32 50.2,4.68 50.2,4.68 C46.48,0.3 40.6,0.84 40.6,0.84 C30.015,0.819 28.045,10.914 28,11.25 C27.894,12.038 27.64,15.24 27.64,15.24 L27.64,15.24 Z M9.16,31.83 C9.16,31.83 15.5,32.062 9.25,27.5 C6.438,24.875 5.625,23.125 4.688,20.125 C4.688,20.125 9.938,20 6.75,16.58 C4.766,14.451 3.85,10.05 5.32,6.54 C11.14,12.67 24.45,18.09 27.72,18.09 C30.99,18.09 30.53,15.69 30.53,15.69 C30.49,-0.65 46.49,2.46 48.04,5.73 C48.04,5.73 48.91,7.02 49.78,6.9 C50.65,6.78 54.1,5.28 54.1,5.28 C54.1,5.28 53.8,7.02 50.65,10.02 C51.73,10.86 55,9.93 55,9.93 C54,11.35 53.2,12.51 51.58,13.53 C51.79,18.51 49.81,26.75 48.46,29.72 C41.07,46.02 22.39,51.8 6.62,45.01 C10.07,44.82 15.058,42.642 16.58,41.66 C20.125,39.375 19.443,39.05 16.01,37.47 C12.824,35.944 10.98,34.22 9.16,31.83 L9.16,31.83 Z" id="Shape" fill="#545454" sketch:type="MSShapeGroup"></path>
    </g>
</svg>