<?xml version="1.0" encoding="UTF-8" standalone="no"?>
<svg width="42px" height="44px" viewBox="0 0 42 44" version="1.1" xmlns="http://www.w3.org/2000/svg" xmlns:xlink="http://www.w3.org/1999/xlink" xmlns:sketch="http://www.bohemiancoding.com/sketch/ns">
    <!-- Generator: Sketch 3.4.4 (17249) - http://www.bohemiancoding.com/sketch -->
    <title>Slice 1</title>
    <desc>Created with Sketch.</desc>
    <defs></defs>
    <g id="Page-1" stroke="none" stroke-width="1" fill="none" fill-rule="evenodd" sketch:type="MSPage">
        <path d="M33.83,3.25 C36.89,3.28 39.07,5.68 39.07,8.19 L39.07,9.58 L21,9.58 L20.9,9.58 C19.42,9.63 18.23,10.84 18.23,12.33 C18.23,13.85 19.47,15.08 21,15.08 C22.53,15.08 23.77,13.85 23.77,12.33 L23.77,12.2 L39.07,12.2 L39.07,13.74 C38.96,16.88 36.27,18.69 33.88,18.69 L8.1,18.69 C5.02,18.61 2.93,16.2 2.93,13.76 L2.93,8.19 C2.95,7.86 3,7.53 3.04,7.21 C3.24,6.11 4.19,4.61 5.53,3.93 C5.66,3.87 5.81,3.78 5.97,3.71 C6.08,3.67 6.25,3.6 6.41,3.54 C6.63,3.47 6.85,3.41 7.07,3.36 C7.24,3.32 7.49,3.3 7.68,3.28 C7.84,3.28 7.99,3.28 8.15,3.25 L33.83,3.25 L33.83,3.25 Z M34.36,0.72 L7.62,0.72 C7.2,0.76 6.76,0.83 6.39,0.9 C6.12,0.96 5.84,1.03 5.59,1.11 C5.33,1.2 5.04,1.33 4.82,1.42 C4.67,1.49 4.49,1.59 4.34,1.66 C2.25,2.69 0.8,5.04 0.51,6.73 L0.38,7.67 L0.38,14.28 C0.38,14.46 0.58,15.51 0.6,15.59 C0.67,15.83 0.78,16.09 0.84,16.33 C0.93,16.53 1.04,16.77 1.13,16.99 C2.03,19.06 4.63,20.75 6.39,21.03 C6.78,21.1 7.18,21.18 7.57,21.23 L34.4,21.23 C34.47,21.23 35.22,21.1 35.61,21.03 C35.86,20.96 36.14,20.9 36.41,20.81 C36.67,20.72 36.93,20.62 37.18,20.51 C37.31,20.44 37.51,20.33 37.66,20.27 C39.73,19.26 41.18,16.88 41.46,15.22 C41.51,14.92 41.57,14.59 41.62,14.26 L41.62,7.67 C41.62,7.4 41.4,6.49 41.4,6.44 C41.33,6.14 41.22,5.81 41.11,5.55 C40.76,4.63 40.17,3.67 39.27,2.82 C38.08,1.7 36.78,1.16 35.61,0.9 C35.2,0.81 34.76,0.76 34.36,0.72 L34.36,0.72 Z" id="Shape" fill="#555555" sketch:type="MSShapeGroup"></path>
        <path d="M1.37,21.49 C2.4,23.38 4.78,24.87 6.43,25.14 C6.83,25.2 7.22,25.29 7.62,25.33 L18.32,25.33 L18.32,43.12 L23.68,43.12 L23.68,34.24 L28.55,34.24 C28.62,34.24 29.37,34.11 29.76,34.05 C30.01,33.98 30.29,33.91 30.56,33.83 C30.82,33.74 31.08,33.63 31.33,33.52 C31.46,33.46 31.66,33.35 31.81,33.28 C33.03,32.69 34.03,31.62 34.71,30.5 C34.59,30.57 34.47,30.63 34.35,30.69 C34.18,30.76 33.97,30.88 33.82,30.95 C33.56,31.07 33.27,31.19 32.98,31.29 C32.7,31.38 32.39,31.45 32.12,31.52 C31.69,31.6 30.88,31.74 30.81,31.74 L23.68,31.74 L23.68,25.33 L34.45,25.33 C34.51,25.33 35.26,25.2 35.66,25.14 C35.9,25.07 36.19,25 36.45,24.92 C36.71,24.83 36.98,24.72 37.22,24.61 C37.35,24.55 37.55,24.44 37.7,24.37 C38.92,23.78 39.93,22.71 40.6,21.59 C40.49,21.66 40.37,21.72 40.24,21.78 C40.08,21.85 39.86,21.97 39.72,22.04 C39.45,22.16 39.17,22.28 38.88,22.38 C38.59,22.47 38.28,22.54 38.02,22.61 C37.59,22.69 36.77,22.83 36.7,22.83 L5.37,22.83 C4.94,22.78 4.51,22.69 4.08,22.61 C3.27,22.48 2.29,22.08 1.37,21.49 L1.37,21.49 Z" id="Shape" fill="#555555" sketch:type="MSShapeGroup"></path>
        <path d="M39.07,25.73 L39.07,35.57 C38.96,38.72 36.27,40.53 33.88,40.53 L25.09,40.53 L25.09,43.06 L34.4,43.06 C34.47,43.06 35.22,42.93 35.61,42.87 C35.86,42.8 36.14,42.74 36.41,42.65 C36.67,42.56 36.93,42.45 37.18,42.34 C37.31,42.28 37.51,42.17 37.66,42.1 C39.73,41.1 41.18,38.72 41.46,37.06 C41.51,36.75 41.57,36.43 41.62,36.1 L41.62,23.56 C41.62,23.48 41.6,23.34 41.57,23.17 C40.96,24.16 40.1,25.12 39.07,25.73 L39.07,25.73 Z" id="Shape" fill="#555555" sketch:type="MSShapeGroup"></path>
        <path d="M16.91,40.53 L8.1,40.53 C5.02,40.44 2.93,38.04 2.93,35.6 L2.93,25.65 C1.94,25.01 1.01,24.13 0.44,23.14 L0.38,23.56 L0.38,36.12 C0.38,36.29 0.58,37.34 0.6,37.43 C0.67,37.67 0.78,37.93 0.84,38.17 C0.93,38.37 1.04,38.61 1.13,38.83 C2.03,40.9 4.63,42.58 6.39,42.87 C6.78,42.93 7.18,43.02 7.57,43.06 L16.91,43.06 L16.91,40.53 L16.91,40.53 Z" id="Shape" fill="#555555" sketch:type="MSShapeGroup"></path>
    </g>
</svg>