<?xml version="1.0" encoding="UTF-8" standalone="no"?>
<svg width="62px" height="69px" viewBox="0 0 62 69" version="1.1" xmlns="http://www.w3.org/2000/svg" xmlns:xlink="http://www.w3.org/1999/xlink" xmlns:sketch="http://www.bohemiancoding.com/sketch/ns">
    <!-- Generator: Sketch 3.4.4 (17249) - http://www.bohemiancoding.com/sketch -->
    <title>Slice 1</title>
    <desc>Created with Sketch.</desc>
    <defs></defs>
    <g id="Page-1" stroke="none" stroke-width="1" fill="none" fill-rule="evenodd" sketch:type="MSPage">
        <path d="M43.83,3.25 C46.89,3.28 49.07,5.68 49.07,8.19 L49.07,9.58 L31,9.58 L30.9,9.58 C29.42,9.63 28.23,10.84 28.23,12.33 C28.23,13.85 29.47,15.08 31,15.08 C32.53,15.08 33.77,13.85 33.77,12.33 L33.77,12.2 L49.07,12.2 L49.07,13.74 C48.96,16.88 46.27,18.69 43.88,18.69 L18.1,18.69 C15.02,18.61 12.93,16.2 12.93,13.76 L12.93,8.19 C12.95,7.86 13,7.53 13.04,7.21 C13.24,6.11 14.19,4.61 15.53,3.93 C15.66,3.87 15.81,3.78 15.97,3.71 C16.08,3.67 16.25,3.6 16.41,3.54 C16.63,3.47 16.85,3.41 17.07,3.36 C17.24,3.32 17.49,3.3 17.68,3.28 C17.84,3.28 17.99,3.28 18.15,3.25 L43.83,3.25 L43.83,3.25 Z M44.36,0.72 L17.62,0.72 C17.2,0.76 16.76,0.83 16.39,0.9 C16.12,0.96 15.84,1.03 15.59,1.11 C15.33,1.2 15.04,1.33 14.82,1.42 C14.67,1.49 14.49,1.59 14.34,1.66 C12.25,2.69 10.8,5.04 10.51,6.73 L10.38,7.67 L10.38,14.28 C10.38,14.46 10.58,15.51 10.6,15.59 C10.67,15.83 10.78,16.09 10.84,16.33 C10.93,16.53 11.04,16.77 11.13,16.99 C12.03,19.06 14.63,20.75 16.39,21.03 C16.78,21.1 17.18,21.18 17.57,21.23 L44.4,21.23 C44.47,21.23 45.22,21.1 45.61,21.03 C45.86,20.96 46.14,20.9 46.41,20.81 C46.67,20.72 46.93,20.62 47.18,20.51 C47.31,20.44 47.51,20.33 47.66,20.27 C49.73,19.26 51.18,16.88 51.46,15.22 C51.51,14.92 51.57,14.59 51.62,14.26 L51.62,7.67 C51.62,7.4 51.4,6.49 51.4,6.44 C51.33,6.14 51.22,5.81 51.11,5.55 C50.76,4.63 50.17,3.67 49.27,2.82 C48.08,1.7 46.78,1.16 45.61,0.9 C45.2,0.81 44.76,0.76 44.36,0.72 L44.36,0.72 Z" id="Shape" fill="#555555" sketch:type="MSShapeGroup"></path>
        <path d="M11.37,21.49 C12.4,23.38 14.78,24.87 16.43,25.14 C16.83,25.2 17.22,25.29 17.62,25.33 L28.32,25.33 L28.32,43.12 L33.68,43.12 L33.68,34.24 L38.55,34.24 C38.62,34.24 39.37,34.11 39.76,34.05 C40.01,33.98 40.29,33.91 40.56,33.83 C40.82,33.74 41.08,33.63 41.33,33.52 C41.46,33.46 41.66,33.35 41.81,33.28 C43.03,32.69 44.03,31.62 44.71,30.5 C44.59,30.57 44.47,30.63 44.35,30.69 C44.18,30.76 43.97,30.88 43.82,30.95 C43.56,31.07 43.27,31.19 42.98,31.29 C42.7,31.38 42.39,31.45 42.12,31.52 C41.69,31.6 40.88,31.74 40.81,31.74 L33.68,31.74 L33.68,25.33 L44.45,25.33 C44.51,25.33 45.26,25.2 45.66,25.14 C45.9,25.07 46.19,25 46.45,24.92 C46.71,24.83 46.98,24.72 47.22,24.61 C47.35,24.55 47.55,24.44 47.7,24.37 C48.92,23.78 49.93,22.71 50.6,21.59 C50.49,21.66 50.37,21.72 50.24,21.78 C50.08,21.85 49.86,21.97 49.72,22.04 C49.45,22.16 49.17,22.28 48.88,22.38 C48.59,22.47 48.28,22.54 48.02,22.61 C47.59,22.69 46.77,22.83 46.7,22.83 L15.37,22.83 C14.94,22.78 14.51,22.69 14.08,22.61 C13.27,22.48 12.29,22.08 11.37,21.49 L11.37,21.49 Z" id="Shape" fill="#555555" sketch:type="MSShapeGroup"></path>
        <path d="M49.07,25.73 L49.07,35.57 C48.96,38.72 46.27,40.53 43.88,40.53 L35.09,40.53 L35.09,43.06 L44.4,43.06 C44.47,43.06 45.22,42.93 45.61,42.87 C45.86,42.8 46.14,42.74 46.41,42.65 C46.67,42.56 46.93,42.45 47.18,42.34 C47.31,42.28 47.51,42.17 47.66,42.1 C49.73,41.1 51.18,38.72 51.46,37.06 C51.51,36.75 51.57,36.43 51.62,36.1 L51.62,23.56 C51.62,23.48 51.6,23.34 51.57,23.17 C50.96,24.16 50.1,25.12 49.07,25.73 L49.07,25.73 Z" id="Shape" fill="#555555" sketch:type="MSShapeGroup"></path>
        <path d="M26.91,40.53 L18.1,40.53 C15.02,40.44 12.93,38.04 12.93,35.6 L12.93,25.65 C11.94,25.01 11.01,24.13 10.44,23.14 L10.38,23.56 L10.38,36.12 C10.38,36.29 10.58,37.34 10.6,37.43 C10.67,37.67 10.78,37.93 10.84,38.17 C10.93,38.37 11.04,38.61 11.13,38.83 C12.03,40.9 14.63,42.58 16.39,42.87 C16.78,42.93 17.18,43.02 17.57,43.06 L26.91,43.06 L26.91,40.53 L26.91,40.53 Z" id="Shape" fill="#555555" sketch:type="MSShapeGroup"></path>
        <path d="M8.06,55.63 L8.06,58.91 C7.39,59.49 6.47,59.78 5.32,59.78 C4.04,59.78 3.07,59.45 2.4,58.77 C1.74,58.09 1.4,57.1 1.4,55.81 C1.4,54.53 1.74,53.55 2.4,52.87 C3.07,52.19 4.04,51.85 5.32,51.85 C6.38,51.85 7.24,52.1 7.91,52.6 L8.44,51.89 C7.62,51.27 6.58,50.96 5.32,50.96 C4.57,50.96 3.89,51.07 3.3,51.29 C2.7,51.51 2.2,51.83 1.79,52.25 C1.37,52.67 1.06,53.18 0.84,53.78 C0.62,54.38 0.52,55.06 0.52,55.81 C0.52,56.57 0.62,57.26 0.84,57.86 C1.06,58.45 1.37,58.96 1.79,59.38 C2.2,59.8 2.7,60.11 3.3,60.33 C3.89,60.55 4.57,60.66 5.32,60.66 C6.79,60.66 7.96,60.25 8.82,59.43 C8.9,59.33 8.95,59.22 8.95,59.09 L8.95,55.36 L8.06,55.63 L8.06,55.63 Z" id="Shape" fill="#555555" sketch:type="MSShapeGroup"></path>
        <path d="M26.91,52.87 C27.58,53.55 27.91,54.53 27.91,55.81 C27.91,57.1 27.58,58.09 26.91,58.77 C26.24,59.45 25.26,59.78 23.98,59.78 C22.7,59.78 21.73,59.45 21.07,58.77 C20.4,58.09 20.06,57.1 20.06,55.81 C20.06,54.53 20.4,53.55 21.07,52.87 C21.73,52.19 22.7,51.85 23.98,51.85 C25.26,51.85 26.24,52.19 26.91,52.87 L26.91,52.87 Z M26.01,60.33 C26.6,60.11 27.1,59.8 27.51,59.38 C27.93,58.96 28.24,58.45 28.46,57.86 C28.68,57.26 28.79,56.57 28.79,55.81 C28.79,55.06 28.68,54.38 28.46,53.78 C28.24,53.18 27.93,52.67 27.51,52.25 C27.1,51.83 26.6,51.51 26.01,51.29 C25.42,51.07 24.74,50.96 23.98,50.96 C23.23,50.96 22.55,51.07 21.96,51.29 C21.37,51.51 20.86,51.83 20.45,52.25 C20.04,52.67 19.72,53.18 19.51,53.78 C19.29,54.38 19.18,55.06 19.18,55.81 C19.18,56.57 19.29,57.26 19.51,57.86 C19.72,58.45 20.04,58.96 20.45,59.38 C20.86,59.8 21.37,60.11 21.96,60.33 C22.55,60.55 23.23,60.66 23.98,60.66 C24.74,60.66 25.42,60.55 26.01,60.33 L26.01,60.33 Z" id="Shape" fill="#555555" sketch:type="MSShapeGroup"></path>
        <path d="M44.93,51.93 L44.93,51.05 L39.42,51.05 C39.3,51.05 39.2,51.09 39.11,51.18 C39.02,51.26 38.98,51.36 38.98,51.48 L38.98,60.59 L39.86,60.59 L39.86,55.8 L43.73,55.8 L44,54.91 L39.86,54.91 L39.86,51.93 L44.93,51.93 L44.93,51.93 Z" id="Shape" fill="#555555" sketch:type="MSShapeGroup"></path>
        <path d="M54.55,51.05 L54.55,51.93 L57.53,51.93 L57.53,60.59 L58.41,60.59 L58.41,51.93 L61.39,51.93 L61.39,51.05 L54.55,51.05 Z" id="Shape" fill="#555555" sketch:type="MSShapeGroup"></path>
        <path d="M1.28,68.57 C1.55,68.2 1.68,67.71 1.68,67.11 L1.68,63.06 L1.34,63.06 L1.34,67.11 C1.34,67.61 1.22,68.02 0.99,68.32 L0.86,68.47 L1.16,68.72 L1.28,68.57 L1.28,68.57 Z" id="Shape" fill="#555555" sketch:type="MSShapeGroup"></path>
        <path d="M8.82,63.46 L8.82,63.07 L6.41,63.07 C6.36,63.07 6.31,63.09 6.28,63.13 C6.23,63.17 6.22,63.21 6.22,63.26 L6.22,67.11 C6.22,67.16 6.23,67.21 6.28,67.24 C6.31,67.29 6.36,67.31 6.41,67.31 L8.82,67.31 L8.82,66.91 L6.6,66.91 L6.6,65.18 L8.29,65.18 L8.41,64.78 L6.6,64.78 L6.6,63.46 L8.82,63.46 L8.82,63.46 Z" id="Shape" fill="#555555" sketch:type="MSShapeGroup"></path>
        <path d="M18.24,63.07 L16.7,66.65 L15.62,64.15 L15.19,64.15 L15.54,64.93 L14.79,66.65 L13.26,63.07 L12.83,63.07 L14.62,67.23 C14.63,67.26 14.65,67.29 14.69,67.31 C14.72,67.33 14.75,67.34 14.79,67.34 C14.88,67.34 14.93,67.31 14.97,67.23 L15.74,65.42 L16.52,67.23 C16.56,67.31 16.61,67.34 16.7,67.34 C16.78,67.34 16.83,67.31 16.87,67.23 L18.66,63.07 L18.24,63.07 L18.24,63.07 Z" id="Shape" fill="#555555" sketch:type="MSShapeGroup"></path>
        <path d="M25.39,63.46 L25.39,63.07 L22.99,63.07 C22.94,63.07 22.89,63.09 22.85,63.13 C22.81,63.17 22.8,63.21 22.8,63.26 L22.8,67.11 C22.8,67.16 22.81,67.21 22.85,67.24 C22.89,67.29 22.94,67.31 22.99,67.31 L25.39,67.31 L25.39,66.91 L23.18,66.91 L23.18,65.18 L24.87,65.18 L24.99,64.78 L23.18,64.78 L23.18,63.46 L25.39,63.46 L25.39,63.46 Z" id="Shape" fill="#555555" sketch:type="MSShapeGroup"></path>
        <path d="M30.12,66.91 L30.12,63.07 L29.74,63.07 L29.74,67.11 C29.74,67.16 29.75,67.21 29.79,67.24 C29.83,67.29 29.88,67.31 29.93,67.31 L32.33,67.31 L32.45,66.91 L30.12,66.91 L30.12,66.91 Z" id="Shape" fill="#555555" sketch:type="MSShapeGroup"></path>
        <path d="M37.25,66.91 L37.25,63.07 L36.86,63.07 L36.86,67.11 C36.86,67.16 36.88,67.21 36.92,67.24 C36.96,67.29 37,67.31 37.06,67.31 L39.46,67.31 L39.57,66.91 L37.25,66.91 L37.25,66.91 Z" id="Shape" fill="#555555" sketch:type="MSShapeGroup"></path>
        <path d="M46.37,63.46 L46.37,63.07 L43.96,63.07 C43.91,63.07 43.87,63.09 43.83,63.13 C43.79,63.17 43.77,63.21 43.77,63.26 L43.77,67.11 C43.77,67.16 43.79,67.21 43.83,67.24 C43.87,67.29 43.91,67.31 43.96,67.31 L46.37,67.31 L46.37,66.91 L44.16,66.91 L44.16,65.18 L45.84,65.18 L45.96,64.78 L44.16,64.78 L44.16,63.46 L46.37,63.46 L46.37,63.46 Z" id="Shape" fill="#555555" sketch:type="MSShapeGroup"></path>
        <path d="M50.98,63.47 L52.53,63.47 C52.65,63.47 52.75,63.49 52.86,63.54 C52.96,63.58 53.05,63.64 53.12,63.72 C53.2,63.8 53.26,63.89 53.31,64 C53.35,64.11 53.38,64.22 53.38,64.33 C53.38,64.45 53.35,64.57 53.31,64.67 C53.26,64.77 53.2,64.87 53.12,64.95 C53.05,65.02 52.96,65.09 52.86,65.13 C52.75,65.18 52.65,65.2 52.53,65.2 L50.98,65.2 L50.98,63.47 L50.98,63.47 Z M54.08,67.31 L52.73,65.58 C52.87,65.56 53.01,65.52 53.14,65.44 C53.26,65.37 53.37,65.27 53.46,65.16 C53.55,65.05 53.62,64.92 53.68,64.78 C53.73,64.64 53.76,64.49 53.76,64.33 C53.76,64.17 53.73,64.01 53.67,63.85 C53.6,63.7 53.52,63.56 53.41,63.45 C53.3,63.34 53.17,63.25 53.02,63.18 C52.88,63.12 52.72,63.08 52.56,63.07 L52.55,63.07 L50.79,63.07 C50.74,63.07 50.69,63.09 50.66,63.13 C50.62,63.18 50.6,63.22 50.6,63.27 L50.6,67.31 L50.98,67.31 L50.98,65.6 L52.25,65.6 L53.59,67.31 L54.08,67.31 L54.08,67.31 Z" id="Shape" fill="#555555" sketch:type="MSShapeGroup"></path>
        <path d="M61.48,63.07 L61.01,63.07 L59.7,65.02 L58.38,63.07 L57.91,63.07 L59.51,65.42 L59.51,67.31 L59.89,67.31 L59.89,65.43 L61.48,63.07 Z" id="Shape" fill="#555555" sketch:type="MSShapeGroup"></path>
    </g>
</svg>