<?xml version="1.0" encoding="UTF-8" standalone="no"?>
<svg width="62px" height="19px" viewBox="0 0 62 19" version="1.1" xmlns="http://www.w3.org/2000/svg" xmlns:xlink="http://www.w3.org/1999/xlink" xmlns:sketch="http://www.bohemiancoding.com/sketch/ns">
    <!-- Generator: Sketch 3.4.4 (17249) - http://www.bohemiancoding.com/sketch -->
    <title>Slice 1</title>
    <desc>Created with Sketch.</desc>
    <defs></defs>
    <g id="Page-1" stroke="none" stroke-width="1" fill="none" fill-rule="evenodd" sketch:type="MSPage">
        <path d="M8.06,5.63 L8.06,8.91 C7.39,9.49 6.47,9.78 5.32,9.78 C4.04,9.78 3.07,9.45 2.4,8.77 C1.74,8.09 1.4,7.1 1.4,5.81 C1.4,4.53 1.74,3.55 2.4,2.87 C3.07,2.19 4.04,1.85 5.32,1.85 C6.38,1.85 7.24,2.1 7.91,2.6 L8.44,1.89 C7.62,1.27 6.58,0.96 5.32,0.96 C4.57,0.96 3.89,1.07 3.3,1.29 C2.7,1.51 2.2,1.83 1.79,2.25 C1.37,2.67 1.06,3.18 0.84,3.78 C0.62,4.38 0.52,5.06 0.52,5.81 C0.52,6.57 0.62,7.26 0.84,7.86 C1.06,8.45 1.37,8.96 1.79,9.38 C2.2,9.8 2.7,10.11 3.3,10.33 C3.89,10.55 4.57,10.66 5.32,10.66 C6.79,10.66 7.96,10.25 8.82,9.43 C8.9,9.33 8.95,9.22 8.95,9.09 L8.95,5.36 L8.06,5.63 L8.06,5.63 Z" id="Shape" fill="#555555" sketch:type="MSShapeGroup"></path>
        <path d="M26.91,2.87 C27.58,3.55 27.91,4.53 27.91,5.81 C27.91,7.1 27.58,8.09 26.91,8.77 C26.24,9.45 25.26,9.78 23.98,9.78 C22.7,9.78 21.73,9.45 21.07,8.77 C20.4,8.09 20.06,7.1 20.06,5.81 C20.06,4.53 20.4,3.55 21.07,2.87 C21.73,2.19 22.7,1.85 23.98,1.85 C25.26,1.85 26.24,2.19 26.91,2.87 L26.91,2.87 Z M26.01,10.33 C26.6,10.11 27.1,9.8 27.51,9.38 C27.93,8.96 28.24,8.45 28.46,7.86 C28.68,7.26 28.79,6.57 28.79,5.81 C28.79,5.06 28.68,4.38 28.46,3.78 C28.24,3.18 27.93,2.67 27.51,2.25 C27.1,1.83 26.6,1.51 26.01,1.29 C25.42,1.07 24.74,0.96 23.98,0.96 C23.23,0.96 22.55,1.07 21.96,1.29 C21.37,1.51 20.86,1.83 20.45,2.25 C20.04,2.67 19.72,3.18 19.51,3.78 C19.29,4.38 19.18,5.06 19.18,5.81 C19.18,6.57 19.29,7.26 19.51,7.86 C19.72,8.45 20.04,8.96 20.45,9.38 C20.86,9.8 21.37,10.11 21.96,10.33 C22.55,10.55 23.23,10.66 23.98,10.66 C24.74,10.66 25.42,10.55 26.01,10.33 L26.01,10.33 Z" id="Shape" fill="#555555" sketch:type="MSShapeGroup"></path>
        <path d="M44.93,1.93 L44.93,1.05 L39.42,1.05 C39.3,1.05 39.2,1.09 39.11,1.18 C39.02,1.26 38.98,1.36 38.98,1.48 L38.98,10.59 L39.86,10.59 L39.86,5.8 L43.73,5.8 L44,4.91 L39.86,4.91 L39.86,1.93 L44.93,1.93 L44.93,1.93 Z" id="Shape" fill="#555555" sketch:type="MSShapeGroup"></path>
        <path d="M54.55,1.05 L54.55,1.93 L57.53,1.93 L57.53,10.59 L58.41,10.59 L58.41,1.93 L61.39,1.93 L61.39,1.05 L54.55,1.05 Z" id="Shape" fill="#555555" sketch:type="MSShapeGroup"></path>
        <path d="M1.28,18.57 C1.55,18.2 1.68,17.71 1.68,17.11 L1.68,13.06 L1.34,13.06 L1.34,17.11 C1.34,17.61 1.22,18.02 0.99,18.32 L0.86,18.47 L1.16,18.72 L1.28,18.57 L1.28,18.57 Z" id="Shape" fill="#555555" sketch:type="MSShapeGroup"></path>
        <path d="M8.82,13.46 L8.82,13.07 L6.41,13.07 C6.36,13.07 6.31,13.09 6.28,13.13 C6.23,13.17 6.22,13.21 6.22,13.26 L6.22,17.11 C6.22,17.16 6.23,17.21 6.28,17.24 C6.31,17.29 6.36,17.31 6.41,17.31 L8.82,17.31 L8.82,16.91 L6.6,16.91 L6.6,15.18 L8.29,15.18 L8.41,14.78 L6.6,14.78 L6.6,13.46 L8.82,13.46 L8.82,13.46 Z" id="Shape" fill="#555555" sketch:type="MSShapeGroup"></path>
        <path d="M18.24,13.07 L16.7,16.65 L15.62,14.15 L15.19,14.15 L15.54,14.93 L14.79,16.65 L13.26,13.07 L12.83,13.07 L14.62,17.23 C14.63,17.26 14.65,17.29 14.69,17.31 C14.72,17.33 14.75,17.34 14.79,17.34 C14.88,17.34 14.93,17.31 14.97,17.23 L15.74,15.42 L16.52,17.23 C16.56,17.31 16.61,17.34 16.7,17.34 C16.78,17.34 16.83,17.31 16.87,17.23 L18.66,13.07 L18.24,13.07 L18.24,13.07 Z" id="Shape" fill="#555555" sketch:type="MSShapeGroup"></path>
        <path d="M25.39,13.46 L25.39,13.07 L22.99,13.07 C22.94,13.07 22.89,13.09 22.85,13.13 C22.81,13.17 22.8,13.21 22.8,13.26 L22.8,17.11 C22.8,17.16 22.81,17.21 22.85,17.24 C22.89,17.29 22.94,17.31 22.99,17.31 L25.39,17.31 L25.39,16.91 L23.18,16.91 L23.18,15.18 L24.87,15.18 L24.99,14.78 L23.18,14.78 L23.18,13.46 L25.39,13.46 L25.39,13.46 Z" id="Shape" fill="#555555" sketch:type="MSShapeGroup"></path>
        <path d="M30.12,16.91 L30.12,13.07 L29.74,13.07 L29.74,17.11 C29.74,17.16 29.75,17.21 29.79,17.24 C29.83,17.29 29.88,17.31 29.93,17.31 L32.33,17.31 L32.45,16.91 L30.12,16.91 L30.12,16.91 Z" id="Shape" fill="#555555" sketch:type="MSShapeGroup"></path>
        <path d="M37.25,16.91 L37.25,13.07 L36.86,13.07 L36.86,17.11 C36.86,17.16 36.88,17.21 36.92,17.24 C36.96,17.29 37,17.31 37.06,17.31 L39.46,17.31 L39.57,16.91 L37.25,16.91 L37.25,16.91 Z" id="Shape" fill="#555555" sketch:type="MSShapeGroup"></path>
        <path d="M46.37,13.46 L46.37,13.07 L43.96,13.07 C43.91,13.07 43.87,13.09 43.83,13.13 C43.79,13.17 43.77,13.21 43.77,13.26 L43.77,17.11 C43.77,17.16 43.79,17.21 43.83,17.24 C43.87,17.29 43.91,17.31 43.96,17.31 L46.37,17.31 L46.37,16.91 L44.16,16.91 L44.16,15.18 L45.84,15.18 L45.96,14.78 L44.16,14.78 L44.16,13.46 L46.37,13.46 L46.37,13.46 Z" id="Shape" fill="#555555" sketch:type="MSShapeGroup"></path>
        <path d="M50.98,13.47 L52.53,13.47 C52.65,13.47 52.75,13.49 52.86,13.54 C52.96,13.58 53.05,13.64 53.12,13.72 C53.2,13.8 53.26,13.89 53.31,14 C53.35,14.11 53.38,14.22 53.38,14.33 C53.38,14.45 53.35,14.57 53.31,14.67 C53.26,14.77 53.2,14.87 53.12,14.95 C53.05,15.02 52.96,15.09 52.86,15.13 C52.75,15.18 52.65,15.2 52.53,15.2 L50.98,15.2 L50.98,13.47 L50.98,13.47 Z M54.08,17.31 L52.73,15.58 C52.87,15.56 53.01,15.52 53.14,15.44 C53.26,15.37 53.37,15.27 53.46,15.16 C53.55,15.05 53.62,14.92 53.68,14.78 C53.73,14.64 53.76,14.49 53.76,14.33 C53.76,14.17 53.73,14.01 53.67,13.85 C53.6,13.7 53.52,13.56 53.41,13.45 C53.3,13.34 53.17,13.25 53.02,13.18 C52.88,13.12 52.72,13.08 52.56,13.07 L52.55,13.07 L50.79,13.07 C50.74,13.07 50.69,13.09 50.66,13.13 C50.62,13.18 50.6,13.22 50.6,13.27 L50.6,17.31 L50.98,17.31 L50.98,15.6 L52.25,15.6 L53.59,17.31 L54.08,17.31 L54.08,17.31 Z" id="Shape" fill="#555555" sketch:type="MSShapeGroup"></path>
        <path d="M61.48,13.07 L61.01,13.07 L59.7,15.02 L58.38,13.07 L57.91,13.07 L59.51,15.42 L59.51,17.31 L59.89,17.31 L59.89,15.43 L61.48,13.07 Z" id="Shape" fill="#555555" sketch:type="MSShapeGroup"></path>
    </g>
</svg>