<?xml version="1.0" encoding="UTF-8" standalone="no"?>
<svg width="60px" height="60px" viewBox="0 0 60 60" version="1.1" xmlns="http://www.w3.org/2000/svg" xmlns:xlink="http://www.w3.org/1999/xlink" xmlns:sketch="http://www.bohemiancoding.com/sketch/ns">
    <!-- Generator: Sketch 3.4.4 (17249) - http://www.bohemiancoding.com/sketch -->
    <title>Slice 1</title>
    <desc>Created with Sketch.</desc>
    <defs></defs>
    <g id="Page-1" stroke="none" stroke-width="1" fill="none" fill-rule="evenodd" sketch:type="MSPage">
        <path d="M44.62,6.18 L49.27,6.18 C50.55,6.18 51.59,7.22 51.59,8.5 L51.59,13.16 C51.59,14.44 50.55,15.48 49.27,15.48 L44.62,15.48 C43.33,15.48 42.29,14.44 42.29,13.16 L42.29,8.5 C42.29,7.22 43.33,6.18 44.62,6.18 L44.62,6.18 Z" id="Shape" fill="#545454" sketch:type="MSShapeGroup"></path>
        <path d="M42.56,20.74 L56.87,20.74 L56.87,47.01 C56.87,52.06 51.58,56.99 46.89,56.99 L12.23,56.99 C7.24,56.99 2.25,51.64 2.25,47.01 L2.25,20.74 L16.56,20.74 C15.42,22.79 14.75,25.28 14.75,28.21 C14.75,37.97 22.2,42.84 29.56,42.84 C36.92,42.84 44.37,37.97 44.37,28.21 C44.37,25.28 43.7,22.79 42.56,20.74 L42.56,20.74 Z M56.87,19.03 L41.56,19.03 L41.56,19.2 C38.72,15.45 34.12,13.58 29.56,13.58 C25,13.58 20.4,15.45 17.56,19.2 L17.56,19.03 L2.25,19.03 L2.25,12.35 C2.25,9.85 3.61,7.15 5.69,5.19 L5.69,15.24 L7.4,15.24 L7.4,3.86 C8.17,3.36 9.01,2.97 9.88,2.71 L9.88,15.28 L11.63,15.28 L11.63,2.39 C11.83,2.37 12.03,2.37 12.23,2.37 L13.89,2.36 L13.89,15.28 L15.64,15.28 L15.64,2.36 L46.9,2.32 C51.76,2.32 56.87,7 56.87,12.35 L56.87,19.03 L56.87,19.03 Z M46.89,0.18 L12.23,0.18 C5.65,0.18 0.06,5.77 0.06,12.35 L0.06,47.01 C0.06,53.59 5.65,59.18 12.23,59.18 L46.89,59.18 C53.47,59.18 59.06,53.59 59.06,47.01 L59.06,12.35 C59.06,5.77 53.47,0.18 46.89,0.18 L46.89,0.18 Z M29.56,15.28 C36.4,15.28 42.67,19.27 42.67,28.21 C42.67,37.15 36.4,41.14 29.56,41.14 C22.72,41.14 16.45,37.15 16.45,28.21 C16.45,19.27 22.72,15.28 29.56,15.28 L29.56,15.28 Z" id="Shape" fill="#545454" sketch:type="MSShapeGroup"></path>
        <path d="M29.56,18.9 C24.89,18.9 20.14,22 20.14,28.21 C20.14,34.42 24.89,37.53 29.56,37.53 C34.23,37.53 38.98,34.42 38.98,28.21 C38.98,22 34.23,18.9 29.56,18.9 L29.56,18.9 Z M29.56,20.6 C33.71,20.6 37.28,22.82 37.28,28.21 C37.28,33.6 33.71,35.82 29.56,35.82 C25.41,35.82 21.84,33.6 21.84,28.21 C21.84,22.82 25.41,20.6 29.56,20.6 L29.56,20.6 Z" id="Shape" fill="#545454" sketch:type="MSShapeGroup"></path>
    </g>
</svg>