<?xml version="1.0" standalone="no"?>
<!DOCTYPE svg PUBLIC "-//W3C//DTD SVG 1.1//EN" "http://www.w3.org/Graphics/SVG/1.1/DTD/svg11.dtd" >
<svg xmlns="http://www.w3.org/2000/svg">
<metadata>
Created by FontPrep 20130207 at Tue Jan 19 15:06:19 2016
 By akella
COPYRIGHT ESSELTE LETRASET LTD., 1990 
</metadata>
<defs>
<font id="ada00f52edf5b306624adab7cc84b515" horiz-adv-x='1024' >
  <font-face 
    font-family="AcademyEngravedLetPlain"
    font-weight="5"
    font-stretch="normal"
    units-per-em="2048"
    panose-1="0 0 0 0 0 0 0 0 0 0"
    ascent="1638"
    descent="-410"
    x-height="819"
    cap-height="1365"
    bbox="-203.014 -554 2242 1798"
    underline-thickness="37"
    underline-position="-256"
    unicode-range="U+0020-F002"
  />
<missing-glyph horiz-adv-x="1024" 
d="M123 1324v-1283h778v1283h-778zM82 1365h860v-1365h-860v1365z" />
    <glyph glyph-name=".notdef" horiz-adv-x="1024" 
d="M123 1324v-1283h778v1283h-778zM82 1365h860v-1365h-860v1365z" />
    <glyph glyph-name=".null" horiz-adv-x="839" 
d="M-43 819h442v-27q-51 -6 -73 -21t-23 -44q0 -29 25 -80l178 -384l156 379q26 66 26 94t-22 40.5t-75 15.5v27h248v-27q-49 -10 -69 -27t-46 -71l-18 -39q-2 -7 -7 -17l-308 -750q-45 -114 -97 -144q-28 -16 -75 -16t-90 48t-43 109t26 92t64 31q71 0 77 -70l3 -35
q4 -61 40 -61q21 0 40 24t45 90l25 61l-304 627q-40 82 -70 114t-75 34v27zM291 -224q-102 0 -102 120l1 28q0 36 -33 36q-40 0 -40 -62t34.5 -102.5t74.5 -40.5t74 21h-9zM217 726q0 38 40 63h-222q49 -32 88 -113l305 -630l45 111l-234 486q-22 45 -22 83z" />
    <glyph glyph-name="nonmarkingreturn" horiz-adv-x="678" 
 />
    <glyph glyph-name="space" unicode=" " horiz-adv-x="678" 
 />
    <glyph glyph-name="exclam" unicode="!" horiz-adv-x="549" 
d="M141 1208q1 78 37 128t86 50t82 -22q63 -48 63 -161q0 -54 -44 -244q-65 -282 -76 -542l-1 -26h-30l-1 26q-15 288 -66 500q-50 213 -50 291zM145 104q0 44 17 74q37 64 111 64q35 0 65 -18q62 -37 63 -101q1 -63 -37 -101t-90 -38t-90.5 38t-38.5 82zM312 1239
q0 104 -57 104q-33 0 -55 -37t-22 -93t23 -171l26 -128q26 -142 32 -174t10 -88l7 168q7 167 22 274q14 107 14 145zM291 38v150q1 25 -29 25q-30 1 -58 -29t-27 -70q-1 -40 27 -71q28 -30 58 -30t29 25z" />
    <glyph glyph-name="quotedbl" unicode="&#x22;" horiz-adv-x="658" 
d="M96 1285.5q0 48.5 30 82.5t74 34t77 -36t33 -87q0 -53 -46 -155t-47 -108h-28q-5 15 -49 118t-44 151.5zM348 1286q0 48 30 82t74 34t77 -36t33 -87q0 -53 -46 -155t-47 -108h-27q-8 20 -13 35l-20 46q-61 141 -61 189zM239 1267q0 44 -16 66t-38 22q-23 -1 -39 -21
t-16 -58t63 -192q46 139 46 183zM492 1268q0 43 -16 65t-38 22q-22 -1 -40 -21q-16 -20 -16 -58t63 -192q47 141 47 184z" />
    <glyph glyph-name="numbersign" unicode="#" 
d="M751 0h-683v1365h683v-1365zM82 1351v-1337h655v1337h-655z" />
    <glyph glyph-name="dollar" unicode="$" horiz-adv-x="1053" 
d="M549 1387v123h35v-126q106 -8 189 -46q174 -79 174 -226q0 -44 -24 -70q-23 -26 -65 -26q-79 0 -97 114l-10 64q-11 74 -47 108t-120 42v-503q10 -2 32 -15q136 -64 221 -130q164 -131 164 -302q-1 -108 -53 -198t-146 -145q-94 -56 -218 -71v-147h-35v144q-7 -1 -35 -1
t-36 1h-3v-144h-35v147h-7q-241 31 -338 146q-48 56 -48 114t30 90t76 33q98 0 98 -106l-1 -59q0 -60 52 -104t138 -61v626q-233 117 -279.5 207t-46.5 172t64.5 199t261.5 146v127h35v-124l5 1q12 0 17 1h38q4 -1 14 -1zM841 1070q35 0 35 44q0 89 -67 148q-35 32 -77 51
q27 -29 39 -61t21 -90t18 -75t31 -17zM549 1347h-26q-27 0 -48 -3v-445q8 -6 13 -9l61 -33v490zM282 1141q0 -69 34.5 -117t123.5 -107v421q-70 -16 -114 -72t-44 -125zM504 27q20 0 45 3v572l-36 19q-1 1 -4 2.5t-6 3.5l-28 15v-614q9 -1 29 -1zM803 300q0 80 -50 148
q-51 68 -163 132l-6 4v-548q32 5 89 34q57 30 93 90t37 140zM128 316q-47 0 -47 -84q0 -46 39 -93.5t113 -77.5l-15 17q-58 69 -58 142l2 58q0 38 -34 38zM913 367q0 115 -70 197t-238 168l-111 56q-198 100 -252 198q-28 50 -28 111t23 109t80 105q-166 -100 -166 -271
q0 -122 90 -208q68 -61 205 -132.5t187 -101.5q49 -30 97 -69t79 -100t31 -133t-28 -124t-90 -102q191 116 191 297z" />
    <glyph glyph-name="percent" unicode="%" horiz-adv-x="1554" 
d="M1148 1370l-707 -1393l-36 18l707 1393zM1461 366q0 -104 -48 -194q-47 -90 -129 -141t-180 -51t-180 52q-83 52 -130 140t-47 196q-1 107 47 194q48 88 132 140t180 52t178 -51q81 -53 129 -143t48 -194zM93 998q0 104 48 194q48 89 131 141q84 52 180 52q96 1 178 -51
t130 -142t48 -194t-48 -194t-130 -142t-178 -51q-98 1 -182 53t-129 141q-48 89 -48 193zM862 367q0 75 15 139q26 130 108 196q-99 -46 -153 -134t-55 -200q0 -217 196 -328q-111 114 -111 327zM1387 370q0 116 -49 204t-133 128q95 -98 95 -327q0 -125 -24 -203t-81 -141
q93 49 143 137t49 202zM1103 722q-73 0 -119 -96t-46 -254q0 -156 46 -252t120 -96t120 96t45.5 253.5t-45.5 253.5q-47 95 -121 95zM209 998q0 110 32 200t90 136q-47 -23 -65 -35q-18 -11 -54 -51t-62 -109t-26 -139q0 -217 196 -328q-111 114 -111 326zM647 1004
q0 -124 -25 -203t-81 -139q93 49 143 137t50 182q0 173 -86 278q-44 51 -97 75q96 -96 96 -330zM285.5 1004q-0.5 -157 45.5 -253t120 -96t120 96q45 96 45 255t-45 253t-119 94t-120 -96t-46.5 -253z" />
    <glyph glyph-name="ampersand" unicode="&#x26;" horiz-adv-x="1497" 
d="M93 338q0 114 69 211.5t232 196.5q-127 187 -127 323t98 232q99 93 229 93t206 -70t75 -176q0 -134 -149 -248q-31 -23 -111 -75q116 -154 254.5 -308.5t189.5 -206.5q105 131 105 244q0 78 -58 114t-188 40v34h537v-34q-62 -4 -96 -20t-62 -52.5t-76 -133.5t-69 -131
t-65 -88l29 -30q145 -154 227 -189q45 -19 120 -30l-1 -34h-457q-20 69 -74 123q-196 -154 -415 -154q-259 0 -370 172q-53 83 -53 197zM775 1177q-1 81 -41 131t-96 49t-90 -29q-76 -61 -76 -188q0 -128 116 -283q187 130 187 320zM322 431q0 -105 44 -192t122 -139
t167 -51q121 0 248 103l-25 26q-277 291 -455 532q-101 -110 -101 -279zM384 1136q0 118 105 204q-89 -37 -137 -105q-48 -67 -49 -139q0 -118 56 -219q106 -199 445 -564l149 -160q53 -56 79 -103h200q-86 51 -144 111q-501 522 -623 729q-81 128 -81 246zM221 400
q0 156 119 273q-213 -142 -213 -342q0 -88 46.5 -165t128.5 -122t178 -45q20 0 74 8q-77 14 -127 40t-99 78q-107 119 -107 275zM1288 704h-188q49 -21 70 -49t29 -83q36 82 89 132z" />
    <glyph glyph-name="quotesingle" unicode="'" horiz-adv-x="403" 
d="M94 1286q0 48 30 82t74 34t77 -36t33 -87q0 -53 -46 -155t-47 -108h-27q-8 20 -13 35l-20 46q-61 141 -61 189zM238 1268q0 43 -16 65t-38 22q-22 -1 -40 -21q-16 -20 -16 -58t63 -192q47 141 47 184z" />
    <glyph glyph-name="parenleft" unicode="(" horiz-adv-x="608" 
d="M175 659q0 335 123 564q124 228 298 256v-30q-78 -27 -110 -137q-59 -201 -59 -558t34 -595q17 -107 48 -161t87 -82v-31q-116 21 -212 133t-153 288q-56 178 -56 353zM326 657q0 249 22 403t80 294q-138 -165 -190 -414q-26 -124 -26 -246q0 -265 99 -496
q29 -67 55 -103q27 -36 70 -87q-62 111 -86 256t-24 393z" />
    <glyph glyph-name="parenright" unicode=")" horiz-adv-x="608" 
d="M433 653q0 -177 -55 -350t-153 -286t-214 -132v31q79 28 111 134q58 198 58 608q0 264 -15 395t-24 194q-22 152 -130 201v31q86 -15 164 -83t137 -177q121 -234 121 -566zM329 678q1 124 -23 259q-45 261 -173 419q42 -102 62 -248t20 -402q-1 -255 -17 -405t-58 -290
q189 264 189 667z" />
    <glyph glyph-name="asterisk" unicode="*" horiz-adv-x="730" 
d="M566 945q0 -35 -22 -57t-52 -22q-67 0 -95 103l-25 90q-3 12 -6 21q-7 -24 -23 -88q-17 -64 -39 -94t-56 -30t-56.5 23t-22.5 53q-1 30 15 50q16 18 64 50t81 61h-16q-3 -1 -10 -1l-52 -4q-9 -1 -46 -1q-112 0 -112 80q-1 33 21 55t52 22t49 -11t67 -49t63 -50l-9 25
q-10 27 -28 71t-19 78q0 34 20 55q21 22 55 22t57 -20q21 -21 21 -51t-24 -96t-29 -84l18 14q18 12 24.5 18t8.5 8t4 3t33 26t47 35t43 9q26 -1 48 -23t22 -60q0 -76 -138 -76h-23l-41 2q-8 0 -12 1h-19q102 -63 132 -93t30 -65zM481 906q32 0 32 36q0 18 -58 78t-70 76
q18 -42 25 -66l13 -39q19 -53 31 -69t27 -16zM201 946q0 -30 30 -30q18 0 31 16t39 69q29 54 39 73l13 22q-27 -26 -66 -56l-32 -24q-54 -40 -54 -70zM176 1226q-42 0 -42 -37q0 -35 104 -48l38 -4q50 -10 68 -10q-40 21 -94 60t-74 39zM391 1323q0 44 -35 44t-35 -48
q-1 -22 19 -80t28 -94q4 50 12 101l8 41q3 18 3 36zM598 1198q0 32 -31 32q-22 0 -77 -42t-92 -62q67 14 109 21l39 9q52 10 52 42z" />
    <glyph glyph-name="plus" unicode="+" 
d="M751 0h-683v1365h683v-1365zM82 1351v-1337h655v1337h-655z" />
    <glyph glyph-name="comma" unicode="," horiz-adv-x="437" 
d="M176 -54q0 36 -23 68l-22 30q-31 44 -31 88t32 75t84 31t86 -34t35 -95q0 -130 -198 -296l-19 17q56 80 56 116zM253 96q0 46 -18 71q-19 25 -46 25t-42 -18t-15 -40t8 -40t36 -58t28 -73v-10q49 97 49 143z" />
    <glyph glyph-name="hyphen" unicode="-" horiz-adv-x="637" 
d="M544 444h-451v37h451v-37z" />
    <glyph glyph-name="period" unicode="." horiz-adv-x="456" 
d="M100 112q0 36 17 65t46 46t65 17t65 -17t46 -46t17 -65t-17 -65t-46 -46t-65 -17t-65 17t-46 46t-17 65zM246 38v148q0 25 -30 25t-56.5 -29.5t-26.5 -69.5q-1 -40 27 -70t57 -29q29 0 29 25z" />
    <glyph glyph-name="slash" unicode="/" horiz-adv-x="546" 
d="M546 1438l-506 -1530l-40 19l506 1530z" />
    <glyph glyph-name="zero" unicode="0" horiz-adv-x="1288" 
d="M646 -35q-158 -1 -292 95t-212 261t-79 359t77 360q78 164 212 261t292.5 97t291.5 -96t211 -262t78 -359t-78.5 -358t-210.5 -261t-290 -97zM646 19q122 0 213 138q114 171 114 513q0 437 -155 608q-75 81 -161 81q-163 -1 -252 -185q-90 -184 -90 -485t90 -485
q43 -90 105 -138t136 -47zM213 688q0 411 218 625q-210 -129 -291 -375q-40 -119 -40 -253t38 -253q38 -120 115 -218t181 -163q-108 101 -164 265q-57 164 -57 372zM825 1307q186 -196 186 -607t-146 -589q-25 -32 -64 -71q321 218 321 639q0 314 -172 520q-55 65 -125 108
z" />
    <glyph glyph-name="one" unicode="1" horiz-adv-x="781" 
d="M743 0h-691v31q187 27 219 153q10 40 10 121v707q1 100 -17 150t-67 74t-139 30v31l455 95v-1087q0 -89 12.5 -130t56.5 -84t161 -60v-31zM425 165v1168l-243 -50l78 -44q3 -1 7 -5l24 -15q26 -21 27 -64v-33l1 -17v-907q-1 -3 -1 -33t-10 -45t-43 -40l-39 -29h292
l-39 29q-39 27 -46.5 46t-7.5 39z" />
    <glyph glyph-name="two" unicode="2" horiz-adv-x="931" 
d="M490 207q130 -1 213 37t146 127h33l-96 -371h-785l-1 41q78 171 234 362q68 84 93.5 114t56.5 70t38 46q102 129 145 223t43 182q0 90 -30 161t-81 111q-52 40 -112 39q-125 0 -130 -156l-2 -53q-5 -122 -95 -122q-44 0 -73 32t-29 92t52 120t140 94q89 34 198 35
q108 -1 204 -47t149 -128t53 -166q0 -86 -26 -150q-51 -124 -250 -287l-162 -134q-185 -151 -273 -272h347zM94 1128q0 -25 11 -42t29 -17q36 1 36 65t15 107t54 83q-145 -81 -145 -196zM532 134h-444q-17 -30 -44 -84h667l35 133q-82 -49 -214 -49zM647 1048
q0 -150 -120 -330q-89 -128 -200 -254q307 278 385 418q44 78 43 162q0 164 -122 249q-58 40 -137 51q151 -86 151 -296z" />
    <glyph glyph-name="three" unicode="3" horiz-adv-x="971" 
d="M647 810q263 -110 263 -400q0 -106 -67 -210q-67 -105 -181 -165t-264 -60q-149 0 -255 68q-105 68 -105 169q0 48 28 78t78 29q50 0 72 -43q10 -20 22 -98t55 -116t128 -37t153 41t109 108q40 68 40 152q0 141 -115 243q-116 101 -336 155l1 32q206 38 262 148t56 211
t-50 174q-51 71 -126 71q-101 0 -126 -92q-5 -19 -17 -89q-12 -71 -37 -99t-65 -28t-66 29t-26 85t48 114q48 56 130 88q84 32 174 33q272 0 361 -180q27 -58 27 -128q0 -171 -171 -283zM112 1153q0 -19 10 -33t27 -14q34 0 44 64q11 64 33 106q22 40 74 78
q-84 -24 -136 -79t-52 -122zM111 266q-39 0 -39 -56q0 -113 155 -174q-42 40 -60 74t-21 86l-2 27q-1 43 -33 43zM831 391q0 267 -327 393q226 112 226 307q0 148 -105 222q-51 35 -118 42q122 -71 122 -249t-95.5 -259t-182.5 -107q262 -76 363 -236q47 -80 47 -150
q1 -70 -13 -116t-34 -77q-20 -32 -86 -98q203 122 203 328z" />
    <glyph glyph-name="four" unicode="4" horiz-adv-x="1124" 
d="M848 367v-62q0 -87 10 -130q29 -117 185 -144v-31h-643v31q121 18 173 82q25 29 34 71t9 121v62h-560v116l670 882h122v-809q82 4 126 30t92 106h28l-82 -325h-164zM616 556v600l-456 -600h456zM760 165v33q-1 6 -1 17v1116h-12l-93 -124v-999q-1 -3 -1 -10v-33
q0 -30 -9 -45q-10 -14 -45 -40l-39 -29h292l-39 29q-33 26 -43 40t-10 45zM94 439h522v81h-485l-37 -48v-33zM846 439h100l27 106q-54 -25 -97 -25h-30v-81z" />
    <glyph glyph-name="five" unicode="5" horiz-adv-x="987" 
d="M631 1366q76 0 130 20t109 68h28l-108 -279h-540l-50 -221q249 -14 402 -76t238 -180q85 -117 85 -258t-67 -245q-68 -104 -186 -164t-268 -60q-150 -1 -258 69t-108 170q0 49 30 80t77 31q90 0 99 -106l4 -45q6 -64 56 -104t129 -41q80 0 152 41q71 41 111 110
q40 68 40 152q0 167 -140 277q-66 51 -174 85t-311 42l141 634h379zM116 268q-43 0 -43 -58q-1 -58 45 -108t123 -74l-17 15q-68 61 -72 143l-2 39q-1 43 -34 43zM773 328q0 -70 -25 -124t-93 -126q188 138 188 337q-1 99 -47 181t-130 138q-182 118 -486 128l-23 -97
q380 -13 533 -201q83 -102 83 -236zM635 1330h-351l-21 -84h467l41 106q-60 -22 -136 -22z" />
    <glyph glyph-name="six" unicode="6" horiz-adv-x="1110" 
d="M311 750q139 111 315 111q177 0 301 -118t124 -312t-134 -329t-343 -135t-352 168q-160 188 -160 497q0 162 46 304q94 294 319 404q112 56 221 56t181 -28t112 -77.5t40 -102.5q1 -52 -27 -82t-70 -30t-70 26q-26 26 -30 71l-4 43q-6 76 -33 110t-85 34t-179.5 -98.5
t-171.5 -511.5zM304 527q0 -263 96 -411q69 -104 177 -104t172 101q63 101 63 247q0 286 -135 398q-65 53 -135 53q-70 -1 -119 -23q-50 -22 -112 -78q-7 -69 -7 -183zM98 621q0 -137 30 -245q58 -207 252 -339q-51 54 -84 105q-69 106 -83 255q-9 75 -9 174q0 316 103 538
q65 142 183 230q-187 -75 -289 -264q-103 -189 -103 -454zM846 400q0 -156 -36 -236q-36 -79 -117 -141q75 31 134 93q122 128 122 320q0 321 -323 387q58 -32 139 -111t81 -312zM854 1128q36 0 36 54q0 99 -120 159q40 -67 44 -159q4 -54 40 -54z" />
    <glyph glyph-name="seven" unicode="7" horiz-adv-x="851" 
d="M514 46v-46h-271q25 512 195 748t216.5 298t68.5 92l24 32h-378q-161 0 -245 -63q-45 -34 -74 -85h-35l120 343h759v-47q-195 -286 -277 -497q-84 -208 -96 -475q-7 -176 -7 -300zM284 51h124q3 466 206 881q-199 -267 -283 -578q-41 -154 -47 -303zM319 1248h443l54 81
h-652l-52 -140q42 33 88 46t119 13z" />
    <glyph glyph-name="eight" unicode="8" horiz-adv-x="1103" 
d="M742 783q301 -123 301 -381q1 -130 -63 -226t-181 -149t-259 -53t-250 48t-168 132q-62 84 -62 178q0 186 144 291q62 45 160 86q-199 135 -199 326q0 156 112 256t283 100q170 1 278 -85q107 -86 107 -226q1 -90 -47 -161t-156 -136zM848 1078q0 76 -38 140
q-39 62 -106 98q-66 36 -142 35t-136 -27q-124 -55 -123 -188q0 -106 93 -182t309 -153q143 119 143 277zM214 366.5q0 -93.5 44 -172t123 -122.5t174 -44t173 35t123 97q44 62 44 140q0 120 -102 193q-66 49 -205 107q-140 58 -200 93q-96 -85 -135 -159t-39 -167.5z
M201 1040q0 -191 200 -309q59 -35 174 -83t171 -77q186 -100 186 -264q0 -62 -22 -108t-78 -97q77 54 111 116t34 165q0 212 -287 328l-145 60q-295 121 -295 341q0 83 49 156q-98 -88 -98 -228zM97 345q1 -111 77 -197t195 -116q-218 127 -218 325q-1 64 21 119t76 134
q-151 -104 -151 -265z" />
    <glyph glyph-name="nine" unicode="9" horiz-adv-x="1120" 
d="M180 617q-122 119 -122 313t135 328q135 135 344 135q105 0 205 -51q197 -101 279 -360q39 -130 39 -286q0 -327 -175 -531q-175 -205 -420 -205q-82 0 -150 27t-107 74t-39 100q-1 53 27 81t70 28t67 -23q25 -24 31 -64l6 -41q10 -67 36 -98t84 -31q57 -1 120 53
t108 148q80 161 96 410q-138 -126 -325 -126t-309 119zM521 1358q-103 0 -165 -94t-63 -235q0 -283 143 -409q68 -59 138 -59t122 26q54 26 117 87l1 61q0 139 -24 267t-60 202q-37 74 -92 114t-117 40zM961 695q0 234 -72 389t-221 248q61 -62 91 -114q94 -164 94 -510
q0 -257 -71 -440q-34 -84 -68 -134t-99 -109q346 169 346 670zM198 975q0 119 36 203t117 152q-160 -77 -223 -237q-31 -79 -31 -171t51.5 -201.5t187.5 -158.5q47 -18 122 -28q-260 134 -260 441zM240 216q-36 0 -36 -46t27 -80q27 -36 46 -49t64 -32q-37 42 -49 71
q-12 28 -18 82t-34 54z" />
    <glyph glyph-name="colon" unicode=":" horiz-adv-x="494" 
d="M232 830q36 0 66 -17q62 -40 62 -113t-46 -100t-82 -27t-82 27t-46 100t63 113q29 17 65 17zM104 112q0 36 17 65t46 46t65 17t65 -17t46 -46t17 -65t-17 -65t-46 -46t-65 -17t-65 17t-46 46t-17 65zM250 628v147q0 26 -29 26q-29 1 -57 -29t-28 -70t28 -70t57 -30t29 26
zM251 38v148q1 25 -29 25q-30 1 -58 -29t-28 -70t28 -70t58 -29q30 0 29 25z" />
    <glyph glyph-name="semicolon" unicode=";" horiz-adv-x="472" 
d="M180 -52q0 34 -23 66l-22 30q-31 43 -31 87q0 43 34 75t84 32t84 -35t35 -94q0 -130 -198 -296l-19 17q56 84 56 118zM232 830q36 0 66 -17q62 -40 62 -113t-46 -100t-82 -27t-82 27t-46 100t63 113q29 17 65 17zM256 103q0 89 -65 89q-25 0 -40 -18t-15 -48t36 -80
t36 -88v-3q48 89 48 148zM250 628v147q0 26 -29 26q-29 1 -57 -29t-28 -70t28 -70t57 -30t29 26z" />
    <glyph glyph-name="less" unicode="&#x3c;" horiz-adv-x="1019" 
d="M867 192q1 -84 25 -118t92 -47v-27h-439v27q67 12 93 47q24 35 24 118v432q0 94 -29 129q-30 35 -108 35h-158v-596q-1 -107 55 -140q30 -18 83 -25v-27h-460v27q68 12 94 47q24 35 24 118v596h-86v31h86v91q0 207 53 309t182 148q63 20 140 20t147 -30t111 -83t41 -108
t-30 -87t-74.5 -31.5t-70.5 28.5t-26 77l1 54q1 5 1 23q0 120 -106 120q-63 0 -103 -46t-51 -127t-11 -236v-122h178l322 17v-644zM289 928q0 257 62 341q35 47 103 84q-101 -31 -156 -80t-78 -136t-23 -237v-757q0 -40 -3 -48t-15 -20l-13 -13l-21 -18h200l-24 18
q-3 3 -4 3q-27 22 -27 48l-1 20v795zM670 1219v-61q-1 -1 -1 -4q1 -69 43 -69q42 -1 42 69t-36 124q-37 54 -95 70q47 -33 47 -129zM789 113v681l-165 -6l40 -28q24 -15 28 -29t4 -64v-524q0 -40 -3 -48t-15 -20l-13 -13l-20 -18h200l-24 18q-3 3 -4 3q-28 22 -28 48z" />
    <glyph glyph-name="equal" unicode="=" horiz-adv-x="607" 
d="M675 1370l-707 -1393l-36 18l707 1393z" />
    <glyph glyph-name="greater" unicode="&#x3e;" horiz-adv-x="1027" 
d="M867 192q1 -84 25 -118t92 -47v-27h-439v27q67 12 93 47q24 35 24 118v1001q0 66 -6 88q-20 71 -111 71q-143 0 -167 -176q-11 -80 -11 -235v-122h214v-31h-214v-596q-1 -107 55 -140q30 -18 83 -25v-27h-460v27q68 12 94 47q24 35 24 118v596h-86v31h86v91q1 207 47 296
q94 182 327 182q74 0 158 -26l172 20v-1190zM289 928q0 257 62 341q35 47 103 84q-101 -31 -156 -80t-78 -136t-23 -237v-757q0 -40 -3 -48t-15 -20l-13 -13l-21 -18h200l-24 18q-3 3 -4 3q-27 22 -27 48l-1 20v795zM789 113v1227l-93 -10v-1187q0 -40 -3 -48t-15 -20
l-13 -13l-20 -18h200l-24 18q-3 3 -4 3q-28 22 -28 48z" />
    <glyph glyph-name="question" unicode="?" horiz-adv-x="973" 
d="M348 544q0 58 26 104t118 148t119 158q28 56 28 148t-54.5 165.5t-130.5 73.5t-112 -69q-16 -35 -37 -144q-21 -110 -109 -110q-46 0 -75 32t-29 94q0 60 50 118t141 92q90 34 202 34q113 0 205 -40t141 -118q49 -76 49 -160t-29.5 -159t-173.5 -173q-145 -98 -204 -151
q-60 -53 -60 -130q0 -33 10 -72l-35 -8q-40 109 -40 167zM286 112q0 52 38 90t82 37q44 0 90 -26.5t46 -100.5t-46 -101t-90 -27t-82 38t-38 90zM783 1076q0 98 -67 173.5t-184 96.5q144 -73 144 -259q0 -105 -50 -182q-27 -41 -86 -111l-66 -75q-49 -55 -66 -89t-22 -89
q19 52 49 87q31 35 149 131q118 95 158 157t41 160zM129 1137q0 -78 48 -78q19 0 29 16q9 17 17 73q9 56 31 100t75 89q-125 -37 -175 -121q-24 -40 -25 -79zM433 38v147q1 25 -29 25t-58 -30t-27 -68q-1 -40 27 -70t58 -29q30 0 29 25z" />
    <glyph glyph-name="at" unicode="@" 
d="M751 0h-683v1365h683v-1365zM82 1351v-1337h655v1337h-655z" />
    <glyph glyph-name="A" unicode="A" horiz-adv-x="1543" 
d="M321 228q0 -56 23 -94q45 -73 193 -103v-31h-519v30q92 30 160 110t144 251l442 1000h26l481 -1081q4 -3 6 -9t7 -17l44 -91q36 -73 82 -110t115 -52v-31h-638v31q83 6 116 19q72 27 72 94q0 32 -32 108l-111 253h-515l-56 -128q-40 -93 -40 -149zM435 547h478l-241 543z
M1119 140q0 -38 -49 -89h264q-46 43 -80 99t-75 149l-429 965l-57 -131l395 -889q31 -66 31 -104zM281 195q0 20 1 27q-32 -62 -62 -98t-80 -73h203q-62 73 -62 144z" />
    <glyph glyph-name="B" unicode="B" horiz-adv-x="1321" 
d="M247 305v755q-1 88 -11 130q-29 118 -181 144v31l136 -9q57 -4 142 -4t215 13l101 11q55 6 135 6t164 -24q169 -49 233 -175q32 -64 32 -139q0 -118 -75 -198t-216 -116q118 -12 256.5 -90.5t138.5 -291.5q0 -166 -128 -266t-346 -100q-55 0 -271 18t-394 7l-103 -6
l-20 -1v31q105 18 149 75t43 199zM476 1103v-366h162q144 0 220 58q50 35 82 101t32 147t-38 149t-102 108q-66 39 -140 39q-141 0 -193 -93q-23 -46 -23 -143zM647 698h-171v-421q0 -129 60 -183t212 -54q154 0 238 92t84 230q0 178 -126 269q-42 31 -102 49t-195 18z
M1219 362q-1 96 -75 184t-210 133q174 -112 174 -318q0 -234 -202 -325q96 15 165 58q148 88 148 268zM1116 1051q0 106 -67 179q-68 73 -198 104q159 -112 159 -298t-150 -280q123 36 190 112q66 77 66 183zM322 63q50 0 131 -8l24 -2l-35 27q-34 26 -44 40t-9 45v45
q-1 2 -1 5v935q0 4 1 6v44q-1 38 11 50t42 35l53 40l-36 -3q-71 -7 -135 -7t-146 11l53 -41q33 -25 43 -40t10 -45v-1035q0 -31 -9 -45t-44 -40l-35 -27q76 10 126 10z" />
    <glyph glyph-name="C" unicode="C" horiz-adv-x="1477" 
d="M1451 423q-171 -451 -687 -451q-264 0 -451 154q-82 70 -136 154q-111 173 -111 382t101 375t277 260t390 94q88 -1 212 -23t160 -22t56 4l117 -357h-34q-96 185 -211 271q-116 85 -296 85q-100 0 -202 -45q-209 -92 -292 -321q-42 -112 -42 -241q0 -193 76 -354
t212 -253q135 -92 299 -92q228 0 346 127t175 253h41zM205 698q0 118 18 196q54 234 312 410q-205 -91 -318 -255t-113 -381t123 -397q168 -246 520 -265q-261 70 -402 255q-70 91 -104 205q-36 114 -36 232z" />
    <glyph glyph-name="D" unicode="D" horiz-adv-x="1559" 
d="M253 305v755q0 86 -9 129q-30 118 -186 145v31l156 -8q56 -3 148 -3t220 11t196 11q315 0 515 -191t200 -501t-207 -500t-543 -190q-61 0 -177 10t-199 11q-82 0 -151 -4l-136 -10q-16 0 -25 -1l3 31q107 18 151 75t44 199zM730 47q94 1 190 47t170 136q150 182 149 470
q0 184 -67 328t-188 228q-122 82 -254 82t-188 -52t-55 -166l-2 -773q0 -127 23 -185q24 -58 76 -86q52 -29 146 -29zM358 60q72 0 132 -7l-39 27q-51 35 -53 76q0 20 -1 42v969q0 62 10 78q10 15 44 40l53 39q-94 -8 -135 -8t-185 8l53 -39q35 -25 44 -39t9 -37
q0 -22 1 -27v-998q-1 -6 -1 -28t-8 -36t-45 -40l-39 -29q88 9 160 9zM1390 690q0 155 -59 286q-59 132 -167 222t-249 129q159 -74 249 -210q115 -175 115 -431t-124 -434q-52 -76 -119 -124t-165 -82q115 26 197 74t157 129q165 186 165 441z" />
    <glyph glyph-name="E" unicode="E" horiz-adv-x="1351" 
d="M55 1365h1138l38 -372h-32q-52 172 -154 254q-103 81 -267 81h-56q-130 0 -185 -50t-55 -169v-340h133q151 -1 221 47t94 172h30v-506h-30q-19 100 -53 152q-35 52 -95 74t-164 22h-136v-433q0 -100 18 -152t65.5 -73t130.5 -21h92q137 0 273 94t258 263h35l-118 -408
h-1181v31q107 18 151 75t44 199v755q0 93 -10 134t-37 68q-49 55 -148 72v31zM1140 1195l-22 133h-144q54 -22 88 -48t78 -85zM888 683v129q-31 -28 -44 -36t-64 -28q57 -17 108 -65zM979 51h186l56 186q-111 -124 -242 -186zM395 165v22q-1 3 -1 11v969q0 8 1 12v21
q0 30 10 46t43 39l57 42h-328l57 -42q33 -25 43 -40q11 -16 11 -78v-969q0 -62 -9 -77q-9 -14 -45 -41l-39 -29h292l-39 29q-34 26 -44 40t-9 45z" />
    <glyph glyph-name="F" unicode="F" horiz-adv-x="1215" 
d="M55 1365h1109l39 -372h-31q-73 228 -230 299q-82 35 -192 35h-28q-132 -1 -186 -49t-54 -169v-340h99q151 -1 221 47t94 172h30v-533h-30q-20 113 -54 171t-94 80q-60 24 -168 24h-98v-425q0 -89 12 -131q34 -118 225 -143v-31h-664v31q107 18 151 75t44 199v755
q0 93 -10 134t-37 68q-49 55 -148 72v31zM1112 1195l-22 133h-143q57 -26 91 -52t74 -81zM851 683v129q-37 -37 -108 -64q56 -16 108 -65zM395 165v22q-1 3 -1 11v969q0 8 1 12v21q0 30 10 46t43 39l57 42h-328l57 -42q35 -26 44.5 -39.5t9.5 -78.5v-969q0 -62 -9 -77
q-9 -14 -45 -41l-39 -29h292l-39 29q-34 26 -44 40t-9 45z" />
    <glyph glyph-name="G" unicode="G" horiz-adv-x="1592" 
d="M878 1352q-265 0 -429 -191q-147 -169 -147 -428q0 -199 76 -358t210 -251t297 -91q103 -1 181 33t110 88t32 175v34q0 89 -12 133q-36 126 -224 141v31h616v-31q-79 -18 -120 -83q-28 -49 -28 -191v-182l61 -92q-9 1 -89 1t-233 -49q-154 -49 -227 -61t-162 -12
q-326 0 -511 182q-101 102 -157 238t-57 282q0 146 58 278t160.5 233t240.5 157t260 56t192 -11q71 -11 144 -24q73 -14 98 -14l36 2q9 0 12 1l115 -361h-30q-102 196 -218 279q-116 86 -255 86zM1245 512q0 -22 1 -27v-184q0 -81 -18 -125t-67 -94q94 39 191 51v337
q0 61 10 78t44 40l59 44h-332l59 -44q33 -25 43 -40q10 -14 10 -36zM547 1318q-443 -215 -443 -668q0 -156 74 -302t211 -236t309 -108q-112 39 -182 82t-144 126q-74 82 -120 208t-45 256q0 266 129 444q68 97 211 198z" />
    <glyph glyph-name="H" unicode="H" horiz-adv-x="1668" 
d="M678 0h-623v31q107 18 151 75t44 199v755q0 93 -10 134t-37 68q-49 55 -148 72v31h623v-31q-161 -27 -178.5 -111t-17.5 -163v-334h703v334q-1 93 -11 134t-36 68q-49 55 -148 72v31h623v-31q-161 -27 -178.5 -111t-17.5 -163v-755q1 -148 49 -203q48 -54 147 -71v-31
h-623v31q107 18 151 75t44 199v375h-703v-375q0 -148 48 -203q48 -54 148 -71v-31zM395 165v22q-1 3 -1 11v969q0 8 1 12v21q-1 32 9 46t44 39l57 42h-328l57 -42q33 -25 43 -40q11 -16 11 -78v-969q0 -62 -9 -77q-9 -14 -45 -41l-39 -29h292l-39 29q-34 26 -44 40t-9 45z
M1330 164q0 30 -1 34v969q1 3 1 33t10 46q10 14 43 39l57 42h-328l57 -42q33 -25 43 -40q11 -16 11 -78v-969q0 -62 -9 -77q-9 -14 -45 -41l-39 -29h292l-39 29q-33 26 -43 40t-10 44z" />
    <glyph glyph-name="I" unicode="I" horiz-adv-x="733" 
d="M678 0h-623v31q107 18 151 75t44 199v755q0 93 -10 134t-37 68q-49 55 -148 72v31h623v-31q-161 -27 -178.5 -111t-17.5 -163v-755q0 -148 48 -203q48 -54 148 -71v-31zM395 165v22q-1 3 -1 11v969q0 8 1 12v21q-1 32 9 46t44 39l57 42h-328l57 -42q35 -26 44.5 -39.5
t9.5 -78.5v-969q0 -62 -9 -77q-9 -14 -45 -41l-39 -29h292l-39 29q-34 26 -44 40t-9 45z" />
    <glyph glyph-name="J" unicode="J" horiz-adv-x="900" 
d="M197 1365h650v-31q-158 -27 -180 -151q-8 -43 -8 -123v-661q1 -161 -51 -249q-104 -177 -313 -177q-82 0 -150 30t-108 83q-39 54 -39 114t34 98t84 38t83 -30t33 -64t-6 -66l-5 -22q-7 -26 -7 -56t26 -52t56 -23q32 -1 57 13q50 27 62 88t12 164v772q1 87 -11 130
q-31 117 -219 144v31zM464 1167v-849q0 -182 -32 -239q-18 -32 -52 -57q106 44 148 134t42 269v725q0 4 1 6v44q1 28 11 44t43 41l57 42h-328l57 -42q39 -28 46 -43t7 -75zM129 240q-1 47 -45 47q-50 -1 -50 -99q0 -52 48 -102t124 -69q-36 27 -61 53t-25 88z" />
    <glyph glyph-name="K" unicode="K" horiz-adv-x="1568" 
d="M482 305q0 -83 11 -127q30 -120 198 -147v-31h-636v31q107 18 151 75t44 199v755q0 93 -10 134t-37 68q-49 55 -148 72v31h623v-31q-161 -27 -178.5 -111t-17.5 -163v-447l393 383q74 71 102 115.5t28 94.5q-1 50 -41 86t-109 42v31h553v-29q-172 -48 -389 -256
l-186 -181l411 -618q13 -16 20 -28l77 -107q49 -58 97 -84t112 -31v-31h-650v31q80 5 110 24t30 55t-12 62t-47 81l-319 480l-180 -174v-254zM1084 118q0 -32 -39 -67h289q-53 37 -85 78l-59 76q-26 36 -30 40l-392 592l-78 -77l316 -475q46 -71 62 -103t16 -64zM1039 1206
q0 -8 -4 -33q88 86 184 155h-247q67 -52 67 -122zM395 165v22q-1 3 -1 11v969q0 8 1 12v21q0 30 10 46t43 39l57 42h-328l57 -42q35 -26 44.5 -39.5t9.5 -78.5v-969q0 -62 -9 -77q-9 -14 -45 -41l-39 -29h292l-39 29q-34 26 -44 40t-9 45z" />
    <glyph glyph-name="L" unicode="L" horiz-adv-x="1245" 
d="M55 1365h643v-31q-180 -27 -206 -154q-10 -41 -10 -120v-763q0 -140 42 -193t168 -53h21q67 0 131 20q125 39 266 181q71 73 140 163h31l-120 -415h-1106v31q107 18 151 75t44 199v755q0 93 -10 134t-37 68q-49 55 -148 72v31zM911 51h179l54 186q-97 -117 -233 -186z
M395 165v22q-1 3 -1 11v969q0 8 1 12v21q0 30 10 46t43 39l57 42h-327l56 -42q35 -26 44.5 -39.5t9.5 -78.5v-969q0 -62 -9 -77q-9 -14 -45 -41l-39 -29h292l-39 29q-34 26 -44 40t-9 45z" />
    <glyph glyph-name="M" unicode="M" horiz-adv-x="2007" 
d="M337 365q0 -145 59 -225t193 -109v-31h-546v31q72 25 129.5 79t87.5 127t45 240l63 721q-36 71 -86 102t-125 34v31h484q-2 -6 -13 -27.5t-11 -63.5t51 -144l387 -768l320 747q38 91 38 139t-40 117h481v-31q-98 -13 -144 -58t-46 -131q0 -27 3 -51l87 -767q2 -14 4 -24
t13 -86q11 -77 55 -123t138 -63v-31h-636v31q106 27 155 69t49 107q0 29 -7 82l-98 854l-456 -1082h-24l-546 1087l-59 -677q-5 -62 -5 -106zM1569 1165q-2 34 -2 55t51 62l57 45h-232l126 -1103l4 -22q2 -32 2 -46q0 -28 -52 -67l-54 -38h307l-52 42q-34 27 -45 117z
M517 1266q0 32 16 61h-230q56 -41 89 -92t60 -106l504 -1010l55 130l-460 916q-34 69 -34 101zM157 51h228q-51 55 -67 87t-25 84q-23 -59 -52 -95t-84 -76z" />
    <glyph glyph-name="N" unicode="N" horiz-adv-x="1667" 
d="M1437 1006v-1038h-30l-1098 1169l1 -671q0 -199 55 -297q67 -109 221 -138v-31h-523v31q135 50 180 189q28 77 28 242v716q-81 81 -121 110t-95 46v31h388q25 -43 41 -61t28 -32t17 -20.5t10 -12.5t9.5 -11t5.5 -7l845 -903v688q0 104 -26 172q-50 131 -233 156v31h477
v-31q-107 -29 -143 -96t-37 -232zM303 1201l1096 -1170v157l-938 1002q-65 68 -103 137h-204q71 -42 149 -126zM1469 1327h-192q48 -24 73 -49t49 -73q28 76 70 122zM172 51h204q-68 73 -99 157q-21 -54 -42 -86t-63 -71z" />
    <glyph glyph-name="O" unicode="O" horiz-adv-x="1565" 
d="M66 681q0 144 56 276q56 131 154 231q100 100 232 155t300 55q170 0 334 -97t260 -261t97 -359q0 -143 -55 -275t-154 -230.5t-229 -154.5t-275 -56q-196 0 -362 96q-166 97 -262 261t-96 359zM785 19q172 0 299 136q77 83 120 221t43 301q0 321 -126 501
q-126 181 -338 181q-211 0 -338 -184t-127 -487t128 -486q127 -183 339 -183zM216 688q0 210 64 356t201 249q-245 -132 -332 -364q-45 -115 -45 -246t44 -247q90 -237 333 -370q-265 199 -265 622zM1396 681q0 264 -155 460q-75 92 -175 147q219 -192 219 -598
q0 -244 -81 -417q-39 -81 -82 -125t-92 -83q366 212 366 616z" />
    <glyph glyph-name="P" unicode="P" horiz-adv-x="1285" 
d="M709 658h-227v-353q0 -87 12 -129q35 -120 225 -145v-31h-664v31q107 18 151 75t44 199v755q0 93 -10 134t-37 68q-48 53 -148 72v31q10 -1 25 -1l88 -5q54 -3 144 -3t180 9l140 12q68 6 130 6q234 0 366 -94t132 -261q0 -98 -50 -180t-136 -129q-121 -61 -365 -61z
M482 1103v-402h164q160 1 232 45q140 86 141 279q1 145 -87 231t-232 86t-191 -86q-27 -48 -27 -153zM1163 1032q0 157 -134 241q-67 42 -154 58q181 -95 181 -311t-184 -316q142 36 216 122t75 206zM395 165v22q-1 3 -1 11v969q0 8 1 12v21q0 28 8 44t45 41l56 43l-36 -2
q-91 -6 -150 -6t-137 3l53 -38q33 -23 43 -39q11 -17 11 -79v-969q0 -62 -9 -77q-9 -14 -45 -41l-39 -29h292l-39 29q-34 26 -44 40t-9 45z" />
    <glyph glyph-name="Q" unicode="Q" horiz-adv-x="1564" 
d="M66 684q0 142 56 273t154 231q100 100 232 155t300 55q170 0 334 -97t260 -261t97 -334q0 -168 -55 -300t-153.5 -231t-230.5 -155t-279 -55q-45 0 -76 4l149 -78q134 -71 208 -97t138 -26t112 22q93 42 166 187l28 -10q-73 -279 -208 -365q-71 -44 -158 -44
q-88 0 -174 43t-216 147l-89 71q-132 110 -203 110q-40 -1 -76 -25t-82 -83l-24 18q111 174 223 184q-269 115 -379 387q-54 132 -54 274zM785 19q172 0 299 136q77 83 120 221t43 301q0 321 -126 501q-126 181 -338 181q-211 0 -338 -184t-127 -487t128 -486
q127 -183 339 -183zM216 688q0 210 64 356t201 249q-245 -132 -332 -364q-45 -115 -45 -246t44 -247q90 -237 333 -370q-265 199 -265 622zM1396 681q0 264 -155 460q-75 92 -175 147q219 -192 219 -598q0 -244 -81 -417q-39 -81 -82 -125t-92 -83q366 212 366 616z
M1190 -275q-140 0 -429 169q-119 69 -157 85t-83 16t-107 -47q39 15 68 15q28 0 70 -20t171 -109t233 -143q105 -55 197 -55q186 0 284 216q-107 -127 -247 -127z" />
    <glyph glyph-name="R" unicode="R" horiz-adv-x="1609" 
d="M1264 1033q0 -271 -366 -299q112 -43 190 -120t193 -262t184 -260t153 -106v-28q-204 2 -338 84q-197 121 -326 388l-53 111q-35 75 -65 112t-70 50t-110 13h-174v-411q0 -83 11 -127q30 -120 198 -147v-31h-636v31q107 18 151 75t44 199v755q0 93 -10 134t-37 68
q-48 53 -148 72v31q9 -1 25 -1l88 -5q54 -3 144 -3t180 9l140 12q66 6 157 6t183 -24q186 -48 257 -179q35 -67 35 -147zM482 1103v-347h179q155 0 220 34q133 69 133 248q0 88 -40 158t-114 108q-74 39 -165 39q-138 0 -186 -86q-27 -49 -27 -154zM1052 1042
q0 -110 -43 -179t-137 -111q209 46 249 140t40 145q0 109 -78 190t-206 104q175 -95 175 -289zM1503 -1q-147 79 -244 217q-33 44 -99 154q-124 206 -218 278q-53 41 -115 66q53 -52 88 -118q34 -66 41.5 -80t9.5 -18t19 -41q107 -209 230 -317t288 -141zM395 165v22
q-1 3 -1 11v969q0 8 1 12v21q0 28 8 44t45 41l56 43l-36 -2q-91 -6 -150 -6t-137 3l53 -38q33 -23 43 -39q11 -17 11 -79v-969q0 -62 -9 -77q-9 -14 -45 -41l-39 -29h292l-39 29q-34 26 -44 40t-9 45z" />
    <glyph glyph-name="S" unicode="S" horiz-adv-x="1072" 
d="M847 1334h10l58 -333h-34q-49 161 -105 224q-115 126 -278 126q-109 0 -180 -59q-70 -60 -70 -159t91 -166q73 -54 249 -126q175 -72 220 -99q46 -27 84 -57q139 -112 139 -293q-1 -118 -65 -214t-179 -152q-115 -54 -233 -54q-203 0 -444 93l-28 10l-30 379h30
q43 -148 142 -273q129 -157 307 -157q90 0 161 34t111 95t40 135q0 143 -132 234q-67 47 -217 112q-150 66 -206 96t-104 80q-95 96 -95 209t52.5 196t144.5 129t182 47q90 0 176 -23l60 -16q68 -18 143 -18zM946 370q0 66 -28 130t-78 105q-73 67 -240 137q-168 70 -218 94
t-99 65q-100 79 -100 202q0 67 25 110t60 86q-143 -105 -143 -255t116 -236q61 -46 108 -67t72 -32.5t157 -68.5t197 -118q105 -97 105 -229q0 -121 -99 -209q165 119 165 286zM102 259l12 -136q70 -40 168 -73q-62 56 -100 98t-80 111z" />
    <glyph glyph-name="T" unicode="T" horiz-adv-x="1402" 
d="M1013 1327q-67 0 -111 -25t-64.5 -67t-20.5 -132v-798q0 -89 12 -131q34 -116 224 -143v-31h-705v31q195 27 227 153q10 40 10 121v798q1 99 -23 139q-49 84 -163 85q-113 -1 -207 -89t-140 -245h-31l31 372h1298l31 -372h-32q-61 211 -201 294q-68 40 -135 40z
M1293 1195l-19 133h-145q56 -24 90 -51t74 -82zM729 165v44q-1 2 -1 6v935q0 4 1 6v44q0 30 10 45t44 40l57 42h-308l47 -42q43 -38 43 -85v-33q1 -6 1 -17v-935q0 -11 -1 -17v-33q0 -30 -10 -45t-43 -40l-40 -29h293l-39 29q-35 27 -45 41q-9 14 -9 44zM222 1328h-137
l-14 -147q45 67 75 95t76 52z" />
    <glyph glyph-name="U" unicode="U" horiz-adv-x="1544" 
d="M43 1365h636v-31q-116 -18 -168 -82q-25 -33 -33 -74t-8 -118v-587q0 -305 234 -399q81 -34 191 -34q111 0 205 64t137 172t43 272v465q0 171 -72 239t-169 82v31h465v-31q-131 -36 -166 -149q-18 -58 -18 -148v-488q0 -218 -64 -331q-92 -164 -278 -221
q-94 -29 -202 -29t-202 32q-194 66 -280 243q-56 118 -56 336v481q0 86 -9 129q-30 118 -186 145v31zM1349 1327h-176q73 -42 106 -110q28 66 70 110zM275 1200q0 -30 1 -33v-576q0 -71 12 -173q23 -193 152 -305t331 -114q-203 44 -305 180q-48 62 -66 141t-18 212v668
q2 32 12 48t42 37l61 42h-336l61 -42q30 -19 42 -37q11 -18 11 -48z" />
    <glyph glyph-name="V" unicode="V" horiz-adv-x="1541" 
d="M1220 1150q0 143 -216 184v31h519v-30q-124 -43 -208 -174q-48 -76 -97 -187l-444 -1007h-22l-484 1088q-66 152 -114 206q-49 54 -136 73v31h650v-31l-22 -1q-94 -7 -134 -33t-40 -76t26 -111l369 -846l313 721q40 92 40 162zM379 1219q0 53 63 106h-306
q64 -52 105 -125t66 -134l456 -1036l55 125l-410 944q-29 67 -29 120zM1379 1327h-244q61 -37 85 -71t30 -89q29 59 57 93t72 67z" />
    <glyph glyph-name="W" unicode="W" horiz-adv-x="2260" 
d="M1940 1144q0 149 -230 190v31h532v-30q-131 -46 -216 -184q-43 -72 -87 -177l-400 -1007h-27l-403 1061l-384 -1061h-26l-432 1088q-73 183 -147 237q-40 28 -102 42v31h648v-31q-85 -4 -123 -18q-73 -24 -73 -94q0 -44 25 -109l313 -817l385 1069h30l408 -1064l272 687
q37 92 37 156zM1585 173l-401 1058l-54 -151l400 -1049zM377 1228q0 48 72 99h-314q69 -56 104 -123q35 -68 63 -138l410 -1036l50 142l-356 927q-29 81 -29 129zM2103 1327h-252q65 -33 91 -67t33 -92q49 97 128 159z" />
    <glyph glyph-name="X" unicode="X" horiz-adv-x="1450" 
d="M348 164q0 -116 203 -133v-31h-526v30q57 12 103 46q101 74 165 151l69 81l254 344l-240 362q-6 11 -22 32l-58 83q-71 102 -124 148t-117 57v31h634v-31q-86 -3 -122 -23q-34 -21 -34 -69t47 -119l188 -288l182 230q85 106 85 164q0 93 -161 105v31h480v-30
q-54 -11 -106 -41q-104 -60 -254 -237l-203 -255l342 -504q98 -142 160 -198t132 -69v-31h-646v31q121 9 149 43q15 18 15 54t-38 95l-265 395l-235 -318q-57 -78 -57 -136zM438 1230q0 56 53 97h-324q43 -29 77 -67t97 -129l62 -89q5 -6 11 -15.5t10.5 -15t4.5 -7.5
l508 -763q45 -69 45 -108t-28 -82h276q-65 54 -117 122q-77 106 -96 134l-495 742q-84 125 -84 181zM309 142q0 14 6 53q-61 -73 -162 -144h190q-34 44 -34 91zM1071 1234q0 -12 -7 -39q63 75 144 133h-199q62 -39 62 -94z" />
    <glyph glyph-name="Y" unicode="Y" horiz-adv-x="1487" 
d="M1132 1183q0 143 -199 151v31h536v-31q-52 -14 -114 -51t-163 -160l-353 -440v-378q0 -87 11 -129t56 -84q45 -44 156 -61v-31h-677v31q180 26 213 151q9 41 9 123v335l-305 442l-11 15q-88 131 -145 180q-58 49 -128 57v31h633v-31l-21 -1q-80 -5 -108 -24t-28 -64
t42 -107l288 -412l232 285q76 94 76 172zM1166 1186q71 86 151 145h-245q50 -24 72 -57t22 -88zM397 1242q0 52 62 90h-331q44 -26 84 -71t115 -153l318 -461v-449q0 -62 -9 -77q-9 -14 -45 -41l-39 -29h292l-39 29q-33 26 -43 40t-10 45v22q-1 3 -1 11v485l-296 422
q-58 85 -58 137z" />
    <glyph glyph-name="Z" unicode="Z" horiz-adv-x="1192" 
d="M33 0v32l821 1295h-169q-205 1 -321 -77t-194 -264h-37l78 379h920v-31l-817 -1283h237q145 1 257 35t173 95q93 93 150 265h40l-73 -446h-1065zM91 51h120l809 1277h-120zM818 51h208l32 163q-46 -65 -102 -104t-138 -59zM373 1326h-128l-34 -143q39 57 73 87t89 56z
" />
    <glyph glyph-name="bracketleft" unicode="[" horiz-adv-x="608" 
d="M620 -115h-427v1594h427v-50q-163 -26 -179 -102t-16 -153v-984q0 -86 9 -122t38 -66q51 -51 148 -66v-51zM231 1429v-1493h198l-39 29q-35 25 -44 41t-9 45v33q-1 6 -1 17v1150q0 11 1 17v33q-1 33 9 47t44 39l57 42h-216z" />
    <glyph glyph-name="backslash" unicode="\" horiz-adv-x="546" 
d="M546 -73l-40 -19l-506 1530l40 19z" />
    <glyph glyph-name="bracketright" unicode="]" horiz-adv-x="608" 
d="M415 1479v-1594h-427v51q108 17 158 76q23 26 30 62t7 116v984q0 88 -9 124t-38 64q-51 52 -148 67v50h427zM377 -64v1493h-217l57 -42q33 -25 43 -39t11 -47v-1250q0 -30 -9 -45t-45 -41l-39 -29h199z" />
    <glyph glyph-name="asciicircum" unicode="^" 
d="M751 0h-683v1365h683v-1365zM82 1351v-1337h655v1337h-655z" />
    <glyph glyph-name="underscore" unicode="_" horiz-adv-x="1024" 
d="M1024 -311h-1024v38h1024v-38z" />
    <glyph glyph-name="grave" unicode="`" horiz-adv-x="483" 
d="M343 977l-241 262h202l77 -262h-38zM166 1212l145 -160l-62 160h-83z" />
    <glyph glyph-name="a" unicode="a" horiz-adv-x="924" 
d="M564 0v93q-124 -104 -250 -104t-194 59t-68 153q0 136 132 212t380 87v42q0 150 -21 191q-21 40 -48 58q-29 17 -68 17t-66 -30t-34 -94q-7 -63 -25 -86t-58 -23q-39 1 -62 25t-23 68q-1 44 37 86q80 88 246 89q100 0 176 -40q118 -62 143 -196q8 -50 8 -127v-288
q1 -84 25 -118t92 -47v-27h-322zM254 210q0 -66 40 -110t106 -43q66 0 164 80v331q-196 -31 -273 -139q-37 -53 -37 -119zM691 113v20l-1 10v340q0 138 -32 208q-46 93 -141 118q64 -45 75 -143q6 -60 6 -186v-436h148l-23 18v1q0 2 -4 2q-28 22 -28 48zM86 202
q0 -82 60 -134t157 -52q29 0 41 1q-170 35 -170 186q0 98 79 168q33 30 135 79q-302 -55 -302 -248zM189 663q0 -46 33 -46q14 0 21 8q7 7 15 49t24 70t62 63q-71 -18 -113 -58t-42 -86z" />
    <glyph glyph-name="b" unicode="b" horiz-adv-x="1067" 
d="M630 838q166 0 280 -112q112 -114 112 -285q0 -89 -34 -173q-71 -173 -235 -251q-80 -37 -167 -37q-143 0 -268 111l-153 -91h-30v1158q0 84 -25 120t-92 45v22l322 37v-665q76 65 141 93t149 28zM568 27q72 -1 126 45t84 130t30 186q0 184 -64 295q-66 111 -170 111
q-105 0 -234 -139v-509q130 -119 228 -119zM843 418q0 -136 -28 -216t-98 -150q138 67 194 220q26 76 26 166q0 189 -131 300q-62 52 -144 67q181 -118 181 -387zM170 1213v-1163l92 58v1232l-164 -18l39 -28l14 -10q13 -10 16 -23t3 -48z" />
    <glyph glyph-name="c" unicode="c" horiz-adv-x="863" 
d="M531 41q128 0 268 161l23 -28q-128 -143 -234 -177q-56 -18 -152 -18t-188 50q-92 51 -144 143t-52 196q0 204 130 338q130 135 323 135q87 1 160 -31t117 -84t43 -105q0 -52 -25 -81t-70 -29t-72 52q-10 21 -18 89t-26 97q-37 59 -110 59q-146 0 -208 -182
q-29 -88 -29 -200q-1 -112 33 -202q68 -184 231 -183zM180 412q0 127 37 210q36 83 128 162q-257 -132 -257 -403q0 -105 47 -191t129 -134t189 -50q-273 71 -273 406zM725 548q33 0 33 48q0 100 -135 188q29 -38 38 -66t17 -82t16 -72q10 -16 31 -16z" />
    <glyph glyph-name="d" unicode="d" horiz-adv-x="1102" 
d="M735 0v102l-4 -3q-136 -119 -287 -119q-110 0 -200 52t-140 142q-52 92 -52 208t60 221q58 107 159 171t225 64t239 -94v414q0 84 -25 120t-92 45v22l321 37v-1190q0 -83 26 -118t92 -47v-27h-322zM507 802q-71 0 -156 -71t-85 -306t112 -339q53 -50 123 -50
q109 0 234 137v514q-131 115 -228 115zM86 374q0 -136 80 -234t225 -130q-63 37 -91 62t-56 68q-68 110 -68 245t38 221t127 175q-255 -150 -255 -407zM769 1213v-1169h148l-23 18q-3 3 -4 3q-28 22 -28 48l-1 20v1207l-164 -18l39 -28l14 -10q13 -10 16 -22t3 -49z" />
    <glyph glyph-name="e" unicode="e" horiz-adv-x="925" 
d="M559 48q135 0 287 142l20 -27q-101 -99 -194 -143t-210 -43t-211 53t-147 146q-52 94 -52 217t58 227t158 162t213 59q114 0 249 -66.5t146 -308.5h-603v-22q0 -243 135 -347q64 -49 151 -49zM483 808q-192 0 -210 -307h399q-2 136 -26 192q-24 55 -67 85q-44 30 -96 30z
M180 420q0 92 14 156q28 121 128 207q-112 -61 -174 -163t-62 -220t50 -206q50 -90 137 -139t192 -49q30 0 42 1q-69 9 -113 27t-94 64t-85 138t-35 184zM708 567q0 -58 -1 -66h86q-6 149 -93 236q-45 42 -101 59q109 -87 109 -229z" />
    <glyph glyph-name="f" unicode="f" horiz-adv-x="588" 
d="M367 941v-122h214v-31h-214v-596q-1 -107 55 -140q30 -18 83 -25v-27h-460v27q68 12 94 47q24 35 24 118v596h-86v31h86v91q0 206 40 295t114 135t155 46q161 0 234 -112q33 -52 33 -107q1 -55 -25 -83t-66 -29q-40 1 -63 29q-24 28 -24 74l2 49v19q0 124 -77 124
q-44 0 -74 -46t-38 -128q-8 -80 -7 -235zM289 928q0 204 25 288t101 137q-65 -23 -107 -57q-80 -65 -101 -210q-10 -70 -10 -186v-757q0 -40 -3 -48t-15 -20l-13 -13l-21 -18h200l-24 18q-3 3 -4 3q-27 22 -27 48l-1 20v795zM595 1216q0 -34 -1 -52v-9q0 -63 40 -63t41 66
q0 66 -35 120t-92 70q47 -33 47 -132z" />
    <glyph glyph-name="g" unicode="g" horiz-adv-x="939" 
d="M91 526q0 88 45 158q93 145 318 157q43 189 169 189q109 0 163 -63q24 -29 25 -61q-1 -32 -21 -55q-20 -22 -46 -22q-54 0 -83 49l-15 29q-25 48 -67 48q-70 0 -91 -114q154 -6 256 -91q103 -85 103 -218q0 -84 -50 -161q-51 -76 -135 -120t-178 -44t-201 48
q-39 -39 -51 -57t-12 -45q0 -46 64 -55q28 -4 94 -4h190q156 0 210 -27t86 -63q68 -76 68 -185q0 -108 -62 -194q-62 -87 -174 -133t-274 -46q-164 0 -280 74t-116 194q0 62 32 114t107 106q-62 60 -62 122t51 118q27 31 85 83l16 14q-164 95 -164 255zM474 811
q-80 -1 -131 -79q-50 -78 -50 -206q1 -128 49 -203q48 -76 130 -76q82 1 128 79t46 208t-46 203.5t-126 73.5zM383 -106q-115 0 -177 13q-88 -76 -88 -159q0 -84 44 -140t122 -88t166 -31q168 0 275 77q106 77 106 188q0 63 -40 99t-111 38l-77 3h-220zM134 65
q0 -87 66 -115q44 -19 196 -19l133 -1q129 0 179 -6t79 -26q73 -46 73 -135q0 -39 -23 -100q47 67 47 143t-44 128t-93 68q-49 17 -134 17l-138 1l-114 1q-142 0 -173 36q-17 20 -17 48t12 59q-49 -53 -49 -99zM762 523q0 94 -48 167q-49 71 -129 103q50 -45 71 -105
t21 -152q0 -173 -93 -272q178 81 178 259zM207 530q0 164 140 269q-103 -29 -163 -103t-60 -164q0 -172 190 -262q-107 96 -107 260zM726 864q28 0 28 29q0 23 -19 45q-42 50 -115 50q-10 0 -30 -3q34 -13 52 -29t34 -44t26 -38t24 -10z" />
    <glyph glyph-name="h" unicode="h" horiz-adv-x="1155" 
d="M726 841q68 -1 134 -37t103 -100t37 -180v-332q0 -84 24 -118t93 -47v-27h-439v27q67 12 93 47q24 35 24 118v338q-1 106 -15 152q-30 95 -126 96q-64 0 -126 -44t-154 -154v-388q0 -84 24 -118t93 -47v-27h-439v27q66 13 92 47t26 118v966q0 85 -25 120t-93 45v22
l322 37v-749q126 151 230 189q54 20 122 19zM922 113v20l-1 10v382q0 136 -44 197q-61 84 -161 84q-14 0 -46 -4q62 -8 96 -36q63 -51 63 -235v-388q0 -40 -3 -48t-15 -20l-13 -13l-20 -18h199l-23 18v1q0 2 -4 2q-28 22 -28 48zM204 1213v-1070q0 -42 -3 -49t-28 -32
l-21 -18h200l-24 18q-3 3 -4 3l-13 10q-13 13 -15 38v1227l-164 -18l39 -28l14 -10q13 -10 16 -23t3 -48z" />
    <glyph glyph-name="i" unicode="i" horiz-adv-x="526" 
d="M491 0h-439v27q66 13 92 47t26 118v420q0 85 -25 120t-93 45v22l322 37v-644q0 -84 24 -118t93 -47v-27zM143.5 1109q0.5 51 34.5 85t84 34t84 -34t34.5 -85t-33.5 -85t-85 -34t-85 34t-33.5 85zM204 667v-524q0 -42 -3 -49t-28 -32l-21 -18h200l-24 18q-3 3 -4 3l-13 10
q-13 13 -15 38v681l-164 -18l39 -28l14 -10q13 -10 16 -23t3 -48zM170.5 1109q-0.5 -35 25.5 -63t54 -29q28 0 29 23q1 12 1 72t-1 69q-2 20 -29 20q-27 -1 -53 -29t-26.5 -63z" />
    <glyph glyph-name="j" unicode="j" horiz-adv-x="502" 
d="M-191 -336q1 122 99 121q34 1 56 -25t23 -59q0 -33 -1 -40l-2 -50q0 -42 16 -67t45 -25q67 0 92 99q19 64 19 267v727q0 84 -25 120t-92 45v22l322 37v-875q0 -183 -22 -262q-40 -144 -163 -198q-60 -28 -126 -28q-66 1 -122 27t-87.5 73t-31.5 91zM112 1109q0 51 34 85
t85 34t85 -34t34 -85t-34 -85t-85 -34t-85 34t-34 85zM160 748q0 -1 12 -10t15 -21t3 -50l1 -715v-142q-1 -140 -21 -202t-75 -101q67 22 101 51q65 56 80 203q7 69 7 205v828l-165 -18l40 -28h2zM-82 -357q0 27 1 34l2 31q0 39 -34 39q-18 0 -31 -19.5t-13 -59.5
q1 -40 35 -86t97 -73q-57 52 -57 134zM248 1040v138q0 24 -28 24t-54 -28t-26 -64t26 -64t54 -29q28 0 28 23z" />
    <glyph glyph-name="k" unicode="k" horiz-adv-x="1076" 
d="M730 727q0 57 -107 65v27h385v-27q-106 -11 -192 -82.5t-89 -74.5t-5 -4l-107 -90l272 -367q56 -75 101 -108t102 -39v-27h-521v27q107 8 107 63q0 32 -40 87l-172 237l-90 -77v-145q0 -84 24 -118t93 -47v-27h-439v27q66 13 92 47t26 118v966q0 85 -25 120t-93 45v22
l322 37v-1001l287 246q69 60 69 100zM204 1213v-1070q0 -42 -3 -49t-28 -32l-21 -18h200l-24 18q-3 3 -4 3l-13 10q-13 13 -15 38v1227l-164 -18l39 -28l14 -10q13 -10 16 -23t3 -48zM709 102q0 -34 -22 -56h231q-61 33 -128 126l-235 321l-66 -57l169 -231q51 -69 51 -103z
M761 729q0 -7 -4 -24q41 41 100 83h-132q36 -28 36 -59z" />
    <glyph glyph-name="l" unicode="l" horiz-adv-x="534" 
d="M491 0h-439v27q66 13 92 47t26 118v966q0 85 -25 120t-93 45v22l322 37v-1190q0 -84 24 -118t93 -47v-27zM204 1213v-1070q0 -42 -3 -49t-28 -32l-21 -18h200l-24 18q-3 3 -4 3l-13 10q-13 13 -15 38v1227l-164 -18l39 -28l14 -10q13 -10 16 -23t3 -48z" />
    <glyph glyph-name="m" unicode="m" horiz-adv-x="1722" 
d="M972 524v-332q0 -83 26 -118t92 -47v-27h-439v27q67 12 93 47q24 35 24 118v338q0 107 -14 152q-14 44 -47 70t-87 26t-110 -41q-58 -41 -136 -138v-407q0 -84 24 -118t93 -47v-27h-439v27q66 13 92 47t26 118v420q0 85 -25 120t-93 45v22l322 37v-188q80 100 156 146
t172 46t164 -52t93 -150q63 77 108 117q94 85 218 85q166 0 242 -132q39 -67 39 -184v-332q0 -84 24 -118t93 -47v-27h-439v27q68 12 94 47q24 35 24 118v338q0 110 -14 154q-29 94 -121 94q-63 0 -123 -42t-136 -139q4 -31 4 -73zM675 808q-3 -1 -13 -1t-17 -2
q90 -14 124 -71q33 -58 33 -203v-388q0 -40 -3 -48t-15 -20l-13 -13l-21 -18h200l-23 18q-3 3 -4 3q-28 22 -28 48l-1 20v392q-2 139 -37 189q-66 94 -173 94h-9zM204 667v-524q0 -42 -3 -49t-28 -32l-21 -18h200l-24 18q-3 3 -4 3l-13 10q-13 13 -15 38v681l-164 -18
l39 -28l14 -10q13 -10 16 -23t3 -48zM1396 531v-388q0 -40 -3 -48t-15 -20l-13 -13l-21 -18h200l-24 18q0 3 -16 14t-15 37l-1 20v10l-1 382q0 138 -43 198q-61 84 -165 84l-40 -2q90 -14 124 -71q33 -58 33 -203z" />
    <glyph glyph-name="n" unicode="n" horiz-adv-x="1155" 
d="M726 841q68 -1 134 -37t103 -100t37 -180v-332q0 -84 24 -118t93 -47v-27h-439v27q67 12 93 47q24 35 24 118v338q-1 106 -15 152q-30 95 -126 96q-64 0 -126 -44t-154 -154v-388q0 -84 24 -118t93 -47v-27h-439v27q66 13 92 47t26 118v420q0 85 -25 120t-93 45v22
l322 37v-203q126 151 230 189q54 20 122 19zM922 113v20l-1 10v382q0 136 -44 197q-61 84 -161 84q-14 0 -46 -4q62 -8 96 -36q63 -51 63 -235v-388q0 -40 -3 -48t-15 -20l-13 -13l-20 -18h199l-23 18v1q0 2 -4 2q-28 22 -28 48zM204 667v-524q0 -42 -3 -49t-28 -32l-21 -18
h200l-24 18q-3 3 -4 3l-13 10q-13 13 -15 38v681l-164 -18l39 -28l14 -10q13 -10 16 -23t3 -48z" />
    <glyph glyph-name="o" unicode="o" horiz-adv-x="1031" 
d="M518 -20q-126 0 -234 58t-170 156q-62 100 -62 216t62 214t170 158q108 58 217 58t193 -32t149 -92t101 -140t35 -180q0 -100 -61.5 -200t-167.5 -158t-232 -58zM339 131q68 -107 178 -107q52 0 122 43t105 189q17 76 17 176t-31 189q-65 186 -214 186q-110 1 -178 -107
t-67 -285q0 -177 68 -284zM181 411q0 272 185 382q-170 -63 -245 -224q-35 -76 -35 -204t129 -244q49 -39 133 -84q-49 39 -67 58q-100 106 -100 316zM889 412q0 132 -67 236t-180 146q153 -112 153 -381q0 -261 -161 -380l-16 -12q131 58 202 159q69 100 69 232z" />
    <glyph glyph-name="p" unicode="p" horiz-adv-x="1093" 
d="M935 726q112 -114 112 -286q0 -183 -129 -322q-129 -138 -307 -138q-126 0 -244 91v-384q-1 -109 55 -141q30 -18 83 -24v-27h-460v27q68 12 93 46t25 119v925q1 84 -25 120t-93 45v22l322 37v-118q142 120 298 120t270 -112zM604 27q62 0 116 45t84 131q30 85 29 185
q0 183 -64 295q-66 111 -170 111q-53 0 -115 -36t-117 -102v-512q80 -67 128 -92q47 -25 109 -25zM197 667v-1029q1 -42 -3 -52t-16 -20t-12 -9l-21 -18h200l-24 18q2 0 -4 3l-12 10q-15 13 -15 38l-1 20v1166l-164 -18l39 -28l14 -10q13 -10 16 -22t3 -49zM696 805
q180 -117 180 -387q0 -134 -28 -216t-97 -150q137 64 193 218q26 75 26 160q0 148 -75 251q-76 103 -199 124z" />
    <glyph glyph-name="q" unicode="q" horiz-adv-x="1083" 
d="M737 -313v410l-6 -4q-134 -113 -280 -113q-109 0 -199 52t-142 142q-52 92 -51 208q0 116 60 221q58 107 159 171t228 64t251 -106l155 104h29v-1149q1 -85 25 -119t92 -46v-27h-459v27q80 12 109 47t29 118zM737 692q-111 110 -235 110q-60 0 -144.5 -71t-84.5 -309
q0 -110 30 -200q29 -90 83 -138t122 -48q110 0 229 132v524zM771 -362q0 -42 -4 -52q-5 -10 -15 -20t-12 -9l-21 -18h200l-24 18q2 0 -4 3l-13 10q-13 13 -15 38v1154l-92 -60v-1064zM183 398q0 153 52 237.5t113 145.5q-254 -152 -254 -406q0 -94 36 -168q73 -151 268 -197
q-67 37 -97 68q-118 125 -118 320z" />
    <glyph glyph-name="r" unicode="r" horiz-adv-x="750" 
d="M613 743q0 58 -54 58t-111 -90q-28 -43 -74 -133v-386q0 -83 30 -118t108 -47v-27h-460v27q66 13 92 47t26 118v420q0 85 -25 120t-93 45v22l322 37v-195q58 111 105 156t115 45t119 -60t51 -149q0 -119 -90 -119q-38 0 -60 26t-23 52q0 26 5 51l9 38q8 37 8 62zM204 667
v-524q0 -42 -3 -49t-28 -32l-21 -18h200l-24 18q-3 3 -4 3l-13 10q-13 13 -15 38v681l-164 -18l39 -28l14 -10q13 -10 16 -23t3 -48zM641 734q-1 -32 -11 -76t-10 -60q0 -42 34 -42q43 0 43 92t-79 150q23 -32 23 -64z" />
    <glyph glyph-name="s" unicode="s" horiz-adv-x="744" 
d="M362 804q-49 0 -83 -30t-34 -70q1 -41 27 -67q26 -27 148 -93t183 -115q95 -74 95 -191t-91 -187q-95 -72 -265 -72q-98 0 -267 55l-24 304h24q90 -311 280 -311q68 0 111 39.5t43 105.5t-42 99q-43 33 -159 97t-160 101q-71 59 -71 153q1 94 77 156t186 62t250 -49
l42 -232h-27q-30 115 -94 180q-65 65 -149 65zM262 806q-152 -50 -152 -188q0 -70 47 -112t171 -111q124 -68 170 -109q45 -41 45 -113q0 -112 -110 -156q90 12 141 63t51.5 129.5t-53.5 134.5t-184 126t-171.5 109t-41.5 90q0 77 87 137zM94 169l10 -109q77 -26 108 -33
l22 -5q-48 32 -78 64t-62 83z" />
    <glyph glyph-name="t" unicode="t" horiz-adv-x="566" 
d="M320 1182v-363h219v-30h-218v-530q-1 -81 9 -127q19 -90 83 -90t152 72l15 -24q-129 -110 -237 -110q-109 0 -168 74t-59 217v521h-92v24q228 33 271 366h25zM242 296v622q-34 -57 -92 -91v-533q0 -121 16 -159q53 -127 181 -127q20 0 28 1q-47 11 -71 27q-45 31 -56 129
q-6 53 -6 131z" />
    <glyph glyph-name="u" unicode="u" horiz-adv-x="1095" 
d="M735 177q-159 -199 -327 -199q-170 0 -248 134q-37 64 -37 183v317q0 84 -25 120t-92 45v22l322 37v-547q0 -109 14 -153t48 -69q32 -26 83 -26t108 37t138 132l16 19v383q0 84 -25 120t-92 45v22l322 37v-644q0 -84 24 -118t93 -47v-27h-322v177zM862 113v20l-1 10v651
l-164 -18l40 -28h2q0 -1 12 -10t15 -21t3 -50v-623h148l-23 18v1q0 2 -4 2q-28 22 -28 48zM249 288v507l-164 -19l40 -28h2q0 -1 12 -10t15 -21t3 -50v-373q0 -126 55 -201q79 -89 165 -89l29 2q-60 9 -94 38q-64 55 -63 244z" />
    <glyph glyph-name="v" unicode="v" horiz-adv-x="884" 
d="M-64 819h470v-27q-68 -4 -92 -20t-23 -50q0 -34 31 -96l198 -398l204 444q19 42 19 63q0 51 -81 55l-23 2v27h253v-27q-41 -3 -70 -27q-28 -25 -55 -82l-321 -699h-23l-334 646l-15 26q-38 67 -57 94t-81 47v22zM204 724q0 42 43 64h-231q46 -36 91 -121l329 -630l48 101
l-247 478q-33 66 -33 108z" />
    <glyph glyph-name="w" unicode="w" horiz-adv-x="1275" 
d="M-64 819h467v-27q-65 -3 -89 -18q-24 -14 -24 -46t13 -64l163 -411l214 576h17l252 -570l158 388q24 59 24 89t-24 42q-25 13 -86 14v27h262v-27q-65 -4 -99 -63q-24 -39 -47 -98l-268 -652h-23l-244 552l-209 -552h-24l-278 636q-41 94 -71 130t-84 47v27zM619 577
l239 -538l49 116l-241 545zM199 724q0 38 51 63h-235q42 -32 60 -64q17 -32 45 -93l262 -596l45 117l-210 492q-18 43 -18 81z" />
    <glyph glyph-name="x" unicode="x" horiz-adv-x="952" 
d="M477 27q99 4 99 45q0 22 -26 62l-151 223l-162 -215q-30 -39 -30 -65q0 -47 74 -49l17 -1v-27h-277v27q78 11 143 83l37 41q12 15 18 21l161 213l-165 242q-61 89 -97 123t-78 42v27h443v-27q-51 -2 -68 -12t-17 -32q0 -24 13 -44l112 -173l129 165q27 34 27 56
q0 40 -79 40v27h251v-27q-54 -7 -91 -31q-35 -25 -93 -97l-126 -160l223 -325q55 -79 87 -107t84 -45v-27h-458v27zM312 736q0 36 37 53h-227q50 -34 136 -165l323 -479q29 -47 29 -65t-11 -37h190q-57 48 -122 141l-305 446q-50 70 -50 106z" />
    <glyph glyph-name="y" unicode="y" horiz-adv-x="839" 
d="M-43 819h442v-27q-51 -6 -73 -21t-23 -44q0 -29 25 -80l178 -384l156 379q26 66 26 94t-22 40.5t-75 15.5v27h248v-27q-49 -10 -69 -27t-46 -71l-18 -39q-2 -7 -7 -17l-308 -750q-45 -114 -97 -144q-28 -16 -75 -16t-90 48t-43 109t26 92t64 31q71 0 77 -70l3 -35
q4 -61 40 -61q21 0 40 24t45 90l25 61l-304 627q-40 82 -70 114t-75 34v27zM291 -224q-102 0 -102 120l1 28q0 36 -33 36q-40 0 -40 -62t34.5 -102.5t74.5 -40.5t74 21h-9zM217 726q0 38 40 63h-222q49 -32 88 -113l305 -630l45 111l-234 486q-22 45 -22 83z" />
    <glyph glyph-name="z" unicode="z" horiz-adv-x="820" 
d="M26 0v43l499 749h-113q-126 0 -196 -57t-116 -202h-26l77 286h615v-22l-503 -752h132q158 0 240 65q80 65 119 222h27l-41 -332h-714zM64 45h108l496 746h-107zM575 42h112l14 94q-33 -43 -56 -60t-70 -34z" />
    <glyph glyph-name="braceleft" unicode="{" 
d="M751 0h-683v1365h683v-1365zM82 1351v-1337h655v1337h-655z" />
    <glyph glyph-name="bar" unicode="|" 
d="M751 0h-683v1365h683v-1365zM82 1351v-1337h655v1337h-655z" />
    <glyph glyph-name="braceright" unicode="}" 
d="M751 0h-683v1365h683v-1365zM82 1351v-1337h655v1337h-655z" />
    <glyph glyph-name="asciitilde" unicode="~" 
d="M751 0h-683v1365h683v-1365zM82 1351v-1337h655v1337h-655z" />
    <glyph glyph-name="nonbreakingspace" unicode="&#xa0;" horiz-adv-x="678" 
 />
    <glyph glyph-name="exclamdown" unicode="&#xa1;" horiz-adv-x="549" 
d="M408 146q0 -62 -36 -112t-96 -50t-98 50t-38 126q0 74 28 196t54 251q25 130 35 346l1 27h30l1 -27q15 -272 61 -476t52 -237q6 -32 6 -94zM401 1248q1 -44 -37 -82t-90 -38t-90 38t-39 82q0 82 63 122q30 17 66 17t65 -17q62 -39 62 -122zM178 158q0 -54 22 -90t55 -36
q58 0 58 102q0 24 -8 85l-12 90q-26 213 -26 413q-8 -82 -42 -262l-25 -127q-22 -121 -22 -175zM291 1182v150q1 25 -29 25q-30 1 -58 -29t-27 -70q-1 -40 27 -71q28 -30 58 -30t29 25z" />
    <glyph glyph-name="cent" unicode="&#xa2;" horiz-adv-x="998" 
d="M886 906q0 -108 -94 -108q-46 0 -73 52q-11 22 -19 98t-41 111t-99 35v-764q21 -3 32 -3q123 0 268 162l23 -28q-89 -101 -159 -143t-164 -51v-135h-34v133h-6q-181 -1 -294 111t-113 289q0 118 53 220t148 166q96 63 212 75v114h34v-113h7q85 0 158 -31t117 -84
q44 -54 44 -106zM328 692q0 -128 52 -225t146 -129v753q-122 -25 -174 -191q-24 -80 -24 -208zM148 668q0 -162 104 -268t262 -107q-273 71 -273 406q0 127 37 211t127 160q-257 -133 -257 -402zM785 835q33 0 33 48q0 100 -134 187q26 -37 36 -63q10 -27 18 -83t17 -72
q10 -16 30 -17z" />
    <glyph glyph-name="sterling" unicode="&#xa3;" horiz-adv-x="1136" 
d="M420 263q0 166 -94 377h-133v39h121q-11 31 -12 32l-36 91q-49 124 -49 232t55 189t153 127q99 46 211 46t198 -32t134 -89q50 -57 50 -119t-28 -94t-74 -33q-96 0 -113 120l-10 67q-9 61 -49 100q-40 38 -106 38t-122 -75t-56 -165t36 -230q36 -139 47 -205h286v-39
h-280q11 -92 11 -140q0 -98 -55 -247l-9 -22q125 -52 240 -52q183 0 349 142l23 -16q-133 -335 -398 -335q-143 0 -287 121q-48 -63 -94 -91t-113 -29q-67 0 -118 53t-51 117t37.5 130t152.5 66q53 0 116 -35t67 -39zM221 224q-37 0 -63 -28t-26.5 -70.5t31.5 -74.5t76 -32
q84 0 144 108l-20 19q-49 46 -77 62t-65 16zM212 269q66 0 161 -79l73 -61q137 -115 263 -115q188 0 296 191q-131 -101 -279 -101t-291 93l-70 46q-82 55 -145 55q-87 0 -130 -97q56 68 122 68zM493 419q0 84 -19 170q-20 86 -68 248q-48 163 -48 251q0 173 155 261
q-120 -35 -190 -117t-70 -176q-1 -94 25 -174t80 -218t75 -214t21 -122t-6 -79l10 -5q35 91 35 175zM891 1084q39 0 39 56t-50 116q-50 58 -128 85q41 -33 59 -69t26 -93q7 -57 17 -76t37 -19z" />
    <glyph glyph-name="currency" unicode="&#xa4;" 
d="M751 0h-683v1365h683v-1365zM82 1351v-1337h655v1337h-655z" />
    <glyph glyph-name="yen" unicode="&#xa5;" horiz-adv-x="1408" 
d="M795 580h266v-36h-266v-239q0 -86 11.5 -127.5t53.5 -85.5t151 -61v-31h-664v31q181 27 208 152q8 42 8 122v239h-266v36h266v63l-36 65h-230v36h210l-190 338q-132 234 -275 252v31h599v-31q-135 0 -135 -85q0 -36 41 -112l232 -415l179 289q2 3 6.5 10t6.5 9
q61 92 61 158t-46 104t-132 42v31h500v-31q-88 -21 -168 -92q-28 -24 -78 -84t-83 -114l-189 -300h225v-36h-250l-16 -25v-103zM971 1331q89 -43 93 -144q59 86 133 144h-226zM707 165v509l-239 431q-57 104 -57 147t61 80h-325q108 -62 211 -247l243 -436v-434
q0 -11 -1 -17v-33q0 -30 -10 -45t-43 -40l-39 -29h292l-39 29q-39 27 -46.5 46t-7.5 39z" />
    <glyph glyph-name="section" unicode="&#xa7;" 
d="M751 0h-683v1365h683v-1365zM82 1351v-1337h655v1337h-655z" />
    <glyph glyph-name="dieresis" unicode="&#xa8;" horiz-adv-x="718" 
d="M102 1109.5q0 40.5 30 70.5t59 30t49 -8q62 -24 63 -92q1 -42 -29 -72t-71 -29.5t-71 30.5t-30 70.5zM616 1098q0 -31 -30 -60t-70 -29t-70 29t-31 64q0 34 14 58q29 50 86 50q18 0 39 -8q62 -23 62 -104zM219 1052v119q1 17 -21 17t-45 -24q-22 -24 -22 -54t22 -54
t44 -24t22 20zM532 1052v119q-2 17 -23 17t-44 -24q-22 -24 -22 -54t22 -54q23 -24 45 -24t22 20z" />
    <glyph glyph-name="copyright" unicode="&#xa9;" 
d="M751 0h-683v1365h683v-1365zM82 1351v-1337h655v1337h-655z" />
    <glyph glyph-name="ordfeminine" unicode="&#xaa;" 
d="M751 0h-683v1365h683v-1365zM82 1351v-1337h655v1337h-655z" />
    <glyph glyph-name="guillemotleft" unicode="&#xab;" horiz-adv-x="679" 
d="M278 465q75 -157 94 -303h-28q-48 88 -102 154t-149 149q107 101 156 161q50 60 95 142h28q-17 -134 -94 -303zM492 465q75 -157 94 -303h-28q-48 88 -102 154t-149 149q107 101 156 161q50 60 95 142h28q-17 -134 -94 -303zM298 281q-31 101 -85 183q56 85 89 186
q-52 -73 -102 -121t-54.5 -53t-11.5 -12q111 -95 164 -183zM512 281q-28 99 -84 183q61 99 88 186q-51 -71 -101 -120t-67 -66q111 -95 164 -183z" />
    <glyph glyph-name="logicalnot" unicode="&#xac;" 
d="M751 0h-683v1365h683v-1365zM82 1351v-1337h655v1337h-655z" />
    <glyph glyph-name="registered" unicode="&#xae;" 
d="M751 0h-683v1365h683v-1365zM82 1351v-1337h655v1337h-655z" />
    <glyph glyph-name="macron" unicode="&#xaf;" 
d="M751 0h-683v1365h683v-1365zM82 1351v-1337h655v1337h-655z" />
    <glyph glyph-name="degree" unicode="&#xb0;" 
d="M751 0h-683v1365h683v-1365zM82 1351v-1337h655v1337h-655z" />
    <glyph glyph-name="plusminus" unicode="&#xb1;" 
d="M751 0h-683v1365h683v-1365zM82 1351v-1337h655v1337h-655z" />
    <glyph glyph-name="acute" unicode="&#xb4;" horiz-adv-x="483" 
d="M180 1239h201l-241 -262h-38zM200 1212l-50 -160l133 160h-83z" />
    <glyph glyph-name="mu" unicode="&#xb5;" 
d="M751 0h-683v1365h683v-1365zM82 1351v-1337h655v1337h-655z" />
    <glyph glyph-name="paragraph" unicode="&#xb6;" 
d="M751 0h-683v1365h683v-1365zM82 1351v-1337h655v1337h-655z" />
    <glyph glyph-name="periodcentered" unicode="&#xb7;" horiz-adv-x="456" 
d="M100 681q0 36 17 65t46 46t65 17t65 -17t46 -46t17 -65t-17 -65t-46 -46t-65 -17t-65 17t-46 46t-17 65zM246 607v148q0 25 -30 25t-56.5 -30t-26.5 -68q-1 -38 27 -69t57 -31t29 25z" />
    <glyph glyph-name="periodcentered" unicode="&#x2219;" horiz-adv-x="456" 
d="M100 681q0 36 17 65t46 46t65 17t65 -17t46 -46t17 -65t-17 -65t-46 -46t-65 -17t-65 17t-46 46t-17 65zM246 607v148q0 25 -30 25t-56.5 -30t-26.5 -68q-1 -38 27 -69t57 -31t29 25z" />
    <glyph glyph-name="cedilla" unicode="&#xb8;" 
d="M751 0h-683v1365h683v-1365zM82 1351v-1337h655v1337h-655z" />
    <glyph glyph-name="ordmasculine" unicode="&#xba;" 
d="M751 0h-683v1365h683v-1365zM82 1351v-1337h655v1337h-655z" />
    <glyph glyph-name="guillemotright" unicode="&#xbb;" horiz-adv-x="679" 
d="M307 162q19 140 94 303q-59 130 -73 187q-13 57 -21 116h28q61 -111 124 -177q63 -67 127 -126q-106 -98 -154 -158t-97 -145h-28zM93 162q19 140 94 303q-59 130 -73 187q-13 57 -21 116h28q61 -111 124 -177q63 -67 127 -126q-106 -98 -154 -158t-97 -145h-28zM354 280
q60 85 161 186q-109 95 -158 183q27 -95 83 -183q-54 -88 -86 -186zM140 280q60 85 161 186q-106 93 -159 183q15 -54 29 -85t54 -98q-56 -98 -85 -186z" />
    <glyph glyph-name="questiondown" unicode="&#xbf;" horiz-adv-x="973" 
d="M431 1260q0 36 17 65t46 46t65 17t82 -27t46 -101t-46 -100.5t-82 -26.5t-65 17t-46 45.5t-17 64.5zM626 836q0 -48 -10 -78t-44 -76q-34 -44 -107 -126t-101 -138t-29 -130q1 -74 25 -132t66 -92t86 -33q82 0 119 69q15 28 20 49t17 84t38 92t72 29t74.5 -32t28.5 -92
q-1 -60 -51 -120q-50 -58 -138 -92t-202 -34t-205 41q-92 41 -142 117t-50 162q1 84 21 136q38 96 213 215q136 95 168 123q66 60 66 137q0 25 -11 72l35 8q41 -111 41 -159zM577 1187v147q1 26 -29 26t-58 -31t-27 -69q-1 -38 27 -68t58 -30t29 25zM132 301q0 -101 70 -177
t192 -98q-78 35 -121 103q-43 69 -43 143t21 133t87 127q68 68 126 123t78 89t27 87q-22 -52 -61 -89q-40 -37 -160 -120t-168 -152t-48 -169zM803 245q0 68 -43 68q-37 0 -51 -74l-10 -54q-10 -55 -27 -87t-53 -63q87 30 136 86q48 56 48 124z" />
    <glyph glyph-name="Agrave" unicode="&#xc0;" horiz-adv-x="1543" 
d="M321 228q0 -56 23 -94q45 -73 193 -103v-31h-519v30q92 30 160 110t144 251l442 1000h26l481 -1081q4 -3 6 -9t7 -17l44 -91q36 -73 82 -110t115 -52v-31h-638v31q83 6 116 19q72 27 72 94q0 32 -32 108l-111 253h-515l-56 -128q-40 -93 -40 -149zM435 547h478l-241 543z
M1119 140q0 -38 -49 -89h264q-46 43 -80 99t-75 149l-429 965l-57 -131l395 -889q31 -66 31 -104zM281 195q0 20 1 27q-32 -62 -62 -98t-80 -73h203q-62 73 -62 144zM753 1498l-241 262h202l77 -262h-38zM576 1733l145 -160l-62 160h-83z" />
    <glyph glyph-name="Aacute" unicode="&#xc1;" horiz-adv-x="1543" 
d="M321 228q0 -56 23 -94q45 -73 193 -103v-31h-519v30q92 30 160 110t144 251l442 1000h26l481 -1081q4 -3 6 -9t7 -17l44 -91q36 -73 82 -110t115 -52v-31h-638v31q83 6 116 19q72 27 72 94q0 32 -32 108l-111 253h-515l-56 -128q-40 -93 -40 -149zM435 547h478l-241 543z
M1119 140q0 -38 -49 -89h264q-46 43 -80 99t-75 149l-429 965l-57 -131l395 -889q31 -66 31 -104zM281 195q0 20 1 27q-32 -62 -62 -98t-80 -73h203q-62 73 -62 144zM822 1760h201l-241 -262h-38zM842 1733l-50 -160l133 160h-83z" />
    <glyph glyph-name="Acircumflex" unicode="&#xc2;" horiz-adv-x="1543" 
d="M321 228q0 -56 23 -94q45 -73 193 -103v-31h-519v30q92 30 160 110t144 251l442 1000h26l481 -1081q4 -3 6 -9t7 -17l44 -91q36 -73 82 -110t115 -52v-31h-638v31q83 6 116 19q72 27 72 94q0 32 -32 108l-111 253h-515l-56 -128q-40 -93 -40 -149zM435 547h478l-241 543z
M1119 140q0 -38 -49 -89h264q-46 43 -80 99t-75 149l-429 965l-57 -131l395 -889q31 -66 31 -104zM281 195q0 20 1 27q-32 -62 -62 -98t-80 -73h203q-62 73 -62 144zM1067 1510l-273 104l-273 -104l-20 35l293 228l292 -228zM791 1645l137 -53l-157 124l-218 -165z" />
    <glyph glyph-name="Atilde" unicode="&#xc3;" horiz-adv-x="1543" 
d="M321 228q0 -56 23 -94q45 -73 193 -103v-31h-519v30q92 30 160 110t144 251l442 1000h26l481 -1081q4 -3 6 -9t7 -17l44 -91q36 -73 82 -110t115 -52v-31h-638v31q83 6 116 19q72 27 72 94q0 32 -32 108l-111 253h-515l-56 -128q-40 -93 -40 -149zM435 547h478l-241 543z
M1119 140q0 -38 -49 -89h264q-46 43 -80 99t-75 149l-429 965l-57 -131l395 -889q31 -66 31 -104zM281 195q0 20 1 27q-32 -62 -62 -98t-80 -73h203q-62 73 -62 144zM1112 1720q-66 -189 -181 -189q-55 0 -126 23l-54 17q-96 32 -138 32q-67 0 -113 -64l-29 12
q71 185 192 185q37 0 129 -30t115 -35t52 -5q74 0 124 65zM624 1654q42 0 130 -28q90 -28 121 -38q31 -8 61 -8q55 0 114 78q-48 -22 -86 -22t-68 8t-118 35q-87 28 -123 28q-66 0 -129 -92q56 39 98 39z" />
    <glyph glyph-name="Adieresis" unicode="&#xc4;" horiz-adv-x="1543" 
d="M321 228q0 -56 23 -94q45 -73 193 -103v-31h-519v30q92 30 160 110t144 251l442 1000h26l481 -1081q4 -3 6 -9t7 -17l44 -91q36 -73 82 -110t115 -52v-31h-638v31q83 6 116 19q72 27 72 94q0 32 -32 108l-111 253h-515l-56 -128q-40 -93 -40 -149zM435 547h478l-241 543z
M1119 140q0 -38 -49 -89h264q-46 43 -80 99t-75 149l-429 965l-57 -131l395 -889q31 -66 31 -104zM281 195q0 20 1 27q-32 -62 -62 -98t-80 -73h203q-62 73 -62 144zM525 1634q-1 40 29 70t60 30t50 -8q62 -24 62 -92q0 -42 -30 -72t-70 -29q-41 0 -71 30t-30 71zM1039 1622
q-1 -31 -31 -60t-70 -29t-70 29t-30 64q0 34 14 58q29 50 86 50q18 0 39 -8q62 -23 62 -104zM642 1576v119q0 17 -22 17t-44 -24t-22 -54t22 -54t44 -24t22 20zM955 1576v119q-2 17 -23 17t-44 -24q-22 -24 -22 -54t22 -54t44 -24t23 20z" />
    <glyph glyph-name="Aring" unicode="&#xc5;" horiz-adv-x="1543" 
d="M321 228q0 -56 23 -94q45 -73 193 -103v-31h-519v30q92 30 160 110t144 251l442 1000h26l481 -1081q4 -3 6 -9t7 -17l44 -91q36 -73 82 -110t115 -52v-31h-638v31q83 6 116 19q72 27 72 94q0 32 -32 108l-111 253h-515l-56 -128q-40 -93 -40 -149zM435 547h478l-241 543z
M1119 140q0 -38 -49 -89h264q-46 43 -80 99t-75 149l-429 965l-57 -131l395 -889q31 -66 31 -104zM281 195q0 20 1 27q-32 -62 -62 -98t-80 -73h203q-62 73 -62 144zM593 1630q-1 68 55 118t120 50q116 0 171 -84q25 -38 25 -96t-54 -107q-54 -50 -130 -50t-131 50
q-56 50 -56 119zM714 1632q0 -66 18 -106t47 -40t47 40q17 42 17 106q-1 64 -17 106q-16 40 -46 40t-48 -40t-18 -106zM622 1630q0 -88 88 -134q-47 41 -47 131t47 136q-88 -45 -88 -133zM911 1629q0 44 -21 81q-22 36 -59 52q39 -38 39 -130t-47 -136q88 43 88 133z" />
    <glyph glyph-name="AE" unicode="&#xc6;" horiz-adv-x="2147" 
d="M1560 1328h-28q-172 0 -217 -91q-23 -47 -23 -128v-340h119q151 -1 221 47t94 172h30v-506h-30q-30 147 -94 198q-65 50 -219 50h-121v-433q0 -98 18 -151t65 -74t130 -21h79q137 0 273 94t258 263h34l-117 -408h-1168v31q166 29 188 155q8 42 8 119v296h-482l-158 -231
q-30 -43 -50 -93t-19 -82q0 -128 200 -164v-31h-519v30q90 29 177 124q45 51 100 130l699 1009q-60 34 -145 41l2 31h1124l37 -372h-31q-79 258 -278 315q-69 20 -157 20zM1060 643v657l-455 -657h455zM299 186v25q-37 -57 -67 -91t-79 -69h204q-58 55 -58 135zM1929 1195
l-16 133h-156q55 -22 93 -51t79 -82zM1683 683v129q-39 -39 -111 -64q60 -17 111 -65zM1775 51h186l55 186q-101 -120 -241 -186zM1204 165v44q-1 2 -1 6v935q0 4 1 6v44q0 30 10 45t44 40l57 42h-217v-1112q0 -11 -1 -17v-33q0 -30 -10 -45t-43 -40l-39 -29h292l-39 29
q-35 27 -45 41q-9 14 -9 44z" />
    <glyph glyph-name="Ccedilla" unicode="&#xc7;" horiz-adv-x="1477" 
d="M1451 423q-167 -439 -649 -451h-6l-55 -72q10 0 15 1h15q55 1 99 -25q94 -54 95 -165q1 -56 -29 -103q-64 -102 -189 -102q-92 0 -190 84l25 33q80 -69 136 -69t94 35q35 35 35 83t-33 81q-34 31 -74 31t-84 -14l-32 30l127 173h-7q-140 9 -240 44t-186 105
q-166 139 -223 343q-29 102 -29 208q0 198 101 364t277 260t390 94q87 0 210 -22q122 -22 162 -22t56 3l117 -357h-34q-97 187 -211 271q-114 85 -255 85q-264 0 -419 -172q-158 -175 -158 -435q0 -193 76 -354t212 -253q135 -92 299 -92q228 0 346 127t175 253h41zM205 698
q0 118 18 196q54 234 312 410q-205 -91 -318 -255t-113 -381t123 -397q168 -246 520 -265q-261 70 -402 255q-70 91 -104 205q-36 114 -36 232zM752 -191q44 1 84 -37t41 -86t-17 -78q-18 -29 -63 -63q125 47 125 156q0 71 -50 115t-127 43q-20 0 -45 -4l-38 -51l5 -6
q41 11 85 11z" />
    <glyph glyph-name="Egrave" unicode="&#xc8;" horiz-adv-x="1351" 
d="M55 1365h1138l38 -372h-32q-52 172 -154 254q-103 81 -267 81h-56q-130 0 -185 -50t-55 -169v-340h133q151 -1 221 47t94 172h30v-506h-30q-19 100 -53 152q-35 52 -95 74t-164 22h-136v-433q0 -100 18 -152t66 -73q47 -21 130 -21h92q137 0 273 94t258 263h35l-118 -408
h-1181v31q107 18 151 75t44 199v755q0 93 -10 134t-37 68q-49 55 -148 72v31zM1140 1195l-22 133h-144q54 -22 88 -48t78 -85zM888 683v129q-31 -28 -44 -36t-64 -28q57 -17 108 -65zM979 51h186l56 186q-111 -124 -242 -186zM395 165v22q-1 3 -1 11v969q0 8 1 12v21
q0 30 10 46t43 39l57 42h-328l57 -42q33 -25 43 -40q11 -16 11 -78v-969q0 -62 -9 -77q-9 -14 -45 -41l-39 -29h292l-39 29q-34 26 -44 40t-9 45zM739 1498l-241 262h202l77 -262h-38zM562 1733l145 -160l-62 160h-83z" />
    <glyph glyph-name="Eacute" unicode="&#xc9;" horiz-adv-x="1351" 
d="M55 1365h1138l38 -372h-32q-52 172 -154 254q-103 81 -267 81h-56q-130 0 -185 -50t-55 -169v-340h133q151 -1 221 47t94 172h30v-506h-30q-19 100 -53 152q-35 52 -95 74t-164 22h-136v-433q0 -100 18 -152t66 -73q47 -21 130 -21h92q137 0 273 94t258 263h35l-118 -408
h-1181v31q107 18 151 75t44 199v755q0 93 -10 134t-37 68q-49 55 -148 72v31zM1140 1195l-22 133h-144q54 -22 88 -48t78 -85zM888 683v129q-31 -28 -44 -36t-64 -28q57 -17 108 -65zM979 51h186l56 186q-111 -124 -242 -186zM395 165v22q-1 3 -1 11v969q0 8 1 12v21
q0 30 10 46t43 39l57 42h-328l57 -42q33 -25 43 -40q11 -16 11 -78v-969q0 -62 -9 -77q-9 -14 -45 -41l-39 -29h292l-39 29q-34 26 -44 40t-9 45zM685 1760h201l-241 -262h-38zM705 1733l-50 -160l133 160h-83z" />
    <glyph glyph-name="Ecircumflex" unicode="&#xca;" horiz-adv-x="1351" 
d="M55 1365h1138l38 -372h-32q-52 172 -154 254q-103 81 -267 81h-56q-130 0 -185 -50t-55 -169v-340h133q151 -1 221 47t94 172h30v-506h-30q-19 100 -53 152q-35 52 -95 74t-164 22h-136v-433q0 -100 18 -152t66 -73q47 -21 130 -21h92q137 0 273 94t258 263h35l-118 -408
h-1181v31q107 18 151 75t44 199v755q0 93 -10 134t-37 68q-49 55 -148 72v31zM1140 1195l-22 133h-144q54 -22 88 -48t78 -85zM888 683v129q-31 -28 -44 -36t-64 -28q57 -17 108 -65zM979 51h186l56 186q-111 -124 -242 -186zM395 165v22q-1 3 -1 11v969q0 8 1 12v21
q0 30 10 46t43 39l57 42h-328l57 -42q33 -25 43 -40q11 -16 11 -78v-969q0 -62 -9 -77q-9 -14 -45 -41l-39 -29h292l-39 29q-34 26 -44 40t-9 45zM955 1510l-273 104l-273 -104l-20 35l293 228l292 -228zM679 1645l137 -53l-157 124l-218 -165z" />
    <glyph glyph-name="Edieresis" unicode="&#xcb;" horiz-adv-x="1351" 
d="M55 1365h1138l38 -372h-32q-52 172 -154 254q-103 81 -267 81h-56q-130 0 -185 -50t-55 -169v-340h133q151 -1 221 47t94 172h30v-506h-30q-19 100 -53 152q-35 52 -95 74t-164 22h-136v-433q0 -100 18 -152t66 -73q47 -21 130 -21h92q137 0 273 94t258 263h35l-118 -408
h-1181v31q107 18 151 75t44 199v755q0 93 -10 134t-37 68q-49 55 -148 72v31zM1140 1195l-22 133h-144q54 -22 88 -48t78 -85zM888 683v129q-31 -28 -44 -36t-64 -28q57 -17 108 -65zM979 51h186l56 186q-111 -124 -242 -186zM395 165v22q-1 3 -1 11v969q0 8 1 12v21
q0 30 10 46t43 39l57 42h-328l57 -42q33 -25 43 -40q11 -16 11 -78v-969q0 -62 -9 -77q-9 -14 -45 -41l-39 -29h292l-39 29q-34 26 -44 40t-9 45zM402 1634q0 40 30 70t59 30t49 -8q62 -24 63 -92q1 -42 -29 -72t-71 -29q-41 0 -71 30t-30 71zM916 1622q0 -31 -30 -60
t-70 -29t-70 29t-31 64q0 34 14 58q29 50 86 50q18 0 39 -8q62 -23 62 -104zM519 1576v119q1 17 -21 17t-45 -24q-22 -24 -22 -54t22 -54t44 -24t22 20zM832 1576v119q-2 17 -23 17t-44 -24q-22 -24 -22 -54t22 -54q23 -24 45 -24t22 20z" />
    <glyph glyph-name="Igrave" unicode="&#xcc;" horiz-adv-x="733" 
d="M678 0h-623v31q107 18 151 75t44 199v755q0 93 -10 134t-37 68q-49 55 -148 72v31h623v-31q-161 -27 -187 -152q-9 -43 -9 -122v-755q0 -148 48 -203q48 -54 148 -71v-31zM395 165v22q-1 3 -1 11v969q0 8 1 12v21q-1 32 9 46t44 39l57 42h-328l57 -42q35 -26 44 -39
q10 -14 10 -79v-969q0 -62 -9 -77q-9 -14 -45 -41l-39 -29h292l-39 29q-34 26 -44 40t-9 45zM370 1498l-241 262h202l77 -262h-38zM193 1733l145 -160l-62 160h-83z" />
    <glyph glyph-name="Iacute" unicode="&#xcd;" horiz-adv-x="733" 
d="M678 0h-623v31q107 18 151 75t44 199v755q0 93 -10 134t-37 68q-49 55 -148 72v31h623v-31q-161 -27 -187 -152q-9 -43 -9 -122v-755q0 -148 48 -203q48 -54 148 -71v-31zM395 165v22q-1 3 -1 11v969q0 8 1 12v21q-1 32 9 46t44 39l57 42h-328l57 -42q35 -26 44 -39
q10 -14 10 -79v-969q0 -62 -9 -77q-9 -14 -45 -41l-39 -29h292l-39 29q-34 26 -44 40t-9 45zM357 1760h201l-241 -262h-38zM377 1733l-50 -160l133 160h-83z" />
    <glyph glyph-name="Icircumflex" unicode="&#xce;" horiz-adv-x="733" 
d="M678 0h-623v31q107 18 151 75t44 199v755q0 93 -10 134t-37 68q-49 55 -148 72v31h623v-31q-161 -27 -187 -152q-9 -43 -9 -122v-755q0 -148 48 -203q48 -54 148 -71v-31zM395 165v22q-1 3 -1 11v969q0 8 1 12v21q-1 32 9 46t44 39l57 42h-328l57 -42q35 -26 44 -39
q10 -14 10 -79v-969q0 -62 -9 -77q-9 -14 -45 -41l-39 -29h292l-39 29q-34 26 -44 40t-9 45zM641 1510l-273 104l-273 -104l-20 35l293 228l292 -228zM365 1645l137 -53l-157 124l-218 -165z" />
    <glyph glyph-name="Idieresis" unicode="&#xcf;" horiz-adv-x="733" 
d="M678 0h-623v31q107 18 151 75t44 199v755q0 93 -10 134t-37 68q-49 55 -148 72v31h623v-31q-161 -27 -187 -152q-9 -43 -9 -122v-755q0 -148 48 -203q48 -54 148 -71v-31zM395 165v22q-1 3 -1 11v969q0 8 1 12v21q-1 32 9 46t44 39l57 42h-328l57 -42q35 -26 44 -39
q10 -14 10 -79v-969q0 -62 -9 -77q-9 -14 -45 -41l-39 -29h292l-39 29q-34 26 -44 40t-9 45zM116 1631q0 41 30 71t59 29q29 1 49 -7q62 -24 63 -93q1 -41 -29 -71t-71 -30t-71 30t-30 71zM630 1619q0 -31 -30 -60t-70 -29t-70 29t-31 64q0 35 14 59q29 50 86 49q18 0 39 -8
q62 -23 62 -104zM233 1573v119q1 17 -21 17t-45 -24q-22 -25 -22 -55t22 -53q22 -24 44 -24t22 20zM546 1573v119q-2 17 -23 17t-44 -24q-22 -25 -22 -55t22 -53q23 -24 45 -24t22 20z" />
    <glyph glyph-name="Ntilde" unicode="&#xd1;" horiz-adv-x="1667" 
d="M1437 1006v-1038h-30l-1098 1169l1 -671q0 -199 55 -297q67 -109 221 -138v-31h-523v31q135 50 180 189q28 77 28 242v716q-81 81 -121 110t-95 46v31h388q25 -43 41 -61t28 -32t16 -20q6 -6 11 -13q5 -6 9 -11t6 -7l845 -903v688q0 104 -26 172q-50 131 -233 156v31h477
v-31q-107 -29 -143 -96t-37 -232zM303 1201l1096 -1170v157l-938 1002q-65 68 -103 137h-204q71 -42 149 -126zM1469 1327h-192q48 -24 73 -49t49 -73q28 76 70 122zM172 51h204q-68 73 -99 157q-21 -54 -42 -86t-63 -71zM1166 1720q-66 -189 -181 -189q-55 0 -126 23
l-54 17q-96 32 -138 32q-67 0 -113 -64l-29 12q71 185 192 185q37 0 129 -30t115 -35t52 -5q74 0 124 65zM678 1654q42 0 130 -28q90 -28 121 -38q31 -8 61 -8q55 0 114 78q-48 -22 -86 -22t-68 8t-118 35q-87 28 -123 28q-66 0 -129 -92q56 39 98 39z" />
    <glyph glyph-name="Ograve" unicode="&#xd2;" horiz-adv-x="1565" 
d="M66 681q0 144 56 276q56 131 154 231q100 100 232 155t300 55q170 0 334 -97t260 -261t97 -359q0 -143 -55 -275t-154 -230q-99 -99 -229 -155t-275 -56q-196 0 -362 96q-166 97 -262 261t-96 359zM785 19q172 0 299 136q77 83 120 221t43 301q0 321 -126 501
q-126 181 -338 181q-211 0 -338 -184t-127 -487t128 -486q127 -183 339 -183zM216 688q0 210 64 356t201 249q-245 -132 -332 -364q-45 -115 -45 -246t44 -247q90 -237 333 -370q-265 199 -265 622zM1396 681q0 264 -155 460q-75 92 -175 147q219 -192 219 -598
q0 -244 -81 -417q-39 -81 -82 -125t-92 -83q366 212 366 616zM837 1498l-241 262h202l77 -262h-38zM660 1733l145 -160l-62 160h-83z" />
    <glyph glyph-name="Oacute" unicode="&#xd3;" horiz-adv-x="1565" 
d="M66 681q0 144 56 276q56 131 154 231q100 100 232 155t300 55q170 0 334 -97t260 -261t97 -359q0 -143 -55 -275t-154 -230q-99 -99 -229 -155t-275 -56q-196 0 -362 96q-166 97 -262 261t-96 359zM785 19q172 0 299 136q77 83 120 221t43 301q0 321 -126 501
q-126 181 -338 181q-211 0 -338 -184t-127 -487t128 -486q127 -183 339 -183zM216 688q0 210 64 356t201 249q-245 -132 -332 -364q-45 -115 -45 -246t44 -247q90 -237 333 -370q-265 199 -265 622zM1396 681q0 264 -155 460q-75 92 -175 147q219 -192 219 -598
q0 -244 -81 -417q-39 -81 -82 -125t-92 -83q366 212 366 616zM822 1760h201l-241 -262h-38zM842 1733l-50 -160l133 160h-83z" />
    <glyph glyph-name="Ocircumflex" unicode="&#xd4;" horiz-adv-x="1565" 
d="M66 681q0 144 56 276q56 131 154 231q100 100 232 155t300 55q170 0 334 -97t260 -261t97 -359q0 -143 -55 -275t-154 -230q-99 -99 -229 -155t-275 -56q-196 0 -362 96q-166 97 -262 261t-96 359zM785 19q172 0 299 136q77 83 120 221t43 301q0 321 -126 501
q-126 181 -338 181q-211 0 -338 -184t-127 -487t128 -486q127 -183 339 -183zM216 688q0 210 64 356t201 249q-245 -132 -332 -364q-45 -115 -45 -246t44 -247q90 -237 333 -370q-265 199 -265 622zM1396 681q0 264 -155 460q-75 92 -175 147q219 -192 219 -598
q0 -244 -81 -417q-39 -81 -82 -125t-92 -83q366 212 366 616zM1047 1510l-273 104l-273 -104l-20 35l293 228l292 -228zM771 1645l137 -53l-157 124l-218 -165z" />
    <glyph glyph-name="Otilde" unicode="&#xd5;" horiz-adv-x="1565" 
d="M66 681q0 144 56 276q56 131 154 231q100 100 232 155t300 55q170 0 334 -97t260 -261t97 -359q0 -143 -55 -275t-154 -230q-99 -99 -229 -155t-275 -56q-196 0 -362 96q-166 97 -262 261t-96 359zM785 19q172 0 299 136q77 83 120 221t43 301q0 321 -126 501
q-126 181 -338 181q-211 0 -338 -184t-127 -487t128 -486q127 -183 339 -183zM216 688q0 210 64 356t201 249q-245 -132 -332 -364q-45 -115 -45 -246t44 -247q90 -237 333 -370q-265 199 -265 622zM1396 681q0 264 -155 460q-75 92 -175 147q219 -192 219 -598
q0 -244 -81 -417q-39 -81 -82 -125t-92 -83q366 212 366 616zM1101 1720q-66 -189 -181 -189q-55 0 -126 23l-54 17q-96 32 -138 32q-67 0 -113 -64l-29 12q71 185 192 185q38 0 130 -30t114 -35q23 -5 52 -5q74 0 124 65zM612 1654q42 0 132 -28t120 -38q32 -8 62 -8
q55 0 113 78q-48 -22 -86 -22q-39 0 -69 8t-117 35q-87 28 -123 28q-66 0 -129 -92q55 39 97 39z" />
    <glyph glyph-name="Odieresis" unicode="&#xd6;" horiz-adv-x="1565" 
d="M66 681q0 144 56 276q56 131 154 231q100 100 232 155t300 55q170 0 334 -97t260 -261t97 -359q0 -143 -55 -275t-154 -230q-99 -99 -229 -155t-275 -56q-196 0 -362 96q-166 97 -262 261t-96 359zM785 19q172 0 299 136q77 83 120 221t43 301q0 321 -126 501
q-126 181 -338 181q-211 0 -338 -184t-127 -487t128 -486q127 -183 339 -183zM216 688q0 210 64 356t201 249q-245 -132 -332 -364q-45 -115 -45 -246t44 -247q90 -237 333 -370q-265 199 -265 622zM1396 681q0 264 -155 460q-75 92 -175 147q219 -192 219 -598
q0 -244 -81 -417q-39 -81 -82 -125t-92 -83q366 212 366 616zM525 1631q-1 41 29 71t60 29q30 1 50 -7q62 -24 62 -93q0 -41 -30 -71t-70 -30q-41 0 -71 30t-30 71zM1039 1619q-1 -31 -31 -60t-70 -29t-70 29t-30 64t14 59q29 50 86 49q18 0 39 -8q62 -23 62 -104zM642 1573
v119q0 17 -22 17t-44 -24q-22 -25 -22 -55t22 -53q22 -24 44 -24t22 20zM955 1573v119q-2 17 -23 17t-44 -24q-22 -25 -22 -55t22 -53q22 -24 44 -24t23 20z" />
    <glyph glyph-name="multiply" unicode="&#xd7;" horiz-adv-x="0" 
 />
    <glyph glyph-name="multiply" unicode="&#xfd;" horiz-adv-x="0" 
 />
    <glyph glyph-name="Oslash" unicode="&#xd8;" horiz-adv-x="1565" 
d="M66 681q0 144 56 276q56 131 154 231q100 100 232 155t275 55q208 0 389 -115l5 -4l95 135l33 -23l-94 -135q137 -102 213 -252t75 -308q0 -158 -55 -290t-154 -230.5t-229 -154.5t-275 -56q-217 0 -397 117l-101 -145l-34 24l101 144q-289 231 -289 576zM434 217
l679 971q-127 171 -334 171q-208 0 -333 -181q-128 -185 -128 -480q0 -296 116 -481zM772 19q185 0 312 136q163 175 163 535q0 280 -109 461l-679 -970q128 -162 313 -162zM216 688q0 210 64 356t201 249q-245 -132 -332 -364q-45 -115 -45 -246t44 -247q90 -237 333 -370
q-265 199 -265 622zM1396 681q0 264 -155 460q-75 92 -175 147q219 -192 219 -598q0 -244 -81 -417q-39 -81 -82 -125t-92 -83q366 212 366 616z" />
    <glyph glyph-name="Ugrave" unicode="&#xd9;" horiz-adv-x="1544" 
d="M43 1365h636v-31q-116 -18 -168 -82q-25 -33 -33 -74t-8 -118v-587q0 -305 234 -399q81 -34 191 -34q111 0 205 64t137 172t43 272v465q0 171 -72 239t-169 82v31h465v-31q-131 -36 -166 -149q-18 -58 -18 -148v-488q0 -218 -64 -331q-92 -164 -278 -221
q-94 -29 -202 -29t-202 32q-194 66 -280 243q-56 118 -56 336v481q0 86 -9 129q-30 118 -186 145v31zM1349 1327h-176q73 -42 106 -110q28 66 70 110zM275 1200q0 -30 1 -33v-576q0 -71 12 -173q23 -193 152 -305t331 -114q-203 44 -305 180q-48 62 -66 141t-18 212v668
q2 32 12 48t42 37l61 42h-336l61 -42q30 -19 42 -37q11 -18 11 -48zM862 1498l-241 262h202l77 -262h-38zM685 1733l145 -160l-62 160h-83z" />
    <glyph glyph-name="Uacute" unicode="&#xda;" horiz-adv-x="1544" 
d="M43 1365h636v-31q-116 -18 -168 -82q-25 -33 -33 -74t-8 -118v-587q0 -305 234 -399q81 -34 191 -34q111 0 205 64t137 172t43 272v465q0 171 -72 239t-169 82v31h465v-31q-131 -36 -166 -149q-18 -58 -18 -148v-488q0 -218 -64 -331q-92 -164 -278 -221
q-94 -29 -202 -29t-202 32q-194 66 -280 243q-56 118 -56 336v481q0 86 -9 129q-30 118 -186 145v31zM1349 1327h-176q73 -42 106 -110q28 66 70 110zM275 1200q0 -30 1 -33v-576q0 -71 12 -173q23 -193 152 -305t331 -114q-203 44 -305 180q-48 62 -66 141t-18 212v668
q2 32 12 48t42 37l61 42h-336l61 -42q30 -19 42 -37q11 -18 11 -48zM863 1760h201l-241 -262h-38zM883 1733l-50 -160l133 160h-83z" />
    <glyph glyph-name="Ucircumflex" unicode="&#xdb;" horiz-adv-x="1544" 
d="M43 1365h636v-31q-116 -18 -168 -82q-25 -33 -33 -74t-8 -118v-587q0 -305 234 -399q81 -34 191 -34q111 0 205 64t137 172t43 272v465q0 171 -72 239t-169 82v31h465v-31q-131 -36 -166 -149q-18 -58 -18 -148v-488q0 -218 -64 -331q-92 -164 -278 -221
q-94 -29 -202 -29t-202 32q-194 66 -280 243q-56 118 -56 336v481q0 86 -9 129q-30 118 -186 145v31zM1349 1327h-176q73 -42 106 -110q28 66 70 110zM275 1200q0 -30 1 -33v-576q0 -71 12 -173q23 -193 152 -305t331 -114q-203 44 -305 180q-48 62 -66 141t-18 212v668
q2 32 12 48t42 37l61 42h-336l61 -42q30 -19 42 -37q11 -18 11 -48zM1105 1510l-273 104l-273 -104l-20 35l293 228l292 -228zM829 1645l137 -53l-157 124l-218 -165z" />
    <glyph glyph-name="Udieresis" unicode="&#xdc;" horiz-adv-x="1544" 
d="M43 1365h636v-31q-116 -18 -168 -82q-25 -33 -33 -74t-8 -118v-587q0 -305 234 -399q81 -34 191 -34q111 0 205 64t137 172t43 272v465q0 171 -72 239t-169 82v31h465v-31q-131 -36 -166 -149q-18 -58 -18 -148v-488q0 -218 -64 -331q-92 -164 -278 -221
q-94 -29 -202 -29t-202 32q-194 66 -280 243q-56 118 -56 336v481q0 86 -9 129q-30 118 -186 145v31zM1349 1327h-176q73 -42 106 -110q28 66 70 110zM275 1200q0 -30 1 -33v-576q0 -71 12 -173q23 -193 152 -305t331 -114q-203 44 -305 180q-48 62 -66 141t-18 212v668
q2 32 12 48t42 37l61 42h-336l61 -42q30 -19 42 -37q11 -18 11 -48zM566 1629q0 41 30 71t59 29q29 1 49 -7q62 -24 63 -93q1 -41 -29 -71t-71 -30t-71 30t-30 71zM1080 1617q0 -31 -30 -60t-70 -29t-70 29t-31 64q0 35 14 59q29 50 86 49q18 0 39 -8q62 -23 62 -104z
M683 1571v119q1 17 -21 17t-45 -24q-22 -25 -22 -55t22 -53q22 -24 44 -24t22 20zM996 1571v119q-2 17 -23 17t-44 -24q-22 -25 -22 -55t22 -53q23 -24 45 -24t22 20z" />
    <glyph glyph-name="germandbls" unicode="&#xdf;" horiz-adv-x="981" 
d="M605 1095q0 254 -117 254q-85 0 -104 -130q-10 -72 -13 -220v-51q-1 -11 -1 -37v-911h-322v27q67 12 93 47q24 35 24 118v597h-84v30h84v81q0 227 51 327q81 159 283 159q138 0 224 -83q87 -83 87 -218q0 -93 -40 -157t-136 -114q92 -26 160 -82q136 -112 136 -299
q0 -119 -60 -221t-166 -158q-104 -56 -230 -56q-29 0 -49 3v26q83 3 149 56t100 143q36 90 36 203q0 172 -67 264q-68 92 -197 98v26q87 3 123 66t36 212zM292 44v837q0 167 9 251t33 132t72 86q-132 -51 -170 -160q-36 -95 -36 -320v-727q0 -42 -4 -52q-4 -11 -16 -19
q-10 -8 -11 -8.5t-2 -1.5l-22 -18h147zM843 436q0 98 -36 176q-76 159 -273 189q77 -32 123 -79q90 -92 90 -293q0 -284 -203 -398q92 24 159 82q140 120 140 323zM641 1094q-1 -112 -21 -174t-72 -105q86 32 134 102q47 70 47 168q0 202 -177 265q89 -71 89 -256z" />
    <glyph glyph-name="agrave" unicode="&#xe0;" horiz-adv-x="924" 
d="M564 0v93q-124 -104 -250 -104t-194 59t-68 153q0 136 132 212t380 87v42q0 150 -21 191q-21 40 -48 58q-29 17 -68 17t-66 -30t-34 -94q-7 -63 -25 -86t-58 -23q-39 1 -62 25t-23 68q-1 44 37 86q80 88 246 89q100 0 176 -40q118 -62 143 -196q8 -50 8 -127v-288
q1 -84 25 -118t92 -47v-27h-322zM254 210q0 -66 40 -110t106 -43q66 0 164 80v331q-196 -31 -273 -139q-37 -53 -37 -119zM691 113v20l-1 10v340q0 138 -32 208q-46 93 -141 118q64 -45 75 -143q6 -60 6 -186v-436h148l-23 18v1q0 2 -4 2q-28 22 -28 48zM86 202
q0 -82 60 -134t157 -52q29 0 41 1q-170 35 -170 186q0 98 79 168q33 30 135 79q-302 -55 -302 -248zM189 663q0 -46 33 -46q14 0 21 8q7 7 15 49t24 70t62 63q-71 -18 -113 -58t-42 -86zM466 977l-241 262h202l77 -262h-38zM289 1212l145 -160l-62 160h-83z" />
    <glyph glyph-name="aacute" unicode="&#xe1;" horiz-adv-x="924" 
d="M564 0v93q-124 -104 -250 -104t-194 59t-68 153q0 136 132 212t380 87v42q0 150 -21 191q-21 40 -48 58q-29 17 -68 17t-66 -30t-34 -94q-7 -63 -25 -86t-58 -23q-39 1 -62 25t-23 68q-1 44 37 86q80 88 246 89q100 0 176 -40q118 -62 143 -196q8 -50 8 -127v-288
q1 -84 25 -118t92 -47v-27h-322zM254 210q0 -66 40 -110t106 -43q66 0 164 80v331q-196 -31 -273 -139q-37 -53 -37 -119zM691 113v20l-1 10v340q0 138 -32 208q-46 93 -141 118q64 -45 75 -143q6 -60 6 -186v-436h148l-23 18v1q0 2 -4 2q-28 22 -28 48zM86 202
q0 -82 60 -134t157 -52q29 0 41 1q-170 35 -170 186q0 98 79 168q33 30 135 79q-302 -55 -302 -248zM189 663q0 -46 33 -46q14 0 21 8q7 7 15 49t24 70t62 63q-71 -18 -113 -58t-42 -86zM480 1239h201l-241 -262h-38zM500 1212l-50 -160l133 160h-83z" />
    <glyph glyph-name="acircumflex" unicode="&#xe2;" horiz-adv-x="924" 
d="M564 0v93q-124 -104 -250 -104t-194 59t-68 153q0 136 132 212t380 87v42q0 150 -21 191q-21 40 -48 58q-29 17 -68 17t-66 -30t-34 -94q-7 -63 -25 -86t-58 -23q-39 1 -62 25t-23 68q-1 44 37 86q80 88 246 89q100 0 176 -40q118 -62 143 -196q8 -50 8 -127v-288
q1 -84 25 -118t92 -47v-27h-322zM254 210q0 -66 40 -110t106 -43q66 0 164 80v331q-196 -31 -273 -139q-37 -53 -37 -119zM691 113v20l-1 10v340q0 138 -32 208q-46 93 -141 118q64 -45 75 -143q6 -60 6 -186v-436h148l-23 18v1q0 2 -4 2q-28 22 -28 48zM86 202
q0 -82 60 -134t157 -52q29 0 41 1q-170 35 -170 186q0 98 79 168q33 30 135 79q-302 -55 -302 -248zM189 663q0 -46 33 -46q14 0 21 8q7 7 15 49t24 70t62 63q-71 -18 -113 -58t-42 -86zM736 989l-273 104l-273 -104l-20 35l293 228l292 -228zM460 1124l137 -53l-157 124
l-218 -165z" />
    <glyph glyph-name="atilde" unicode="&#xe3;" horiz-adv-x="924" 
d="M564 0v93q-124 -104 -250 -104t-194 59t-68 153q0 136 132 212t380 87v42q0 150 -21 191q-21 40 -48 58q-29 17 -68 17t-66 -30t-34 -94q-7 -63 -25 -86t-58 -23q-39 1 -62 25t-23 68q-1 44 37 86q80 88 246 89q100 0 176 -40q118 -62 143 -196q8 -50 8 -127v-288
q1 -84 25 -118t92 -47v-27h-322zM254 210q0 -66 40 -110t106 -43q66 0 164 80v331q-196 -31 -273 -139q-37 -53 -37 -119zM691 113v20l-1 10v340q0 138 -32 208q-46 93 -141 118q64 -45 75 -143q6 -60 6 -186v-436h148l-23 18v1q0 2 -4 2q-28 22 -28 48zM86 202
q0 -82 60 -134t157 -52q29 0 41 1q-170 35 -170 186q0 98 79 168q33 30 135 79q-302 -55 -302 -248zM189 663q0 -46 33 -46q14 0 21 8q7 7 15 49t24 70t62 63q-71 -18 -113 -58t-42 -86zM784 1199q-66 -189 -181 -189q-55 0 -126 23l-54 17q-96 32 -138 32q-67 0 -113 -64
l-29 12q71 185 192 185q37 0 129 -30t115 -35t52 -5q74 0 124 65zM296 1133q42 -1 130 -29q90 -28 121 -36t61 -9q55 0 114 78q-48 -22 -86 -22q-38 -1 -68 7t-118 36q-87 28 -123 28q-66 0 -129 -92q56 39 98 39z" />
    <glyph glyph-name="adieresis" unicode="&#xe4;" horiz-adv-x="924" 
d="M564 0v93q-124 -104 -250 -104t-194 59t-68 153q0 136 132 212t380 87v42q0 150 -21 191q-21 40 -48 58q-29 17 -68 17t-66 -30t-34 -94q-7 -63 -25 -86t-58 -23q-39 1 -62 25t-23 68q-1 44 37 86q80 88 246 89q100 0 176 -40q118 -62 143 -196q8 -50 8 -127v-288
q1 -84 25 -118t92 -47v-27h-322zM254 210q0 -66 40 -110t106 -43q66 0 164 80v331q-196 -31 -273 -139q-37 -53 -37 -119zM691 113v20l-1 10v340q0 138 -32 208q-46 93 -141 118q64 -45 75 -143q6 -60 6 -186v-436h148l-23 18v1q0 2 -4 2q-28 22 -28 48zM86 202
q0 -82 60 -134t157 -52q29 0 41 1q-170 35 -170 186q0 98 79 168q33 30 135 79q-302 -55 -302 -248zM189 663q0 -46 33 -46q14 0 21 8q7 7 15 49t24 70t62 63q-71 -18 -113 -58t-42 -86zM184 1110q0 40 30 70t59 30t49 -8q62 -24 63 -92q1 -42 -29 -72t-71 -29q-41 0 -71 30
t-30 71zM698 1098q0 -31 -30 -60t-70 -29t-70 29t-31 64q0 34 14 58q29 50 86 50q18 0 39 -8q62 -23 62 -104zM301 1052v119q1 17 -21 17t-45 -24q-22 -24 -22 -54t22 -54t44 -24t22 20zM614 1052v119q-2 17 -23 17t-44 -24q-22 -24 -22 -54t22 -54q23 -24 45 -24t22 20z
" />
    <glyph glyph-name="aring" unicode="&#xe5;" horiz-adv-x="924" 
d="M564 0v93q-124 -104 -250 -104t-194 59t-68 153q0 136 132 212t380 87v42q0 150 -21 191q-21 40 -48 58q-29 17 -68 17t-66 -30t-34 -94q-7 -63 -25 -86t-58 -23q-39 1 -62 25t-23 68q-1 44 37 86q80 88 246 89q100 0 176 -40q118 -62 143 -196q8 -50 8 -127v-288
q1 -84 25 -118t92 -47v-27h-322zM254 210q0 -66 40 -110t106 -43q66 0 164 80v331q-196 -31 -273 -139q-37 -53 -37 -119zM691 113v20l-1 10v340q0 138 -32 208q-46 93 -141 118q64 -45 75 -143q6 -60 6 -186v-436h148l-23 18v1q0 2 -4 2q-28 22 -28 48zM86 202
q0 -82 60 -134t157 -52q29 0 41 1q-170 35 -170 186q0 98 79 168q33 30 135 79q-302 -55 -302 -248zM189 663q0 -46 33 -46q14 0 21 8q7 7 15 49t24 70t62 63q-71 -18 -113 -58t-42 -86zM252 1109q0 69 56 119t119 49q116 0 171 -84q25 -37 25 -95t-54 -108
q-53 -50 -129 -50t-132 50t-56 119zM373 1111q0 -67 18 -107t47 -39q29 0 47 40q17 43 17 107t-16 104t-48 41q-30 1 -48 -39t-17 -107zM281 1109q0 -88 88 -134q-47 41 -47 131t47 136q-88 -45 -88 -133zM570 1108q0 44 -21 81q-22 36 -59 52q39 -39 39 -131t-47 -135
q88 43 88 133z" />
    <glyph glyph-name="ae" unicode="&#xe6;" horiz-adv-x="1425" 
d="M45 194q0 92 53 154q107 122 472 146q0 154 -16 206t-54 82q-39 28 -90 28q-50 0 -74 -28t-32 -94q-8 -64 -22 -88t-53 -25q-39 0 -61 25t-23 71q1 47 35 87q73 86 237 85q109 0 193 -39t121 -105q31 61 107 101t171 41t181 -43t136 -121t56 -209h-592v-23
q0 -246 131 -348q61 -49 144 -49q133 0 288 121l19 -27q-100 -86 -195 -126t-205 -39q-216 0 -329 165q-188 -159 -349 -159q-111 -1 -180 59t-69 152zM570 399v64q-154 -25 -238 -91t-84 -163q0 -65 40 -108t86 -43t91 13t159 100q-54 115 -54 228zM604 441q0 -140 26 -202
t54 -95q48 -62 128 -100t172 -38q12 0 17 1h23q-91 12 -146 43t-100 93q-44 62 -60 125q-16 64 -18 182t-10 158q-6 40 -30 83q-52 92 -165 118q63 -31 87 -94t23 -197l-1 -51v-26zM336 12q-169 36 -169 202q0 84 76 153q26 25 130 79q-295 -61 -295 -240q0 -88 62 -142
t155 -54zM1178 504q0 134 -26 190t-66 85q-43 29 -95 29q-189 0 -201 -304h388zM1225 501h86q-4 112 -56 191q-53 77 -139 104q59 -47 84 -109t25 -158v-28zM176 662q0 -46 31 -45q13 0 20 9t13 48q12 79 76 133q-62 -19 -101 -59t-39 -86z" />
    <glyph glyph-name="ccedilla" unicode="&#xe7;" horiz-adv-x="863" 
d="M825 620q1 -109 -93 -109q-46 0 -74 52q-10 21 -18 89t-26 97q-37 59 -110 59q-146 0 -208 -182q-29 -88 -29 -200q-1 -112 33 -202q69 -184 231 -183q128 0 268 161l23 -28q-116 -134 -220 -173q-54 -20 -123 -23l-34 -46q5 1 17 1q65 1 108 -39t43 -90q0 -97 -81 -139
q-38 -20 -96 -20t-128 60l20 27q56 -48 96 -48t64 23t25 57q0 34 -23 54t-51 21q-28 0 -58 -8l-26 27l89 121q-239 10 -343 195q-49 88 -49 192q0 203 131 340q61 64 146 100t174 35q89 1 162 -31t117 -84t43 -106zM446 -136q34 0 65 -26q29 -26 29 -62t-12 -56t-46 -46
q93 34 93 113q0 47 -36 80t-74 33t-52 -3l-28 -36l4 -4q23 7 57 7zM180 412q0 127 37 210q36 83 128 162q-257 -132 -257 -403q0 -163 102 -269t263 -106q-273 71 -273 406zM725 548q33 0 33 48q0 100 -135 188q29 -38 38 -66t17 -82t16 -72q10 -16 31 -16z" />
    <glyph glyph-name="egrave" unicode="&#xe8;" horiz-adv-x="925" 
d="M559 48q135 0 287 142l20 -27q-101 -99 -194 -143t-210 -43t-211 53t-147 146q-52 94 -52 217t58 227t158 162t213 59q114 0 201 -43q183 -90 194 -332h-603v-22q0 -243 135 -347q64 -49 151 -49zM483 808q-192 0 -210 -307h399q-2 136 -26 192q-24 55 -67 85
q-44 30 -96 30zM180 420q0 92 14 156q28 121 128 207q-112 -61 -174 -163t-62 -220t50 -206q50 -90 137 -139t192 -49q30 0 42 1q-69 9 -113 27t-94 64t-85 138t-35 184zM708 567q0 -58 -1 -66h86q-6 149 -93 236q-45 42 -101 59q109 -87 109 -229zM520 977l-241 262h202
l77 -262h-38zM343 1212l145 -160l-62 160h-83z" />
    <glyph glyph-name="eacute" unicode="&#xe9;" horiz-adv-x="925" 
d="M559 48q135 0 287 142l20 -27q-101 -99 -194 -143t-210 -43t-211 53t-147 146q-52 94 -52 217t58 227t158 162t213 59q114 0 201 -43q183 -90 194 -332h-603v-22q0 -243 135 -347q64 -49 151 -49zM483 808q-192 0 -210 -307h399q-2 136 -26 192q-24 55 -67 85
q-44 30 -96 30zM180 420q0 92 14 156q28 121 128 207q-112 -61 -174 -163t-62 -220t50 -206q50 -90 137 -139t192 -49q30 0 42 1q-69 9 -113 27t-94 64t-85 138t-35 184zM708 567q0 -58 -1 -66h86q-6 149 -93 236q-45 42 -101 59q109 -87 109 -229zM535 1239h201l-241 -262
h-38zM555 1212l-50 -160l133 160h-83z" />
    <glyph glyph-name="ecircumflex" unicode="&#xea;" horiz-adv-x="925" 
d="M559 48q135 0 287 142l20 -27q-101 -99 -194 -143t-210 -43t-211 53t-147 146q-52 94 -52 217t58 227t158 162t213 59q114 0 201 -43q183 -90 194 -332h-603v-22q0 -243 135 -347q64 -49 151 -49zM483 808q-192 0 -210 -307h399q-2 136 -26 192q-24 55 -67 85
q-44 30 -96 30zM180 420q0 92 14 156q28 121 128 207q-112 -61 -174 -163t-62 -220t50 -206q50 -90 137 -139t192 -49q30 0 42 1q-69 9 -113 27t-94 64t-85 138t-35 184zM708 567q0 -58 -1 -66h86q-6 149 -93 236q-45 42 -101 59q109 -87 109 -229zM777 989l-273 104
l-273 -104l-20 35l293 228l292 -228zM501 1124l137 -53l-157 124l-218 -165z" />
    <glyph glyph-name="edieresis" unicode="&#xeb;" horiz-adv-x="925" 
d="M559 48q135 0 287 142l20 -27q-101 -99 -194 -143t-210 -43t-211 53t-147 146q-52 94 -52 217t58 227t158 162t213 59q114 0 201 -43q183 -90 194 -332h-603v-22q0 -243 135 -347q64 -49 151 -49zM483 808q-192 0 -210 -307h399q-2 136 -26 192q-24 55 -67 85
q-44 30 -96 30zM180 420q0 92 14 156q28 121 128 207q-112 -61 -174 -163t-62 -220t50 -206q50 -90 137 -139t192 -49q30 0 42 1q-69 9 -113 27t-94 64t-85 138t-35 184zM708 567q0 -58 -1 -66h86q-6 149 -93 236q-45 42 -101 59q109 -87 109 -229zM239 1110q-1 40 29 70
t60 30t50 -8q62 -24 62 -92q0 -42 -30 -72t-70 -29q-41 0 -71 30t-30 71zM753 1098q-1 -31 -31 -60t-70 -29t-70 29t-30 64q0 34 14 58q29 50 86 50q18 0 39 -8q62 -23 62 -104zM356 1052v119q0 17 -22 17t-44 -24t-22 -54t22 -54t44 -24t22 20zM669 1052v119q-2 17 -23 17
t-44 -24q-22 -24 -22 -54t22 -54t44 -24t23 20z" />
    <glyph glyph-name="igrave" unicode="&#xec;" horiz-adv-x="526" 
d="M491 0h-439v27q66 13 92 47t26 118v420q0 85 -25 120t-93 45v22l322 37v-644q0 -84 24 -118t93 -47v-27zM204 667v-524q0 -42 -3 -49t-28 -32l-21 -18h200l-24 18q-3 3 -4 3l-13 10q-13 13 -15 38v681l-164 -18l39 -28l14 -10q13 -10 16 -23t3 -48zM288 977l-241 262h202
l77 -262h-38zM111 1212l145 -160l-62 160h-83z" />
    <glyph glyph-name="iacute" unicode="&#xed;" horiz-adv-x="526" 
d="M491 0h-439v27q66 13 92 47t26 118v420q0 85 -25 120t-93 45v22l322 37v-644q0 -84 24 -118t93 -47v-27zM204 667v-524q0 -42 -3 -49t-28 -32l-21 -18h200l-24 18q-3 3 -4 3l-13 10q-13 13 -15 38v681l-164 -18l39 -28l14 -10q13 -10 16 -23t3 -48zM248 1239h201
l-241 -262h-38zM268 1212l-50 -160l133 160h-83z" />
    <glyph glyph-name="icircumflex" unicode="&#xee;" horiz-adv-x="526" 
d="M491 0h-439v27q66 13 92 47t26 118v420q0 85 -25 120t-93 45v22l322 37v-644q0 -84 24 -118t93 -47v-27zM204 667v-524q0 -42 -3 -49t-28 -32l-21 -18h200l-24 18q-3 3 -4 3l-13 10q-13 13 -15 38v681l-164 -18l39 -28l14 -10q13 -10 16 -23t3 -48zM531 989l-273 104
l-273 -104l-20 35l293 228l292 -228zM255 1124l137 -53l-157 124l-218 -165z" />
    <glyph glyph-name="idieresis" unicode="&#xef;" horiz-adv-x="526" 
d="M491 0h-439v27q66 13 92 47t26 118v420q0 85 -25 120t-93 45v22l322 37v-644q0 -84 24 -118t93 -47v-27zM204 667v-524q0 -42 -3 -49t-28 -32l-21 -18h200l-24 18q-3 3 -4 3l-13 10q-13 13 -15 38v681l-164 -18l39 -28l14 -10q13 -10 16 -23t3 -48zM-7 1110q-1 40 29 70
t60 30t50 -8q62 -24 62 -92q0 -42 -30 -72t-70 -29q-41 0 -71 30t-30 71zM507 1098q-1 -31 -31 -60t-70 -29t-70 29t-30 64q0 34 14 58q29 50 86 50q18 0 39 -8q62 -23 62 -104zM110 1052v119q0 17 -22 17t-44 -24t-22 -54t22 -54t44 -24t22 20zM423 1052v119q-2 17 -23 17
t-44 -24q-22 -24 -22 -54t22 -54t44 -24t23 20z" />
    <glyph glyph-name="ntilde" unicode="&#xf1;" horiz-adv-x="1155" 
d="M726 841q68 -1 134 -37t103 -100t37 -180v-332q0 -84 24 -118t93 -47v-27h-439v27q67 12 93 47q24 35 24 118v338q-1 106 -15 152q-30 95 -126 96q-64 0 -126 -44t-154 -154v-388q0 -84 24 -118t93 -47v-27h-439v27q66 13 92 47t26 118v420q0 85 -25 120t-93 45v22
l322 37v-203q126 151 230 189q54 20 122 19zM922 113v20l-1 10v382q0 136 -44 197q-61 84 -161 84q-14 0 -46 -4q62 -8 96 -36q63 -51 63 -235v-388q0 -40 -3 -48t-15 -20l-13 -13l-20 -18h199l-23 18v1q0 2 -4 2q-28 22 -28 48zM204 667v-524q0 -42 -3 -49t-28 -32l-21 -18
h200l-24 18q-3 3 -4 3l-13 10q-13 13 -15 38v681l-164 -18l39 -28l14 -10q13 -10 16 -23t3 -48zM893 1199q-66 -189 -181 -189q-55 0 -126 23l-54 17q-96 32 -138 32q-67 0 -113 -64l-29 12q71 185 192 185q38 0 130 -30t114 -35q23 -5 52 -5q74 0 124 65zM404 1133
q42 -1 132 -29t120 -36q32 -8 62 -9q55 0 113 78q-48 -22 -86 -22q-39 -1 -69 7t-117 36t-123 28q-66 0 -129 -92q55 39 97 39z" />
    <glyph glyph-name="ograve" unicode="&#xf2;" horiz-adv-x="1031" 
d="M518 -20q-126 0 -234 58t-170 156q-62 100 -62 216t62 214t170 158q108 58 217 58t193 -32t149 -92t101 -140t35 -180q0 -100 -61 -201q-62 -99 -168 -157t-232 -58zM339 131q68 -107 178 -107q52 0 99 29q93 57 128 203q17 76 17 176t-31 189q-65 186 -214 186
q-110 1 -178 -107t-67 -285q0 -177 68 -284zM181 411q0 272 185 382q-170 -63 -245 -224q-35 -76 -35 -159q0 -173 129 -289q49 -39 133 -84q-49 39 -67 58q-100 106 -100 316zM889 412q0 132 -67 236t-180 146q153 -112 153 -381q0 -261 -161 -380l-16 -12q131 58 202 159
q69 100 69 232zM548 977l-241 262h202l77 -262h-38zM371 1212l145 -160l-62 160h-83z" />
    <glyph glyph-name="oacute" unicode="&#xf3;" horiz-adv-x="1031" 
d="M518 -20q-126 0 -234 58t-170 156q-62 100 -62 216t62 214t170 158q108 58 217 58t193 -32t149 -92t101 -140t35 -180q0 -100 -61 -201q-62 -99 -168 -157t-232 -58zM339 131q68 -107 178 -107q52 0 99 29q93 57 128 203q17 76 17 176t-31 189q-65 186 -214 186
q-110 1 -178 -107t-67 -285q0 -177 68 -284zM181 411q0 272 185 382q-170 -63 -245 -224q-35 -76 -35 -159q0 -173 129 -289q49 -39 133 -84q-49 39 -67 58q-100 106 -100 316zM889 412q0 132 -67 236t-180 146q153 -112 153 -381q0 -261 -161 -380l-16 -12q131 58 202 159
q69 100 69 232zM562 1239h201l-241 -262h-38zM582 1212l-50 -160l133 160h-83z" />
    <glyph glyph-name="ocircumflex" unicode="&#xf4;" horiz-adv-x="1031" 
d="M518 -20q-126 0 -234 58t-170 156q-62 100 -62 216t62 214t170 158q108 58 217 58t193 -32t149 -92t101 -140t35 -180q0 -100 -61 -201q-62 -99 -168 -157t-232 -58zM339 131q68 -107 178 -107q52 0 99 29q93 57 128 203q17 76 17 176t-31 189q-65 186 -214 186
q-110 1 -178 -107t-67 -285q0 -177 68 -284zM181 411q0 272 185 382q-170 -63 -245 -224q-35 -76 -35 -159q0 -173 129 -289q49 -39 133 -84q-49 39 -67 58q-100 106 -100 316zM889 412q0 132 -67 236t-180 146q153 -112 153 -381q0 -261 -161 -380l-16 -12q131 58 202 159
q69 100 69 232zM805 989l-273 104l-273 -104l-20 35l293 228l292 -228zM529 1124l137 -53l-157 124l-218 -165z" />
    <glyph glyph-name="otilde" unicode="&#xf5;" horiz-adv-x="1031" 
d="M518 -20q-126 0 -234 58t-170 156q-62 100 -62 216t62 214t170 158q108 58 217 58t193 -32t149 -92t101 -140t35 -180q0 -100 -61 -201q-62 -99 -168 -157t-232 -58zM339 131q68 -107 178 -107q52 0 99 29q93 57 128 203q17 76 17 176t-31 189q-65 186 -214 186
q-110 1 -178 -107t-67 -285q0 -177 68 -284zM181 411q0 272 185 382q-170 -63 -245 -224q-35 -76 -35 -159q0 -173 129 -289q49 -39 133 -84q-49 39 -67 58q-100 106 -100 316zM889 412q0 132 -67 236t-180 146q153 -112 153 -381q0 -261 -161 -380l-16 -12q131 58 202 159
q69 100 69 232zM836 1199q-66 -189 -181 -189q-55 0 -126 23l-54 17q-96 32 -138 32q-67 0 -113 -64l-29 12q71 185 192 185q37 0 129 -30t115 -35t52 -5q74 0 124 65zM348 1133q42 -1 130 -29q90 -28 121 -36t61 -9q55 0 114 78q-48 -22 -86 -22q-38 -1 -68 7t-118 36
q-87 28 -123 28q-66 0 -129 -92q56 39 98 39z" />
    <glyph glyph-name="odieresis" unicode="&#xf6;" horiz-adv-x="1031" 
d="M518 -20q-126 0 -234 58t-170 156q-62 100 -62 216t62 214t170 158q108 58 217 58t193 -32t149 -92t101 -140t35 -180q0 -100 -61 -201q-62 -99 -168 -157t-232 -58zM339 131q68 -107 178 -107q52 0 99 29q93 57 128 203q17 76 17 176t-31 189q-65 186 -214 186
q-110 1 -178 -107t-67 -285q0 -177 68 -284zM181 411q0 272 185 382q-170 -63 -245 -224q-35 -76 -35 -159q0 -173 129 -289q49 -39 133 -84q-49 39 -67 58q-100 106 -100 316zM889 412q0 132 -67 236t-180 146q153 -112 153 -381q0 -261 -161 -380l-16 -12q131 58 202 159
q69 100 69 232zM266 1110q0 40 30 70t59 30t49 -8q62 -24 63 -92q1 -42 -29 -72t-71 -29q-41 0 -71 30t-30 71zM780 1098q0 -31 -30 -60t-70 -29t-70 29t-31 64q0 34 14 58q29 50 86 50q18 0 39 -8q62 -23 62 -104zM383 1052v119q1 17 -21 17t-45 -24q-22 -24 -22 -54
t22 -54t44 -24t22 20zM696 1052v119q-2 17 -23 17t-44 -24q-22 -24 -22 -54t22 -54q23 -24 45 -24t22 20z" />
    <glyph glyph-name="divide" unicode="&#xf7;" 
d="M751 0h-683v1365h683v-1365zM82 1351v-1337h655v1337h-655z" />
    <glyph glyph-name="oslash" unicode="&#xf8;" horiz-adv-x="1031" 
d="M979 410q0 -115 -61.5 -214.5t-167.5 -157.5t-244 -58t-258 77l-77 -99l-27 21l76 98q-76 58 -122 147q-46 90 -46 196t62 204t170 158q108 58 236 58q129 0 244 -67l77 99l27 -21l-75 -96q186 -131 186 -345zM519 807q-113 1 -181 -107t-67 -259q0 -151 38 -251l390 500
q-67 117 -180 117zM517 24q148 0 214 188q30 88 30 216t-45 228l-391 -501q66 -131 192 -131zM181 411q0 272 185 382q-170 -63 -245 -224q-35 -76 -35 -204t129 -244q49 -39 133 -84q-49 39 -67 58q-100 106 -100 316zM889 412q0 132 -67 236t-180 146q153 -112 153 -381
q0 -169 -59 -268q-37 -63 -118 -124q131 58 202 159q69 100 69 232z" />
    <glyph glyph-name="ugrave" unicode="&#xf9;" horiz-adv-x="1095" 
d="M735 177q-159 -199 -327 -199q-170 0 -248 134q-37 64 -37 183v317q0 84 -25 120t-92 45v22l322 37v-547q0 -109 14 -153t48 -69q32 -26 83 -26t108 37t138 132l16 19v383q0 84 -25 120t-92 45v22l322 37v-644q0 -84 24 -118t93 -47v-27h-322v177zM862 113v20l-1 10v651
l-164 -18l40 -28h2q0 -1 12 -10t15 -21t3 -50v-623h148l-23 18v1q0 2 -4 2q-28 22 -28 48zM249 288v507l-164 -19l40 -28h2q0 -1 12 -10t15 -21t3 -50v-373q0 -126 55 -201q79 -89 165 -89l29 2q-60 9 -94 38q-64 55 -63 244zM561 977l-241 262h202l77 -262h-38zM384 1212
l145 -160l-62 160h-83z" />
    <glyph glyph-name="uacute" unicode="&#xfa;" horiz-adv-x="1095" 
d="M735 177q-159 -199 -327 -199q-170 0 -248 134q-37 64 -37 183v317q0 84 -25 120t-92 45v22l322 37v-547q0 -109 14 -153t48 -69q32 -26 83 -26t108 37t138 132l16 19v383q0 84 -25 120t-92 45v22l322 37v-644q0 -84 24 -118t93 -47v-27h-322v177zM862 113v20l-1 10v651
l-164 -18l40 -28h2q0 -1 12 -10t15 -21t3 -50v-623h148l-23 18v1q0 2 -4 2q-28 22 -28 48zM249 288v507l-164 -19l40 -28h2q0 -1 12 -10t15 -21t3 -50v-373q0 -126 55 -201q79 -89 165 -89l29 2q-60 9 -94 38q-64 55 -63 244zM549 1239h201l-241 -262h-38zM569 1212
l-50 -160l133 160h-83z" />
    <glyph glyph-name="ucircumflex" unicode="&#xfb;" horiz-adv-x="1095" 
d="M735 177q-159 -199 -327 -199q-170 0 -248 134q-37 64 -37 183v317q0 84 -25 120t-92 45v22l322 37v-547q0 -109 14 -153t48 -69q32 -26 83 -26t108 37t138 132l16 19v383q0 84 -25 120t-92 45v22l322 37v-644q0 -84 24 -118t93 -47v-27h-322v177zM862 113v20l-1 10v651
l-164 -18l40 -28h2q0 -1 12 -10t15 -21t3 -50v-623h148l-23 18v1q0 2 -4 2q-28 22 -28 48zM249 288v507l-164 -19l40 -28h2q0 -1 12 -10t15 -21t3 -50v-373q0 -126 55 -201q79 -89 165 -89l29 2q-60 9 -94 38q-64 55 -63 244zM818 989l-273 104l-273 -104l-20 35l293 228
l292 -228zM542 1124l137 -53l-157 124l-218 -165z" />
    <glyph glyph-name="udieresis" unicode="&#xfc;" horiz-adv-x="1095" 
d="M735 177q-159 -199 -327 -199q-170 0 -248 134q-37 64 -37 183v317q0 84 -25 120t-92 45v22l322 37v-547q0 -109 14 -153t48 -69q32 -26 83 -26t108 37t138 132l16 19v383q0 84 -25 120t-92 45v22l322 37v-644q0 -84 24 -118t93 -47v-27h-322v177zM862 113v20l-1 10v651
l-164 -18l40 -28h2q0 -1 12 -10t15 -21t3 -50v-623h148l-23 18v1q0 2 -4 2q-28 22 -28 48zM249 288v507l-164 -19l40 -28h2q0 -1 12 -10t15 -21t3 -50v-373q0 -126 55 -201q79 -89 165 -89l29 2q-60 9 -94 38q-64 55 -63 244zM279 1110q-1 40 29 70t60 30t50 -8
q62 -24 62 -92q0 -42 -30 -72t-70 -29q-41 0 -71 30t-30 71zM793 1098q-1 -31 -31 -60t-70 -29t-70 29t-30 64q0 34 14 58q29 50 86 50q18 0 39 -8q62 -23 62 -104zM396 1052v119q0 17 -22 17t-44 -24t-22 -54t22 -54t44 -24t22 20zM709 1052v119q-2 17 -23 17t-44 -24
q-22 -24 -22 -54t22 -54t44 -24t23 20z" />
    <glyph glyph-name="ydieresis" unicode="&#xff;" horiz-adv-x="839" 
d="M146 1110q0 40 30 70t59 30t49 -8q62 -24 63 -92q1 -42 -29 -72t-71 -29q-41 0 -71 30t-30 71zM660 1098q0 -31 -30 -60t-70 -29t-70 29t-31 64q0 34 14 58q29 50 86 50q18 0 39 -8q62 -23 62 -104zM263 1052v119q1 17 -21 17t-45 -24q-22 -24 -22 -54t22 -54t44 -24
t22 20zM576 1052v119q-2 17 -23 17t-44 -24q-22 -24 -22 -54t22 -54q23 -24 45 -24t22 20z" />
    <glyph glyph-name="dotlessi" unicode="&#x131;" horiz-adv-x="526" 
d="M491 0h-439v27q66 13 92 47t26 118v420q0 85 -25 120t-93 45v22l322 37v-644q0 -84 24 -118t93 -47v-27zM204 667v-524q0 -42 -3 -49t-28 -32l-21 -18h200l-24 18q-3 3 -4 3l-13 10q-13 13 -15 38v681l-164 -18l39 -28l14 -10q13 -10 16 -23t3 -48z" />
    <glyph glyph-name="OE" unicode="&#x152;" horiz-adv-x="2158" 
d="M1501 1365h498l38 -372h-31q-52 172 -154 254q-103 81 -268 81h-41q-172 0 -217 -91q-23 -47 -23 -128v-340h119q150 -1 220 47t95 172h30v-506h-30q-30 148 -94 198t-219 50h-121v-433q0 -98 18 -151t65 -74t130 -21h78q138 0 274 94t258 263h34l-117 -408h-533
q-90 0 -215 5l-102 2q-77 0 -209 -10t-187 -10q-257 0 -427 110q-304 201 -304 603q0 140 54 269q109 265 393 365q141 50 309 50q64 0 177 -12t201 -13q88 0 104 1l99 2l67 2q9 1 31 1zM319 686q0 -280 150.5 -463.5t373.5 -183.5q119 0 174 55t55 170l2 772l-1 37
q0 81 -8 124q-29 146 -242 146q-87 -1 -186 -49q-201 -99 -279 -346q-39 -122 -39 -262zM103 690q0 -120 32 -223q66 -211 250 -332q90 -60 200 -89q-170 78 -257 209q-121 174 -121 417q1 128 35 246q63 214 218 327q69 48 169 81q-230 -49 -367 -203q-159 -178 -159 -433z
M1946 1195l-21 133h-144q57 -25 91 -52t74 -81zM1694 683v129q-24 -24 -40 -34t-67 -30q56 -17 107 -65zM1786 51h186l55 186q-101 -120 -241 -186zM1175 1323q-54 0 -170 12l53 -37q30 -20 40 -36t10 -45v-33q1 -6 1 -17v-942q0 -12 -1 -18v-32q0 -46 -22 -64t-27 -22
l-47 -39q85 8 152 8t157 -5l-52 36q-52 32 -54 86v44q-1 2 -1 6v942q0 4 1 6v44q2 44 25 63l22 18l1.5 1.5l2.5 2.5t3 1l38 23q-78 -3 -132 -3z" />
    <glyph glyph-name="oe" unicode="&#x153;" horiz-adv-x="1627" 
d="M1267 48q135 0 287 142l20 -27q-136 -129 -258 -167q-63 -19 -151 -19q-89 -1 -177 47t-135 127q-127 -171 -338 -171q-127 0 -233 58t-168 158t-62 214t62 214t168 158t232 58q209 0 347 -180q126 181 337 181q106 1 192 -43q183 -92 194 -332h-603v-22q0 -243 135 -347
q64 -49 151 -49zM1191 808q-192 0 -210 -307h399q-2 139 -26 193t-67 84q-44 30 -96 30zM1416 501h85q-3 111 -55 189t-139 106q59 -47 84 -109t25 -158v-28zM1175 6q28 0 40 1q-90 12 -146 44t-100 96q-80 116 -80 298q0 111 33 191t108 147q-125 -81 -184 -213
q-68 162 -204 224q153 -111 153 -381q0 -207 -84 -310q-27 -32 -93 -82q152 80 222 223q46 -110 136 -174t199 -64zM181 411q0 272 185 382q-170 -63 -245 -224q-35 -76 -35 -204t129 -244q49 -39 133 -84q-49 39 -67 58q-100 106 -100 316zM339 131q68 -107 178 -107
q52 0 122 43t105 189q17 76 17 176t-31 189q-65 186 -214 186q-110 1 -178 -107t-67 -285q0 -177 68 -284z" />
    <glyph glyph-name="Ydieresis" unicode="&#x178;" horiz-adv-x="1487" 
d="M1132 1183q0 143 -199 151v31h536v-31q-52 -14 -114 -51t-163 -160l-353 -440v-378q0 -87 11 -129t56 -84q45 -44 156 -61v-31h-677v31q180 26 213 151q9 41 9 123v335l-305 442l-11 15q-88 131 -145 180q-58 49 -128 57v31h633v-31l-21 -1q-80 -5 -108 -24t-28 -64
t42 -107l288 -412l232 285q76 94 76 172zM1166 1186q71 86 151 145h-245q50 -24 72 -57t22 -88zM397 1242q0 52 62 90h-331q44 -26 84 -71t115 -153l318 -461v-449q0 -62 -9 -77q-9 -14 -45 -41l-39 -29h292l-39 29q-33 26 -43 40t-10 45v22q-1 3 -1 11v485l-296 422
q-58 85 -58 137zM460 1631q0 41 30 71t59 29q29 1 49 -7q62 -24 63 -93q1 -41 -29 -71t-71 -30t-71 30t-30 71zM974 1619q0 -31 -30 -60t-70 -29t-70 29t-31 64q0 35 14 59q29 49 86 49q18 0 39 -8q62 -23 62 -104zM577 1573v119q1 17 -21 17t-45 -24q-22 -25 -22 -55
t22 -53q22 -24 44 -24t22 20zM890 1573v119q-2 17 -23 17t-44 -24q-22 -25 -22 -55t22 -53q23 -24 45 -24t22 20z" />
    <glyph glyph-name="florin" unicode="&#x192;" horiz-adv-x="1106" 
d="M949 1413q0 73 -67 73q-50 0 -90 -44t-60 -118q-42 -152 -46 -193q-5 -42 -8 -53l-38 -218h242l-7 -38h-242l-128 -721q-37 -209 -98 -298t-153 -136t-202 -47q-112 0 -184 56t-71 144q0 58 35 97q36 39 80 39t66 -20t23 -43q0 -24 -5 -49l-9 -40q-9 -40 -9 -72t20 -54
t62 -22q43 0 87 49t64 121q19 72 50 244l133 752h-108l7 38h108l33 187q11 70 33 151q47 174 174 255q102 69 226 69t194 -53q68 -53 68 -127q1 -74 -33 -112t-78 -39q-44 0 -67.5 20.5t-23.5 48.5t4 43l9 40q9 38 9 70zM791 1490q-169 -55 -234 -174q-33 -60 -49 -113
t-37 -166l-169 -954l-4 -27q-46 -250 -91 -324q-26 -42 -71 -74q126 48 184 140t96 313l169 953q33 197 76 286t130 140zM-91 -246q-1 38 9 78t10 52q0 35 -30 35t-48 -28q-17 -27 -17 -77q1 -50 35 -94t93 -60q-52 28 -52 94zM1000 1229q57 0 57 104q-1 53 -29 95t-79 56
q34 -25 34 -68q0 -44 -10 -92t-10 -57q0 -38 37 -38z" />
    <glyph glyph-name="hungarumlaut" unicode="&#x2ba;" 
d="M751 0h-683v1365h683v-1365zM82 1351v-1337h655v1337h-655z" />
    <glyph glyph-name="circumflex" unicode="&#x2c6;" horiz-adv-x="790" 
d="M668 989l-273 104l-273 -104l-20 35l293 228l292 -228zM392 1124l137 -53l-157 124l-218 -165z" />
    <glyph glyph-name="caron" unicode="&#x2c7;" 
d="M751 0h-683v1365h683v-1365zM82 1351v-1337h655v1337h-655z" />
    <glyph glyph-name="breve" unicode="&#x2d8;" 
d="M751 0h-683v1365h683v-1365zM82 1351v-1337h655v1337h-655z" />
    <glyph glyph-name="dotaccent" unicode="&#x2d9;" 
d="M751 0h-683v1365h683v-1365zM82 1351v-1337h655v1337h-655z" />
    <glyph glyph-name="ring" unicode="&#x2da;" horiz-adv-x="575" 
d="M102 1109q0 69 56 119t119 49q116 0 171 -84q25 -37 25 -95t-54 -108q-53 -50 -129 -50t-132 50t-56 119zM222.5 1111q0.5 -67 18.5 -107t47 -39.5t47 40.5q17 43 17 107t-16 104t-48 41q-30 1 -48 -39t-17.5 -107zM131 1109q0 -88 88 -134q-47 41 -47 131t47 136
q-88 -45 -88 -133zM420 1108q0 44 -21 81q-22 36 -59 52q39 -39 39 -131t-47 -135q88 43 88 133z" />
    <glyph glyph-name="ogonek" unicode="&#x2db;" 
d="M751 0h-683v1365h683v-1365zM82 1351v-1337h655v1337h-655z" />
    <glyph glyph-name="tilde" unicode="&#x2dc;" horiz-adv-x="845" 
d="M743 1199q-66 -189 -181 -189q-55 0 -126 23l-54 17q-96 32 -138 32q-67 0 -113 -64l-29 12q71 185 192 185q38 0 130 -30t114 -35q23 -5 52 -5q74 0 124 65zM254 1133q42 -1 132 -29t120 -36q32 -8 62 -9q55 0 113 78q-48 -22 -86 -22q-39 -1 -69 7t-117 36t-123 28
q-66 0 -129 -92q55 39 97 39z" />
    <glyph glyph-name="summation" unicode="&#x3a3;" 
d="M751 0h-683v1365h683v-1365zM82 1351v-1337h655v1337h-655z" />
    <glyph glyph-name="Omega" unicode="&#x3a9;" 
d="M751 0h-683v1365h683v-1365zM82 1351v-1337h655v1337h-655z" />
    <glyph glyph-name="pi" unicode="&#x3c0;" 
d="M751 0h-683v1365h683v-1365zM82 1351v-1337h655v1337h-655z" />
    <glyph glyph-name="endash" unicode="&#x2013;" horiz-adv-x="869" 
d="M776 444h-683v37h683v-37z" />
    <glyph glyph-name="emdash" unicode="&#x2014;" horiz-adv-x="2234" 
d="M2141 444h-2048v37h2048v-37z" />
    <glyph glyph-name="quoteleft" unicode="&#x2018;" horiz-adv-x="402" 
d="M238 1279q0 -33 21 -60l21 -28q29 -39 29 -71t-21.5 -68t-75.5 -36q-55 0 -87 32t-32 85q0 115 178 266l17 -15q-50 -72 -50 -105zM128 1136q0 -34 18 -56.5t43 -22.5t39 17t14 43t-18 54l-11 19q-24 41 -24 59t1 20v10q-40 -61 -51 -85t-11 -58z" />
    <glyph glyph-name="quoteright" unicode="&#x2019;" horiz-adv-x="402" 
d="M161 1137q0 32 -21 60l-21 28q-29 41 -29 79t32 66t78 29q48 0 78 -31t31 -85q0 -116 -178 -267l-17 16q47 73 47 105zM189 1153v-13q44 86 44 130q-1 44 -17 66t-40 22t-38 -16t-13 -43q0 -25 32 -71t32 -75z" />
    <glyph glyph-name="quotesinglbase" unicode="&#x201a;" 
d="M751 0h-683v1365h683v-1365zM82 1351v-1337h655v1337h-655z" />
    <glyph glyph-name="quotedblleft" unicode="&#x201c;" horiz-adv-x="658" 
d="M238 1279q0 -33 21 -60l21 -28q29 -39 29 -71t-21.5 -68t-75.5 -36q-55 0 -87 32t-32 85q0 115 178 266l17 -15q-50 -72 -50 -105zM494 1279q0 -33 21 -60l21 -28q29 -39 29 -71t-21.5 -68t-75.5 -36q-55 0 -87 32t-32 85q0 115 178 266l17 -15q-50 -72 -50 -105z
M127 1145q-1 -43 19 -65t44 -23q24 0 38 17t14 43t-18 54l-11 19q-24 41 -24 59t1 20v10q-63 -91 -63 -134zM383 1145q-1 -43 19 -65t44 -23q24 0 38 17t14 43t-18 54l-11 19q-24 41 -24 59t1 20v10q-63 -91 -63 -134z" />
    <glyph glyph-name="quotedblright" unicode="&#x201d;" horiz-adv-x="658" 
d="M161 1137q0 32 -21 60l-21 28q-29 41 -29 79t32 66t78 29q48 0 78 -31t31 -85q0 -116 -178 -267l-17 16q47 73 47 105zM417 1137q0 32 -21 60l-21 28q-29 41 -29 79t32 66t78 29q48 0 78 -31t31 -85q0 -116 -178 -267l-17 16q47 73 47 105zM233 1272q0 86 -59 86
q-22 0 -36 -16t-13.5 -40.5t20.5 -56.5l24 -37q20 -32 20 -55v-6q-1 -2 -1 -7q45 90 45 132zM445 1152v-10q44 88 44 130q0 86 -59 86q-22 0 -36 -16t-13 -43q0 -26 32 -73t32 -74z" />
    <glyph glyph-name="quotedblbase" unicode="&#x201e;" horiz-adv-x="658" 
d="M161 -44q0 32 -21 60l-21 28q-29 42 -29 80t31 66t79 28t78 -31t31 -85q0 -118 -178 -266l-17 15q47 73 47 105zM417 -44q0 32 -21 60l-21 28q-29 40 -29 79t31 67t79 28t78 -31t31 -85q0 -118 -178 -266l-17 15q47 73 47 105zM233 95q0 82 -58 82q-23 -1 -37 -17
t-13 -42q0 -26 32 -71t32 -79v-6l10 20q34 67 34 113zM489 90q0 87 -58 87q-23 -1 -37 -17t-13 -42q0 -26 24 -60q40 -57 40 -92v-3q44 84 44 127z" />
    <glyph glyph-name="dagger" unicode="&#x2020;" 
d="M751 0h-683v1365h683v-1365zM82 1351v-1337h655v1337h-655z" />
    <glyph glyph-name="daggerdbl" unicode="&#x2021;" 
d="M751 0h-683v1365h683v-1365zM82 1351v-1337h655v1337h-655z" />
    <glyph glyph-name="bullet" unicode="&#x2022;" horiz-adv-x="644" 
d="M66 681q0 69 35 129t93 93.5t128 33t128 -34.5t94 -92q34 -58 34 -128.5t-34 -128.5t-94 -93t-129 -35t-127 35q-58 36 -93 94t-35 127z" />
    <glyph glyph-name="ellipsis" unicode="&#x2026;" horiz-adv-x="2048" 
d="M213 112q0 36 17 65t46 46t65 17t65 -17t46 -46t17 -65t-17 -65t-46 -46t-65 -17t-65 17t-46 46t-17 65zM896 112q0 36 17 65t46 46t65 17t65 -17t46 -46t17 -65t-17 -65t-46 -46t-65 -17t-65 17t-46 46t-17 65zM1578 112q0 36 17 65t46 46t65 17t65 -17t46 -46t17 -65
t-17 -65t-46 -46t-65 -17t-65 17t-46 46t-17 65zM360 38v148q0 25 -30 25q-30 1 -56 -29q-28 -30 -28 -70t28 -70t56 -29q30 0 30 25zM1042 38v148q0 25 -30 25q-30 1 -56 -29q-28 -30 -28 -70t28 -70t56 -29q30 0 30 25zM1725 38v148q1 25 -29 25q-30 1 -58 -29t-28 -70
t28 -70t58 -29q30 0 29 25z" />
    <glyph glyph-name="perthousand" unicode="&#x2030;" horiz-adv-x="2317" 
d="M1148 1370l-707 -1393l-36 18l707 1393zM1461 366q0 -104 -48 -194q-47 -90 -129 -141t-180 -51t-180 52q-83 52 -130 140t-47 196q-1 107 47 194q48 88 132 140t180 52t178 -51q81 -53 129 -143t48 -194zM93 998q0 104 48 194q48 89 131 141q84 52 180 52q96 1 178 -51
t130 -142t48 -194t-48 -194t-130 -142t-178 -51q-98 1 -182 53t-129 141q-48 89 -48 193zM2224 366q0 -104 -48 -194t-130 -141t-178 -51q-98 0 -182 52t-130 142q-47 90 -47 194q-1 104 47 192q48 90 132 142t180 52t178 -52t130 -141.5t48 -194.5zM862 367q0 75 15 139
q26 130 108 196q-99 -46 -153 -134t-55 -200q0 -217 196 -328q-111 114 -111 327zM1387 370q0 116 -49 204t-133 128q95 -98 95 -327q0 -125 -24 -203t-81 -141q93 49 143 137t49 202zM1103 722q-73 0 -119 -96t-46 -254q0 -156 46 -252t120 -96t120 96t45.5 253.5
t-45.5 253.5q-47 95 -121 95zM209 998q0 110 32 200t90 136q-47 -23 -65 -35q-18 -11 -54 -51t-62 -109t-26 -139q0 -217 196 -328q-111 114 -111 326zM647 1004q0 -124 -25 -203t-81 -139q93 49 143 137t50 182q0 173 -86 278q-44 51 -97 75q96 -96 96 -330zM285.5 1004
q-0.5 -157 45.5 -253t120 -96t120 96q45 96 45 255t-45 253t-119 94t-120 -96t-46.5 -253zM1625 367q0 109 33 200t89 135q-99 -46 -153 -134t-54 -200q0 -217 196 -328q-111 114 -111 327zM2150 370q0 116 -49 204t-133 128q95 -98 95 -327q-1 -125 -23 -202t-83 -142
q93 49 143 137t50 202zM1866 722q-74 0 -120 -96t-45 -254q0 -156 46 -252t119.5 -96t119.5 96t46 253.5t-45 253.5q-47 95 -121 95z" />
    <glyph glyph-name="guilsinglleft" unicode="&#x2039;" horiz-adv-x="465" 
d="M278 465q75 -157 94 -303h-28q-48 88 -102 154t-149 149q107 101 156 161q50 60 95 142h28q-17 -134 -94 -303zM299 281q-24 95 -84 183q56 85 89 186q-56 -74 -104 -122t-65 -64q109 -92 164 -183z" />
    <glyph glyph-name="guilsinglright" unicode="&#x203a;" horiz-adv-x="465" 
d="M93 162q19 140 94 303q-59 130 -73 187q-13 57 -21 116h28q61 -111 124 -177q63 -67 127 -126q-106 -98 -154 -158t-97 -145h-28zM140 280q60 85 161 186q-109 95 -158 183q27 -95 82 -183q-54 -90 -85 -186z" />
    <glyph glyph-name="trademark" unicode="&#x2122;" 
d="M751 0h-683v1365h683v-1365zM82 1351v-1337h655v1337h-655z" />
    <glyph glyph-name="partialdiff" unicode="&#x2202;" 
d="M751 0h-683v1365h683v-1365zM82 1351v-1337h655v1337h-655z" />
    <glyph glyph-name="Delta" unicode="&#x2206;" 
d="M751 0h-683v1365h683v-1365zM82 1351v-1337h655v1337h-655z" />
    <glyph glyph-name="product" unicode="&#x220f;" 
d="M751 0h-683v1365h683v-1365zM82 1351v-1337h655v1337h-655z" />
    <glyph glyph-name="fraction" unicode="&#x2215;" 
d="M751 0h-683v1365h683v-1365zM82 1351v-1337h655v1337h-655z" />
    <glyph glyph-name="radical" unicode="&#x221a;" 
d="M751 0h-683v1365h683v-1365zM82 1351v-1337h655v1337h-655z" />
    <glyph glyph-name="infinity" unicode="&#x221e;" 
d="M751 0h-683v1365h683v-1365zM82 1351v-1337h655v1337h-655z" />
    <glyph glyph-name="integral" unicode="&#x222b;" 
d="M751 0h-683v1365h683v-1365zM82 1351v-1337h655v1337h-655z" />
    <glyph glyph-name="approxequal" unicode="&#x2248;" 
d="M751 0h-683v1365h683v-1365zM82 1351v-1337h655v1337h-655z" />
    <glyph glyph-name="notequal" unicode="&#x2260;" 
d="M751 0h-683v1365h683v-1365zM82 1351v-1337h655v1337h-655z" />
    <glyph glyph-name="lessequal" unicode="&#x2264;" 
d="M751 0h-683v1365h683v-1365zM82 1351v-1337h655v1337h-655z" />
    <glyph glyph-name="greaterequal" unicode="&#x2265;" 
d="M751 0h-683v1365h683v-1365zM82 1351v-1337h655v1337h-655z" />
    <glyph glyph-name="lozenge" unicode="&#x25ca;" 
d="M751 0h-683v1365h683v-1365zM82 1351v-1337h655v1337h-655z" />
    <glyph glyph-name="apple" unicode="&#xf000;" 
d="M751 0h-683v1365h683v-1365zM82 1351v-1337h655v1337h-655z" />
    <glyph glyph-name="fi" unicode="&#xf001;" 
d="M751 0h-683v1365h683v-1365zM82 1351v-1337h655v1337h-655z" />
    <glyph glyph-name="fl" unicode="&#xf002;" 
d="M751 0h-683v1365h683v-1365zM82 1351v-1337h655v1337h-655z" />
    <glyph glyph-name="HT" horiz-adv-x="678" 
 />
    </font>
</defs>
</svg>
